<svg version="1.1" xmlns="http://www.w3.org/2000/svg" viewBox="0 0 874.7999877929688 493.19995880126953" width="874.7999877929688" height="493.19995880126953">
  <!-- svg-source:excalidraw -->
  
  <defs>
    <style class="style-fonts">
      @font-face {
        font-family: "Virgil";
        src: url("https://excalidraw.com/Virgil.woff2");
      }
      @font-face {
        font-family: "Cascadia";
        src: url("https://excalidraw.com/Cascadia.woff2");
      }
      @font-face {
        font-family: "Assistant";
        src: url("https://excalidraw.com/Assistant-Regular.woff2");
      }
    </style>
    
  </defs>
  <g stroke-linecap="round" transform="translate(258.39996337890625 10) rotate(0 178 98.39998626708984)"><path d="M0 0 C122.89 0, 245.78 0, 356 0 M0 0 C74.42 0, 148.85 0, 356 0 M356 0 C356 45.72, 356 91.44, 356 196.8 M356 0 C356 75.7, 356 151.39, 356 196.8 M356 196.8 C222.55 196.8, 89.09 196.8, 0 196.8 M356 196.8 C227.44 196.8, 98.89 196.8, 0 196.8 M0 196.8 C0 146.6, 0 96.4, 0 0 M0 196.8 C0 155.27, 0 113.73, 0 0" stroke="#1e1e1e" stroke-width="1" fill="none"></path></g><g stroke-linecap="round" transform="translate(305.5999755859375 84.39997863769531) rotate(0 33.199981689453125 16.5)"><path d="M8.25 0 C19.24 0, 30.23 0, 58.15 0 M8.25 0 C22.84 0, 37.44 0, 58.15 0 M58.15 0 C63.65 0, 66.4 2.75, 66.4 8.25 M58.15 0 C63.65 0, 66.4 2.75, 66.4 8.25 M66.4 8.25 C66.4 12.61, 66.4 16.97, 66.4 24.75 M66.4 8.25 C66.4 13.73, 66.4 19.21, 66.4 24.75 M66.4 24.75 C66.4 30.25, 63.65 33, 58.15 33 M66.4 24.75 C66.4 30.25, 63.65 33, 58.15 33 M58.15 33 C44.9 33, 31.65 33, 8.25 33 M58.15 33 C47.84 33, 37.53 33, 8.25 33 M8.25 33 C2.75 33, 0 30.25, 0 24.75 M8.25 33 C2.75 33, 0 30.25, 0 24.75 M0 24.75 C0 20.38, 0 16.01, 0 8.25 M0 24.75 C0 19.46, 0 14.16, 0 8.25 M0 8.25 C0 2.75, 2.75 0, 8.25 0 M0 8.25 C0 2.75, 2.75 0, 8.25 0" stroke="#1e1e1e" stroke-width="1" fill="none"></path></g><g transform="translate(317.6769104003906 89.39997863769531) rotate(0 21.123046875 11.5)"><text x="21.123046875" y="0" font-family="Helvetica, Segoe UI Emoji" font-size="20px" fill="#1e1e1e" text-anchor="middle" style="white-space: pre;" direction="ltr" dominant-baseline="text-before-edge">Prop</text></g><g stroke-linecap="round" transform="translate(371.9999084472656 84.69996643066406) rotate(0 33.199981689453125 16.5)"><path d="M8.25 0 C19.73 0, 31.21 0, 58.15 0 M8.25 0 C24.09 0, 39.92 0, 58.15 0 M58.15 0 C63.65 0, 66.4 2.75, 66.4 8.25 M58.15 0 C63.65 0, 66.4 2.75, 66.4 8.25 M66.4 8.25 C66.4 13.05, 66.4 17.85, 66.4 24.75 M66.4 8.25 C66.4 13.59, 66.4 18.93, 66.4 24.75 M66.4 24.75 C66.4 30.25, 63.65 33, 58.15 33 M66.4 24.75 C66.4 30.25, 63.65 33, 58.15 33 M58.15 33 C39.74 33, 21.33 33, 8.25 33 M58.15 33 C47.39 33, 36.62 33, 8.25 33 M8.25 33 C2.75 33, 0 30.25, 0 24.75 M8.25 33 C2.75 33, 0 30.25, 0 24.75 M0 24.75 C0 18.19, 0 11.63, 0 8.25 M0 24.75 C0 19.8, 0 14.84, 0 8.25 M0 8.25 C0 2.75, 2.75 0, 8.25 0 M0 8.25 C0 2.75, 2.75 0, 8.25 0" stroke="#1e1e1e" stroke-width="1" fill="none"></path></g><g transform="translate(384.07684326171875 89.69996643066406) rotate(0 21.123046875 11.5)"><text x="21.123046875" y="0" font-family="Helvetica, Segoe UI Emoji" font-size="20px" fill="#1e1e1e" text-anchor="middle" style="white-space: pre;" direction="ltr" dominant-baseline="text-before-edge">Prop</text></g><g stroke-linecap="round" transform="translate(439.40003967285156 85.34996032714844) rotate(0 33.199981689453125 16.5)"><path d="M8.25 0 C19.54 0, 30.82 0, 58.15 0 M8.25 0 C27.8 0, 47.35 0, 58.15 0 M58.15 0 C63.65 0, 66.4 2.75, 66.4 8.25 M58.15 0 C63.65 0, 66.4 2.75, 66.4 8.25 M66.4 8.25 C66.4 12, 66.4 15.75, 66.4 24.75 M66.4 8.25 C66.4 12.13, 66.4 16.01, 66.4 24.75 M66.4 24.75 C66.4 30.25, 63.65 33, 58.15 33 M66.4 24.75 C66.4 30.25, 63.65 33, 58.15 33 M58.15 33 C39.33 33, 20.51 33, 8.25 33 M58.15 33 C43.46 33, 28.77 33, 8.25 33 M8.25 33 C2.75 33, 0 30.25, 0 24.75 M8.25 33 C2.75 33, 0 30.25, 0 24.75 M0 24.75 C0 20.71, 0 16.67, 0 8.25 M0 24.75 C0 19.1, 0 13.45, 0 8.25 M0 8.25 C0 2.75, 2.75 0, 8.25 0 M0 8.25 C0 2.75, 2.75 0, 8.25 0" stroke="#1e1e1e" stroke-width="1" fill="none"></path></g><g transform="translate(451.4769744873047 90.34996032714844) rotate(0 21.123046875 11.5)"><text x="21.123046875" y="0" font-family="Helvetica, Segoe UI Emoji" font-size="20px" fill="#1e1e1e" text-anchor="middle" style="white-space: pre;" direction="ltr" dominant-baseline="text-before-edge">Prop</text></g><g stroke-linecap="round" transform="translate(505.7999725341797 85.64994812011719) rotate(0 33.199981689453125 16.5)"><path d="M8.25 0 C25.13 0, 42.01 0, 58.15 0 M8.25 0 C22.29 0, 36.34 0, 58.15 0 M58.15 0 C63.65 0, 66.4 2.75, 66.4 8.25 M58.15 0 C63.65 0, 66.4 2.75, 66.4 8.25 M66.4 8.25 C66.4 11.67, 66.4 15.09, 66.4 24.75 M66.4 8.25 C66.4 14.5, 66.4 20.75, 66.4 24.75 M66.4 24.75 C66.4 30.25, 63.65 33, 58.15 33 M66.4 24.75 C66.4 30.25, 63.65 33, 58.15 33 M58.15 33 C46.86 33, 35.58 33, 8.25 33 M58.15 33 C46.96 33, 35.78 33, 8.25 33 M8.25 33 C2.75 33, 0 30.25, 0 24.75 M8.25 33 C2.75 33, 0 30.25, 0 24.75 M0 24.75 C0 19.42, 0 14.09, 0 8.25 M0 24.75 C0 21.42, 0 18.09, 0 8.25 M0 8.25 C0 2.75, 2.75 0, 8.25 0 M0 8.25 C0 2.75, 2.75 0, 8.25 0" stroke="#1e1e1e" stroke-width="1" fill="none"></path></g><g transform="translate(517.8769073486328 90.64994812011719) rotate(0 21.123046875 11.5)"><text x="21.123046875" y="0" font-family="Helvetica, Segoe UI Emoji" font-size="20px" fill="#1e1e1e" text-anchor="middle" style="white-space: pre;" direction="ltr" dominant-baseline="text-before-edge">Prop</text></g><g transform="translate(391.79998779296875 19.5999755859375) rotate(0 47.7978515625 11.5)"><text x="0" y="0" font-family="Helvetica, Segoe UI Emoji" font-size="20px" fill="#1e1e1e" text-anchor="start" style="white-space: pre;" direction="ltr" dominant-baseline="text-before-edge">Node(root)</text></g><g stroke-linecap="round" transform="translate(306.2999954223633 152.875) rotate(0 33.199981689453125 16.5)"><path d="M8.25 0 C25.78 0, 43.32 0, 58.15 0 M8.25 0 C26.78 0, 45.31 0, 58.15 0 M58.15 0 C63.65 0, 66.4 2.75, 66.4 8.25 M58.15 0 C63.65 0, 66.4 2.75, 66.4 8.25 M66.4 8.25 C66.4 13.03, 66.4 17.82, 66.4 24.75 M66.4 8.25 C66.4 13.17, 66.4 18.08, 66.4 24.75 M66.4 24.75 C66.4 30.25, 63.65 33, 58.15 33 M66.4 24.75 C66.4 30.25, 63.65 33, 58.15 33 M58.15 33 C46.23 33, 34.31 33, 8.25 33 M58.15 33 C47.41 33, 36.67 33, 8.25 33 M8.25 33 C2.75 33, 0 30.25, 0 24.75 M8.25 33 C2.75 33, 0 30.25, 0 24.75 M0 24.75 C0 19.8, 0 14.84, 0 8.25 M0 24.75 C0 21.21, 0 17.67, 0 8.25 M0 8.25 C0 2.75, 2.75 0, 8.25 0 M0 8.25 C0 2.75, 2.75 0, 8.25 0" stroke="#1e1e1e" stroke-width="1" fill="none"></path></g><g transform="translate(316.7118911743164 157.875) rotate(0 22.7880859375 11.5)"><text x="22.7880859375" y="0" font-family="Helvetica, Segoe UI Emoji" font-size="20px" fill="#1e1e1e" text-anchor="middle" style="white-space: pre;" direction="ltr" dominant-baseline="text-before-edge">Child</text></g><g stroke-linecap="round" transform="translate(372.6999282836914 153.17498779296875) rotate(0 33.199981689453125 16.5)"><path d="M8.25 0 C20.34 0, 32.44 0, 58.15 0 M8.25 0 C21.01 0, 33.78 0, 58.15 0 M58.15 0 C63.65 0, 66.4 2.75, 66.4 8.25 M58.15 0 C63.65 0, 66.4 2.75, 66.4 8.25 M66.4 8.25 C66.4 11.68, 66.4 15.11, 66.4 24.75 M66.4 8.25 C66.4 12.57, 66.4 16.9, 66.4 24.75 M66.4 24.75 C66.4 30.25, 63.65 33, 58.15 33 M66.4 24.75 C66.4 30.25, 63.65 33, 58.15 33 M58.15 33 C45.66 33, 33.17 33, 8.25 33 M58.15 33 C46.96 33, 35.77 33, 8.25 33 M8.25 33 C2.75 33, 0 30.25, 0 24.75 M8.25 33 C2.75 33, 0 30.25, 0 24.75 M0 24.75 C0 20.51, 0 16.27, 0 8.25 M0 24.75 C0 18.49, 0 12.23, 0 8.25 M0 8.25 C0 2.75, 2.75 0, 8.25 0 M0 8.25 C0 2.75, 2.75 0, 8.25 0" stroke="#1e1e1e" stroke-width="1" fill="none"></path></g><g transform="translate(383.11182403564453 158.17498779296875) rotate(0 22.7880859375 11.5)"><text x="22.7880859375" y="0" font-family="Helvetica, Segoe UI Emoji" font-size="20px" fill="#1e1e1e" text-anchor="middle" style="white-space: pre;" direction="ltr" dominant-baseline="text-before-edge">Child</text></g><g stroke-linecap="round" transform="translate(441.10005950927734 153.02496337890625) rotate(0 33.199981689453125 16.5)"><path d="M8.25 0 C21.86 0, 35.46 0, 58.15 0 M58.15 0 C63.65 0, 66.4 2.75, 66.4 8.25 M66.4 8.25 C66.4 12.31, 66.4 16.37, 66.4 24.75 M66.4 24.75 C66.4 30.25, 63.65 33, 58.15 33 M58.15 33 C44.52 33, 30.88 33, 8.25 33 M8.25 33 C2.75 33, 0 30.25, 0 24.75 M0 24.75 C0 19.08, 0 13.42, 0 8.25 M0 8.25 C0 2.75, 2.75 0, 8.25 0" stroke="#1e1e1e" stroke-width="1.5" fill="none" stroke-dasharray="8 9"></path></g><g transform="translate(451.51195526123047 158.02496337890625) rotate(0 22.7880859375 11.5)"><text x="22.7880859375" y="0" font-family="Helvetica, Segoe UI Emoji" font-size="20px" fill="#1e1e1e" text-anchor="middle" style="white-space: pre;" direction="ltr" dominant-baseline="text-before-edge">Child</text></g><g stroke-linecap="round" transform="translate(10 286.39998626708984) rotate(0 178 98.39998626708984)"><path d="M0 0 C126.06 0, 252.12 0, 356 0 M0 0 C98.63 0, 197.25 0, 356 0 M356 0 C356 61.55, 356 123.1, 356 196.8 M356 0 C356 62.91, 356 125.81, 356 196.8 M356 196.8 C271.22 196.8, 186.44 196.8, 0 196.8 M356 196.8 C223.34 196.8, 90.68 196.8, 0 196.8 M0 196.8 C0 154.87, 0 112.93, 0 0 M0 196.8 C0 128.19, 0 59.57, 0 0" stroke="#1e1e1e" stroke-width="1" fill="none"></path></g><g stroke-linecap="round" transform="translate(57.20001220703125 360.79996490478516) rotate(0 33.199981689453125 16.5)"><path d="M8.25 0 C25.62 0, 42.99 0, 58.15 0 M8.25 0 C27.57 0, 46.89 0, 58.15 0 M58.15 0 C63.65 0, 66.4 2.75, 66.4 8.25 M58.15 0 C63.65 0, 66.4 2.75, 66.4 8.25 M66.4 8.25 C66.4 14.68, 66.4 21.12, 66.4 24.75 M66.4 8.25 C66.4 12.01, 66.4 15.76, 66.4 24.75 M66.4 24.75 C66.4 30.25, 63.65 33, 58.15 33 M66.4 24.75 C66.4 30.25, 63.65 33, 58.15 33 M58.15 33 C45.73 33, 33.31 33, 8.25 33 M58.15 33 C42.02 33, 25.89 33, 8.25 33 M8.25 33 C2.75 33, 0 30.25, 0 24.75 M8.25 33 C2.75 33, 0 30.25, 0 24.75 M0 24.75 C0 21.24, 0 17.74, 0 8.25 M0 24.75 C0 20.76, 0 16.77, 0 8.25 M0 8.25 C0 2.75, 2.75 0, 8.25 0 M0 8.25 C0 2.75, 2.75 0, 8.25 0" stroke="#1e1e1e" stroke-width="1" fill="none"></path></g><g transform="translate(69.27694702148438 365.79996490478516) rotate(0 21.123046875 11.5)"><text x="21.123046875" y="0" font-family="Helvetica, Segoe UI Emoji" font-size="20px" fill="#1e1e1e" text-anchor="middle" style="white-space: pre;" direction="ltr" dominant-baseline="text-before-edge">Prop</text></g><g stroke-linecap="round" transform="translate(123.59994506835938 361.0999526977539) rotate(0 33.199981689453125 16.5)"><path d="M8.25 0 C25.66 0, 43.08 0, 58.15 0 M8.25 0 C23.04 0, 37.84 0, 58.15 0 M58.15 0 C63.65 0, 66.4 2.75, 66.4 8.25 M58.15 0 C63.65 0, 66.4 2.75, 66.4 8.25 M66.4 8.25 C66.4 12.18, 66.4 16.11, 66.4 24.75 M66.4 8.25 C66.4 14.4, 66.4 20.55, 66.4 24.75 M66.4 24.75 C66.4 30.25, 63.65 33, 58.15 33 M66.4 24.75 C66.4 30.25, 63.65 33, 58.15 33 M58.15 33 C41.74 33, 25.32 33, 8.25 33 M58.15 33 C41.75 33, 25.34 33, 8.25 33 M8.25 33 C2.75 33, 0 30.25, 0 24.75 M8.25 33 C2.75 33, 0 30.25, 0 24.75 M0 24.75 C0 19.52, 0 14.29, 0 8.25 M0 24.75 C0 19.91, 0 15.07, 0 8.25 M0 8.25 C0 2.75, 2.75 0, 8.25 0 M0 8.25 C0 2.75, 2.75 0, 8.25 0" stroke="#1e1e1e" stroke-width="1" fill="none"></path></g><g transform="translate(135.6768798828125 366.0999526977539) rotate(0 21.123046875 11.5)"><text x="21.123046875" y="0" font-family="Helvetica, Segoe UI Emoji" font-size="20px" fill="#1e1e1e" text-anchor="middle" style="white-space: pre;" direction="ltr" dominant-baseline="text-before-edge">Prop</text></g><g stroke-linecap="round" transform="translate(191.0000762939453 361.7499465942383) rotate(0 33.199981689453125 16.5)"><path d="M8.25 0 C19.27 0, 30.3 0, 58.15 0 M8.25 0 C18.48 0, 28.72 0, 58.15 0 M58.15 0 C63.65 0, 66.4 2.75, 66.4 8.25 M58.15 0 C63.65 0, 66.4 2.75, 66.4 8.25 M66.4 8.25 C66.4 12.33, 66.4 16.4, 66.4 24.75 M66.4 8.25 C66.4 12.4, 66.4 16.54, 66.4 24.75 M66.4 24.75 C66.4 30.25, 63.65 33, 58.15 33 M66.4 24.75 C66.4 30.25, 63.65 33, 58.15 33 M58.15 33 C47.13 33, 36.11 33, 8.25 33 M58.15 33 C45.52 33, 32.9 33, 8.25 33 M8.25 33 C2.75 33, 0 30.25, 0 24.75 M8.25 33 C2.75 33, 0 30.25, 0 24.75 M0 24.75 C0 19.45, 0 14.16, 0 8.25 M0 24.75 C0 21.05, 0 17.35, 0 8.25 M0 8.25 C0 2.75, 2.75 0, 8.25 0 M0 8.25 C0 2.75, 2.75 0, 8.25 0" stroke="#1e1e1e" stroke-width="1" fill="none"></path></g><g transform="translate(203.07701110839844 366.7499465942383) rotate(0 21.123046875 11.5)"><text x="21.123046875" y="0" font-family="Helvetica, Segoe UI Emoji" font-size="20px" fill="#1e1e1e" text-anchor="middle" style="white-space: pre;" direction="ltr" dominant-baseline="text-before-edge">Prop</text></g><g stroke-linecap="round" transform="translate(257.40000915527344 362.04993438720703) rotate(0 33.199981689453125 16.5)"><path d="M8.25 0 C23.86 0, 39.46 0, 58.15 0 M8.25 0 C24.2 0, 40.15 0, 58.15 0 M58.15 0 C63.65 0, 66.4 2.75, 66.4 8.25 M58.15 0 C63.65 0, 66.4 2.75, 66.4 8.25 M66.4 8.25 C66.4 11.72, 66.4 15.2, 66.4 24.75 M66.4 8.25 C66.4 13.2, 66.4 18.15, 66.4 24.75 M66.4 24.75 C66.4 30.25, 63.65 33, 58.15 33 M66.4 24.75 C66.4 30.25, 63.65 33, 58.15 33 M58.15 33 C47.47 33, 36.8 33, 8.25 33 M58.15 33 C42.58 33, 27.01 33, 8.25 33 M8.25 33 C2.75 33, 0 30.25, 0 24.75 M8.25 33 C2.75 33, 0 30.25, 0 24.75 M0 24.75 C0 20.46, 0 16.18, 0 8.25 M0 24.75 C0 18.47, 0 12.19, 0 8.25 M0 8.25 C0 2.75, 2.75 0, 8.25 0 M0 8.25 C0 2.75, 2.75 0, 8.25 0" stroke="#1e1e1e" stroke-width="1" fill="none"></path></g><g transform="translate(269.47694396972656 367.04993438720703) rotate(0 21.123046875 11.5)"><text x="21.123046875" y="0" font-family="Helvetica, Segoe UI Emoji" font-size="20px" fill="#1e1e1e" text-anchor="middle" style="white-space: pre;" direction="ltr" dominant-baseline="text-before-edge">Prop</text></g><g transform="translate(143.4000244140625 295.99996185302734) rotate(0 51.1328125 11.5)"><text x="0" y="0" font-family="Helvetica, Segoe UI Emoji" font-size="20px" fill="#1e1e1e" text-anchor="start" style="white-space: pre;" direction="ltr" dominant-baseline="text-before-edge">Node(child)</text></g><g stroke-linecap="round" transform="translate(57.90003204345703 429.27498626708984) rotate(0 33.199981689453125 16.5)"><path d="M8.25 0 C24.71 0, 41.17 0, 58.15 0 M8.25 0 C18.64 0, 29.03 0, 58.15 0 M58.15 0 C63.65 0, 66.4 2.75, 66.4 8.25 M58.15 0 C63.65 0, 66.4 2.75, 66.4 8.25 M66.4 8.25 C66.4 11.77, 66.4 15.28, 66.4 24.75 M66.4 8.25 C66.4 14, 66.4 19.76, 66.4 24.75 M66.4 24.75 C66.4 30.25, 63.65 33, 58.15 33 M66.4 24.75 C66.4 30.25, 63.65 33, 58.15 33 M58.15 33 C38.44 33, 18.74 33, 8.25 33 M58.15 33 C40.56 33, 22.96 33, 8.25 33 M8.25 33 C2.75 33, 0 30.25, 0 24.75 M8.25 33 C2.75 33, 0 30.25, 0 24.75 M0 24.75 C0 19.55, 0 14.35, 0 8.25 M0 24.75 C0 19.06, 0 13.38, 0 8.25 M0 8.25 C0 2.75, 2.75 0, 8.25 0 M0 8.25 C0 2.75, 2.75 0, 8.25 0" stroke="#1e1e1e" stroke-width="1" fill="none"></path></g><g transform="translate(68.31192779541016 434.27498626708984) rotate(0 22.7880859375 11.5)"><text x="22.7880859375" y="0" font-family="Helvetica, Segoe UI Emoji" font-size="20px" fill="#1e1e1e" text-anchor="middle" style="white-space: pre;" direction="ltr" dominant-baseline="text-before-edge">Child</text></g><g stroke-linecap="round" transform="translate(124.29996490478516 429.5749740600586) rotate(0 33.199981689453125 16.5)"><path d="M8.25 0 C27.71 0, 47.16 0, 58.15 0 M8.25 0 C19.61 0, 30.97 0, 58.15 0 M58.15 0 C63.65 0, 66.4 2.75, 66.4 8.25 M58.15 0 C63.65 0, 66.4 2.75, 66.4 8.25 M66.4 8.25 C66.4 12.36, 66.4 16.46, 66.4 24.75 M66.4 8.25 C66.4 13.58, 66.4 18.92, 66.4 24.75 M66.4 24.75 C66.4 30.25, 63.65 33, 58.15 33 M66.4 24.75 C66.4 30.25, 63.65 33, 58.15 33 M58.15 33 C47.55 33, 36.95 33, 8.25 33 M58.15 33 C46.08 33, 34.01 33, 8.25 33 M8.25 33 C2.75 33, 0 30.25, 0 24.75 M8.25 33 C2.75 33, 0 30.25, 0 24.75 M0 24.75 C0 18.71, 0 12.67, 0 8.25 M0 24.75 C0 20.93, 0 17.12, 0 8.25 M0 8.25 C0 2.75, 2.75 0, 8.25 0 M0 8.25 C0 2.75, 2.75 0, 8.25 0" stroke="#1e1e1e" stroke-width="1" fill="none"></path></g><g transform="translate(134.71186065673828 434.5749740600586) rotate(0 22.7880859375 11.5)"><text x="22.7880859375" y="0" font-family="Helvetica, Segoe UI Emoji" font-size="20px" fill="#1e1e1e" text-anchor="middle" style="white-space: pre;" direction="ltr" dominant-baseline="text-before-edge">Child</text></g><g stroke-linecap="round" transform="translate(191.7000961303711 430.22496795654297) rotate(0 33.199981689453125 16.5)"><path d="M8.25 0 C20.13 0, 32.02 0, 58.15 0 M8.25 0 C26.85 0, 45.44 0, 58.15 0 M58.15 0 C63.65 0, 66.4 2.75, 66.4 8.25 M58.15 0 C63.65 0, 66.4 2.75, 66.4 8.25 M66.4 8.25 C66.4 13.68, 66.4 19.11, 66.4 24.75 M66.4 8.25 C66.4 13.67, 66.4 19.1, 66.4 24.75 M66.4 24.75 C66.4 30.25, 63.65 33, 58.15 33 M66.4 24.75 C66.4 30.25, 63.65 33, 58.15 33 M58.15 33 C42.34 33, 26.53 33, 8.25 33 M58.15 33 C43.52 33, 28.89 33, 8.25 33 M8.25 33 C2.75 33, 0 30.25, 0 24.75 M8.25 33 C2.75 33, 0 30.25, 0 24.75 M0 24.75 C0 21.32, 0 17.88, 0 8.25 M0 24.75 C0 18.78, 0 12.81, 0 8.25 M0 8.25 C0 2.75, 2.75 0, 8.25 0 M0 8.25 C0 2.75, 2.75 0, 8.25 0" stroke="#1e1e1e" stroke-width="1" fill="none"></path></g><g transform="translate(202.11199188232422 435.22496795654297) rotate(0 22.7880859375 11.5)"><text x="22.7880859375" y="0" font-family="Helvetica, Segoe UI Emoji" font-size="20px" fill="#1e1e1e" text-anchor="middle" style="white-space: pre;" direction="ltr" dominant-baseline="text-before-edge">Child</text></g><g stroke-linecap="round" transform="translate(258.1000289916992 430.5249557495117) rotate(0 33.199981689453125 16.5)"><path d="M8.25 0 C20.57 0, 32.9 0, 58.15 0 M8.25 0 C20.79 0, 33.33 0, 58.15 0 M58.15 0 C63.65 0, 66.4 2.75, 66.4 8.25 M58.15 0 C63.65 0, 66.4 2.75, 66.4 8.25 M66.4 8.25 C66.4 11.89, 66.4 15.54, 66.4 24.75 M66.4 8.25 C66.4 12.42, 66.4 16.6, 66.4 24.75 M66.4 24.75 C66.4 30.25, 63.65 33, 58.15 33 M66.4 24.75 C66.4 30.25, 63.65 33, 58.15 33 M58.15 33 C42.13 33, 26.11 33, 8.25 33 M58.15 33 C46.96 33, 35.77 33, 8.25 33 M8.25 33 C2.75 33, 0 30.25, 0 24.75 M8.25 33 C2.75 33, 0 30.25, 0 24.75 M0 24.75 C0 18.98, 0 13.21, 0 8.25 M0 24.75 C0 20.89, 0 17.03, 0 8.25 M0 8.25 C0 2.75, 2.75 0, 8.25 0 M0 8.25 C0 2.75, 2.75 0, 8.25 0" stroke="#1e1e1e" stroke-width="1" fill="none"></path></g><g transform="translate(268.51192474365234 435.5249557495117) rotate(0 22.7880859375 11.5)"><text x="22.7880859375" y="0" font-family="Helvetica, Segoe UI Emoji" font-size="20px" fill="#1e1e1e" text-anchor="middle" style="white-space: pre;" direction="ltr" dominant-baseline="text-before-edge">Child</text></g><g stroke-linecap="round" transform="translate(508.79998779296875 285.99996185302734) rotate(0 178 98.39998626708984)"><path d="M0 0 C135.75 0, 271.5 0, 356 0 M0 0 C73.54 0, 147.09 0, 356 0 M356 0 C356 53.21, 356 106.42, 356 196.8 M356 0 C356 71.29, 356 142.58, 356 196.8 M356 196.8 C256.28 196.8, 156.56 196.8, 0 196.8 M356 196.8 C267.81 196.8, 179.63 196.8, 0 196.8 M0 196.8 C0 153.78, 0 110.76, 0 0 M0 196.8 C0 151.58, 0 106.36, 0 0" stroke="#1e1e1e" stroke-width="1" fill="none"></path></g><g stroke-linecap="round" transform="translate(556 360.39994049072266) rotate(0 33.199981689453125 16.5)"><path d="M8.25 0 C20.51 0, 32.76 0, 58.15 0 M8.25 0 C23.35 0, 38.46 0, 58.15 0 M58.15 0 C63.65 0, 66.4 2.75, 66.4 8.25 M58.15 0 C63.65 0, 66.4 2.75, 66.4 8.25 M66.4 8.25 C66.4 14.41, 66.4 20.57, 66.4 24.75 M66.4 8.25 C66.4 14.44, 66.4 20.62, 66.4 24.75 M66.4 24.75 C66.4 30.25, 63.65 33, 58.15 33 M66.4 24.75 C66.4 30.25, 63.65 33, 58.15 33 M58.15 33 C38.94 33, 19.74 33, 8.25 33 M58.15 33 C41.44 33, 24.73 33, 8.25 33 M8.25 33 C2.75 33, 0 30.25, 0 24.75 M8.25 33 C2.75 33, 0 30.25, 0 24.75 M0 24.75 C0 20.93, 0 17.11, 0 8.25 M0 24.75 C0 20.18, 0 15.61, 0 8.25 M0 8.25 C0 2.75, 2.75 0, 8.25 0 M0 8.25 C0 2.75, 2.75 0, 8.25 0" stroke="#1e1e1e" stroke-width="1" fill="none"></path></g><g transform="translate(568.0769348144531 365.39994049072266) rotate(0 21.123046875 11.5)"><text x="21.123046875" y="0" font-family="Helvetica, Segoe UI Emoji" font-size="20px" fill="#1e1e1e" text-anchor="middle" style="white-space: pre;" direction="ltr" dominant-baseline="text-before-edge">Prop</text></g><g stroke-linecap="round" transform="translate(622.3999328613281 360.6999282836914) rotate(0 33.199981689453125 16.5)"><path d="M8.25 0 C21.94 0, 35.64 0, 58.15 0 M8.25 0 C21.89 0, 35.52 0, 58.15 0 M58.15 0 C63.65 0, 66.4 2.75, 66.4 8.25 M58.15 0 C63.65 0, 66.4 2.75, 66.4 8.25 M66.4 8.25 C66.4 12.87, 66.4 17.49, 66.4 24.75 M66.4 8.25 C66.4 12.34, 66.4 16.42, 66.4 24.75 M66.4 24.75 C66.4 30.25, 63.65 33, 58.15 33 M66.4 24.75 C66.4 30.25, 63.65 33, 58.15 33 M58.15 33 C48.01 33, 37.87 33, 8.25 33 M58.15 33 C41.87 33, 25.59 33, 8.25 33 M8.25 33 C2.75 33, 0 30.25, 0 24.75 M8.25 33 C2.75 33, 0 30.25, 0 24.75 M0 24.75 C0 18.26, 0 11.77, 0 8.25 M0 24.75 C0 19.19, 0 13.64, 0 8.25 M0 8.25 C0 2.75, 2.75 0, 8.25 0 M0 8.25 C0 2.75, 2.75 0, 8.25 0" stroke="#1e1e1e" stroke-width="1" fill="none"></path></g><g transform="translate(634.4768676757812 365.6999282836914) rotate(0 21.123046875 11.5)"><text x="21.123046875" y="0" font-family="Helvetica, Segoe UI Emoji" font-size="20px" fill="#1e1e1e" text-anchor="middle" style="white-space: pre;" direction="ltr" dominant-baseline="text-before-edge">Prop</text></g><g stroke-linecap="round" transform="translate(689.8000640869141 361.3499221801758) rotate(0 33.199981689453125 16.5)"><path d="M8.25 0 C22.69 0, 37.12 0, 58.15 0 M8.25 0 C19.52 0, 30.78 0, 58.15 0 M58.15 0 C63.65 0, 66.4 2.75, 66.4 8.25 M58.15 0 C63.65 0, 66.4 2.75, 66.4 8.25 M66.4 8.25 C66.4 14.83, 66.4 21.4, 66.4 24.75 M66.4 8.25 C66.4 13.35, 66.4 18.45, 66.4 24.75 M66.4 24.75 C66.4 30.25, 63.65 33, 58.15 33 M66.4 24.75 C66.4 30.25, 63.65 33, 58.15 33 M58.15 33 C41.44 33, 24.74 33, 8.25 33 M58.15 33 C46.94 33, 35.72 33, 8.25 33 M8.25 33 C2.75 33, 0 30.25, 0 24.75 M8.25 33 C2.75 33, 0 30.25, 0 24.75 M0 24.75 C0 18.63, 0 12.52, 0 8.25 M0 24.75 C0 21.31, 0 17.87, 0 8.25 M0 8.25 C0 2.75, 2.75 0, 8.25 0 M0 8.25 C0 2.75, 2.75 0, 8.25 0" stroke="#1e1e1e" stroke-width="1" fill="none"></path></g><g transform="translate(701.8769989013672 366.3499221801758) rotate(0 21.123046875 11.5)"><text x="21.123046875" y="0" font-family="Helvetica, Segoe UI Emoji" font-size="20px" fill="#1e1e1e" text-anchor="middle" style="white-space: pre;" direction="ltr" dominant-baseline="text-before-edge">Prop</text></g><g stroke-linecap="round" transform="translate(756.1999969482422 361.64990997314453) rotate(0 33.199981689453125 16.5)"><path d="M8.25 0 C21.74 0, 35.23 0, 58.15 0 M8.25 0 C26.33 0, 44.4 0, 58.15 0 M58.15 0 C63.65 0, 66.4 2.75, 66.4 8.25 M58.15 0 C63.65 0, 66.4 2.75, 66.4 8.25 M66.4 8.25 C66.4 13.01, 66.4 17.77, 66.4 24.75 M66.4 8.25 C66.4 13.31, 66.4 18.37, 66.4 24.75 M66.4 24.75 C66.4 30.25, 63.65 33, 58.15 33 M66.4 24.75 C66.4 30.25, 63.65 33, 58.15 33 M58.15 33 C44.72 33, 31.29 33, 8.25 33 M58.15 33 C39.54 33, 20.93 33, 8.25 33 M8.25 33 C2.75 33, 0 30.25, 0 24.75 M8.25 33 C2.75 33, 0 30.25, 0 24.75 M0 24.75 C0 19.26, 0 13.77, 0 8.25 M0 24.75 C0 20.12, 0 15.49, 0 8.25 M0 8.25 C0 2.75, 2.75 0, 8.25 0 M0 8.25 C0 2.75, 2.75 0, 8.25 0" stroke="#1e1e1e" stroke-width="1" fill="none"></path></g><g transform="translate(768.2769317626953 366.64990997314453) rotate(0 21.123046875 11.5)"><text x="21.123046875" y="0" font-family="Helvetica, Segoe UI Emoji" font-size="20px" fill="#1e1e1e" text-anchor="middle" style="white-space: pre;" direction="ltr" dominant-baseline="text-before-edge">Prop</text></g><g transform="translate(642.2000122070312 295.59993743896484) rotate(0 51.1328125 11.5)"><text x="0" y="0" font-family="Helvetica, Segoe UI Emoji" font-size="20px" fill="#1e1e1e" text-anchor="start" style="white-space: pre;" direction="ltr" dominant-baseline="text-before-edge">Node(child)</text></g><g stroke-linecap="round" transform="translate(556.7000198364258 428.87496185302734) rotate(0 33.199981689453125 16.5)"><path d="M8.25 0 C20.58 0, 32.9 0, 58.15 0 M8.25 0 C26.48 0, 44.71 0, 58.15 0 M58.15 0 C63.65 0, 66.4 2.75, 66.4 8.25 M58.15 0 C63.65 0, 66.4 2.75, 66.4 8.25 M66.4 8.25 C66.4 11.86, 66.4 15.46, 66.4 24.75 M66.4 8.25 C66.4 12.04, 66.4 15.83, 66.4 24.75 M66.4 24.75 C66.4 30.25, 63.65 33, 58.15 33 M66.4 24.75 C66.4 30.25, 63.65 33, 58.15 33 M58.15 33 C45.95 33, 33.76 33, 8.25 33 M58.15 33 C45 33, 31.84 33, 8.25 33 M8.25 33 C2.75 33, 0 30.25, 0 24.75 M8.25 33 C2.75 33, 0 30.25, 0 24.75 M0 24.75 C0 19.77, 0 14.79, 0 8.25 M0 24.75 C0 18.54, 0 12.32, 0 8.25 M0 8.25 C0 2.75, 2.75 0, 8.25 0 M0 8.25 C0 2.75, 2.75 0, 8.25 0" stroke="#1e1e1e" stroke-width="1" fill="none"></path></g><g transform="translate(567.1119155883789 433.87496185302734) rotate(0 22.7880859375 11.5)"><text x="22.7880859375" y="0" font-family="Helvetica, Segoe UI Emoji" font-size="20px" fill="#1e1e1e" text-anchor="middle" style="white-space: pre;" direction="ltr" dominant-baseline="text-before-edge">Child</text></g><g stroke-linecap="round" transform="translate(623.0999526977539 429.1749496459961) rotate(0 33.199981689453125 16.5)"><path d="M8.25 0 C26.88 0, 45.52 0, 58.15 0 M8.25 0 C26.96 0, 45.67 0, 58.15 0 M58.15 0 C63.65 0, 66.4 2.75, 66.4 8.25 M58.15 0 C63.65 0, 66.4 2.75, 66.4 8.25 M66.4 8.25 C66.4 14.6, 66.4 20.95, 66.4 24.75 M66.4 8.25 C66.4 13.77, 66.4 19.3, 66.4 24.75 M66.4 24.75 C66.4 30.25, 63.65 33, 58.15 33 M66.4 24.75 C66.4 30.25, 63.65 33, 58.15 33 M58.15 33 C46.59 33, 35.04 33, 8.25 33 M58.15 33 C44.32 33, 30.5 33, 8.25 33 M8.25 33 C2.75 33, 0 30.25, 0 24.75 M8.25 33 C2.75 33, 0 30.25, 0 24.75 M0 24.75 C0 20.6, 0 16.45, 0 8.25 M0 24.75 C0 20.1, 0 15.44, 0 8.25 M0 8.25 C0 2.75, 2.75 0, 8.25 0 M0 8.25 C0 2.75, 2.75 0, 8.25 0" stroke="#1e1e1e" stroke-width="1" fill="none"></path></g><g transform="translate(633.511848449707 434.1749496459961) rotate(0 22.7880859375 11.5)"><text x="22.7880859375" y="0" font-family="Helvetica, Segoe UI Emoji" font-size="20px" fill="#1e1e1e" text-anchor="middle" style="white-space: pre;" direction="ltr" dominant-baseline="text-before-edge">Child</text></g><g stroke-linecap="round" transform="translate(690.5000839233398 429.82494354248047) rotate(0 33.199981689453125 16.5)"><path d="M8.25 0 C22.23 0, 36.2 0, 58.15 0 M8.25 0 C20.61 0, 32.97 0, 58.15 0 M58.15 0 C63.65 0, 66.4 2.75, 66.4 8.25 M58.15 0 C63.65 0, 66.4 2.75, 66.4 8.25 M66.4 8.25 C66.4 11.6, 66.4 14.96, 66.4 24.75 M66.4 8.25 C66.4 13.63, 66.4 19.02, 66.4 24.75 M66.4 24.75 C66.4 30.25, 63.65 33, 58.15 33 M66.4 24.75 C66.4 30.25, 63.65 33, 58.15 33 M58.15 33 C38.52 33, 18.89 33, 8.25 33 M58.15 33 C41.35 33, 24.55 33, 8.25 33 M8.25 33 C2.75 33, 0 30.25, 0 24.75 M8.25 33 C2.75 33, 0 30.25, 0 24.75 M0 24.75 C0 20.23, 0 15.71, 0 8.25 M0 24.75 C0 21.36, 0 17.98, 0 8.25 M0 8.25 C0 2.75, 2.75 0, 8.25 0 M0 8.25 C0 2.75, 2.75 0, 8.25 0" stroke="#1e1e1e" stroke-width="1" fill="none"></path></g><g transform="translate(700.911979675293 434.82494354248047) rotate(0 22.7880859375 11.5)"><text x="22.7880859375" y="0" font-family="Helvetica, Segoe UI Emoji" font-size="20px" fill="#1e1e1e" text-anchor="middle" style="white-space: pre;" direction="ltr" dominant-baseline="text-before-edge">Child</text></g><g stroke-linecap="round" transform="translate(756.900016784668 430.1249313354492) rotate(0 33.199981689453125 16.5)"><path d="M8.25 0 C28.14 0, 48.03 0, 58.15 0 M8.25 0 C23.68 0, 39.1 0, 58.15 0 M58.15 0 C63.65 0, 66.4 2.75, 66.4 8.25 M58.15 0 C63.65 0, 66.4 2.75, 66.4 8.25 M66.4 8.25 C66.4 13.77, 66.4 19.3, 66.4 24.75 M66.4 8.25 C66.4 11.96, 66.4 15.67, 66.4 24.75 M66.4 24.75 C66.4 30.25, 63.65 33, 58.15 33 M66.4 24.75 C66.4 30.25, 63.65 33, 58.15 33 M58.15 33 C39.65 33, 21.15 33, 8.25 33 M58.15 33 C47.74 33, 37.33 33, 8.25 33 M8.25 33 C2.75 33, 0 30.25, 0 24.75 M8.25 33 C2.75 33, 0 30.25, 0 24.75 M0 24.75 C0 19.14, 0 13.52, 0 8.25 M0 24.75 C0 19.67, 0 14.6, 0 8.25 M0 8.25 C0 2.75, 2.75 0, 8.25 0 M0 8.25 C0 2.75, 2.75 0, 8.25 0" stroke="#1e1e1e" stroke-width="1" fill="none"></path></g><g transform="translate(767.3119125366211 435.1249313354492) rotate(0 22.7880859375 11.5)"><text x="22.7880859375" y="0" font-family="Helvetica, Segoe UI Emoji" font-size="20px" fill="#1e1e1e" text-anchor="middle" style="white-space: pre;" direction="ltr" dominant-baseline="text-before-edge">Child</text></g><g stroke-linecap="round"><g transform="translate(336 184.3999786376953) rotate(0 -30.4000244140625 51.600006103515625)"><path d="M0 0 C-10.13 17.2, -50.67 86, -60.8 103.2 M0 0 C-10.13 17.2, -50.67 86, -60.8 103.2" stroke="#1e1e1e" stroke-width="1" fill="none"></path></g><g transform="translate(336 184.3999786376953) rotate(0 -30.4000244140625 51.600006103515625)"><path d="M-56.24 78.62 C-58.06 88.42, -59.88 98.22, -60.8 103.2 M-56.24 78.62 C-57.34 84.54, -58.44 90.46, -60.8 103.2" stroke="#1e1e1e" stroke-width="1" fill="none"></path></g><g transform="translate(336 184.3999786376953) rotate(0 -30.4000244140625 51.600006103515625)"><path d="M-41.51 87.3 C-49.2 93.64, -56.89 99.98, -60.8 103.2 M-41.51 87.3 C-46.16 91.13, -50.8 94.96, -60.8 103.2" stroke="#1e1e1e" stroke-width="1" fill="none"></path></g></g><mask></mask><g stroke-linecap="round"><g transform="translate(411.199951171875 186.8000030517578) rotate(0 56 49.19999694824219)"><path d="M0 0 C18.67 16.4, 93.33 82, 112 98.4 M0 0 C18.67 16.4, 93.33 82, 112 98.4" stroke="#1e1e1e" stroke-width="1" fill="none"></path></g><g transform="translate(411.199951171875 186.8000030517578) rotate(0 56 49.19999694824219)"><path d="M88.71 89.32 C95.99 92.16, 103.28 95, 112 98.4 M88.71 89.32 C96.6 92.4, 104.5 95.47, 112 98.4" stroke="#1e1e1e" stroke-width="1" fill="none"></path></g><g transform="translate(411.199951171875 186.8000030517578) rotate(0 56 49.19999694824219)"><path d="M100 76.47 C103.75 83.33, 107.51 90.19, 112 98.4 M100 76.47 C104.06 83.9, 108.13 91.34, 112 98.4" stroke="#1e1e1e" stroke-width="1" fill="none"></path></g></g><mask></mask><g stroke-linecap="round"><g transform="translate(484.79998779296875 184.3999786376953) rotate(0 104.79998779296875 18.800003051757812)"><path d="M0 0 C17.73 6.27, 71.47 34.53, 106.4 37.6 C141.33 40.67, 192.4 21.6, 209.6 18.4" stroke="#1e1e1e" stroke-width="1.5" fill="none" stroke-dasharray="8 9"></path></g><g transform="translate(484.79998779296875 184.3999786376953) rotate(0 104.79998779296875 18.800003051757812)"><path d="M189.06 32.66 C196.69 27.37, 204.31 22.08, 209.6 18.4" stroke="#1e1e1e" stroke-width="1.5" fill="none"></path></g><g transform="translate(484.79998779296875 184.3999786376953) rotate(0 104.79998779296875 18.800003051757812)"><path d="M184.7 16.12 C193.94 16.97, 203.18 17.81, 209.6 18.4" stroke="#1e1e1e" stroke-width="1.5" fill="none"></path></g></g><mask></mask></svg>