<svg version="1.1" xmlns="http://www.w3.org/2000/svg" viewBox="0 0 377.2192712022743 489.2000045776367" width="377.2192712022743" height="489.2000045776367">
  <!-- svg-source:excalidraw -->
  
  <defs>
    <style class="style-fonts">
      @font-face {
        font-family: "Virgil";
        src: url("https://excalidraw.com/Virgil.woff2");
      }
      @font-face {
        font-family: "Cascadia";
        src: url("https://excalidraw.com/Cascadia.woff2");
      }
      @font-face {
        font-family: "Assistant";
        src: url("https://excalidraw.com/Assistant-Regular.woff2");
      }
    </style>
    
  </defs>
  <g stroke-linecap="round" transform="translate(10 44.39997100830078) rotate(0 146 125.60001373291016)"><path d="M0 0 C100.41 0, 200.83 0, 292 0 M0 0 C66.35 0, 132.7 0, 292 0 M292 0 C292 71.34, 292 142.68, 292 251.2 M292 0 C292 79.01, 292 158.02, 292 251.2 M292 251.2 C182.01 251.2, 72.03 251.2, 0 251.2 M292 251.2 C180.21 251.2, 68.42 251.2, 0 251.2 M0 251.2 C0 158.56, 0 65.92, 0 0 M0 251.2 C0 172.37, 0 93.53, 0 0" stroke="#1e1e1e" stroke-width="1" fill="none"></path></g><g stroke-linecap="round" transform="translate(15.600006103515625 51.599952697753906) rotate(0 140.00001525878906 17.5)"><path d="M8.75 0 C99.56 0, 190.37 0, 271.25 0 M8.75 0 C100.42 0, 192.09 0, 271.25 0 M271.25 0 C277.08 0, 280 2.92, 280 8.75 M271.25 0 C277.08 0, 280 2.92, 280 8.75 M280 8.75 C280 14.57, 280 20.39, 280 26.25 M280 8.75 C280 14.86, 280 20.98, 280 26.25 M280 26.25 C280 32.08, 277.08 35, 271.25 35 M280 26.25 C280 32.08, 277.08 35, 271.25 35 M271.25 35 C217.41 35, 163.58 35, 8.75 35 M271.25 35 C215.92 35, 160.6 35, 8.75 35 M8.75 35 C2.92 35, 0 32.08, 0 26.25 M8.75 35 C2.92 35, 0 32.08, 0 26.25 M0 26.25 C0 22.22, 0 18.19, 0 8.75 M0 26.25 C0 20.35, 0 14.45, 0 8.75 M0 8.75 C0 2.92, 2.92 0, 8.75 0 M0 8.75 C0 2.92, 2.92 0, 8.75 0" stroke="#1e1e1e" stroke-width="1" fill="none"></path></g><g transform="translate(128.9252166748047 57.599952697753906) rotate(0 26.6748046875 11.5)"><text x="26.6748046875" y="0" font-family="Helvetica, Segoe UI Emoji" font-size="20px" fill="#1e1e1e" text-anchor="middle" style="white-space: pre;" direction="ltr" dominant-baseline="text-before-edge">magic</text></g><g stroke-linecap="round" transform="translate(14.600021362304688 91.0999984741211) rotate(0 140.00001525878906 17.5)"><path d="M8.75 0 C105.63 0, 202.51 0, 271.25 0 M8.75 0 C97.47 0, 186.18 0, 271.25 0 M271.25 0 C277.08 0, 280 2.92, 280 8.75 M271.25 0 C277.08 0, 280 2.92, 280 8.75 M280 8.75 C280 14.67, 280 20.59, 280 26.25 M280 8.75 C280 14.21, 280 19.68, 280 26.25 M280 26.25 C280 32.08, 277.08 35, 271.25 35 M280 26.25 C280 32.08, 277.08 35, 271.25 35 M271.25 35 C197.4 35, 123.56 35, 8.75 35 M271.25 35 C208.96 35, 146.68 35, 8.75 35 M8.75 35 C2.92 35, 0 32.08, 0 26.25 M8.75 35 C2.92 35, 0 32.08, 0 26.25 M0 26.25 C0 20.11, 0 13.97, 0 8.75 M0 26.25 C0 20.29, 0 14.33, 0 8.75 M0 8.75 C0 2.92, 2.92 0, 8.75 0 M0 8.75 C0 2.92, 2.92 0, 8.75 0" stroke="#1e1e1e" stroke-width="1" fill="none"></path></g><g transform="translate(112.35394287109375 97.0999984741211) rotate(0 42.24609375 11.5)"><text x="42.24609375" y="0" font-family="Helvetica, Segoe UI Emoji" font-size="20px" fill="#1e1e1e" text-anchor="middle" style="white-space: pre;" direction="ltr" dominant-baseline="text-before-edge">total_size</text></g><g stroke-linecap="round" transform="translate(14.800033569335938 129.69998931884766) rotate(0 140.00001525878906 17.5)"><path d="M8.75 0 C69.36 0, 129.97 0, 271.25 0 M8.75 0 C82.34 0, 155.92 0, 271.25 0 M271.25 0 C277.08 0, 280 2.92, 280 8.75 M271.25 0 C277.08 0, 280 2.92, 280 8.75 M280 8.75 C280 12.36, 280 15.97, 280 26.25 M280 8.75 C280 13.91, 280 19.06, 280 26.25 M280 26.25 C280 32.08, 277.08 35, 271.25 35 M280 26.25 C280 32.08, 277.08 35, 271.25 35 M271.25 35 C174.99 35, 78.73 35, 8.75 35 M271.25 35 C216.46 35, 161.68 35, 8.75 35 M8.75 35 C2.92 35, 0 32.08, 0 26.25 M8.75 35 C2.92 35, 0 32.08, 0 26.25 M0 26.25 C0 19.69, 0 13.12, 0 8.75 M0 26.25 C0 20.54, 0 14.84, 0 8.75 M0 8.75 C0 2.92, 2.92 0, 8.75 0 M0 8.75 C0 2.92, 2.92 0, 8.75 0" stroke="#1e1e1e" stroke-width="1" fill="none"></path></g><g transform="translate(99.770751953125 135.69998931884766) rotate(0 55.029296875 11.5)"><text x="55.029296875" y="0" font-family="Helvetica, Segoe UI Emoji" font-size="20px" fill="#1e1e1e" text-anchor="middle" style="white-space: pre;" direction="ltr" dominant-baseline="text-before-edge">off_dt_struct</text></g><g stroke-linecap="round" transform="translate(15.599960327148438 171.09998321533203) rotate(0 140.00001525878906 17.5)"><path d="M8.75 0 C106.66 0, 204.57 0, 271.25 0 M8.75 0 C92.58 0, 176.41 0, 271.25 0 M271.25 0 C277.08 0, 280 2.92, 280 8.75 M271.25 0 C277.08 0, 280 2.92, 280 8.75 M280 8.75 C280 14.64, 280 20.53, 280 26.25 M280 8.75 C280 12.67, 280 16.6, 280 26.25 M280 26.25 C280 32.08, 277.08 35, 271.25 35 M280 26.25 C280 32.08, 277.08 35, 271.25 35 M271.25 35 C209.69 35, 148.14 35, 8.75 35 M271.25 35 C204.18 35, 137.11 35, 8.75 35 M8.75 35 C2.92 35, 0 32.08, 0 26.25 M8.75 35 C2.92 35, 0 32.08, 0 26.25 M0 26.25 C0 19.75, 0 13.24, 0 8.75 M0 26.25 C0 19.26, 0 12.27, 0 8.75 M0 8.75 C0 2.92, 2.92 0, 8.75 0 M0 8.75 C0 2.92, 2.92 0, 8.75 0" stroke="#1e1e1e" stroke-width="1" fill="none"></path></g><g transform="translate(95.5657958984375 177.09998321533203) rotate(0 60.0341796875 11.5)"><text x="60.0341796875" y="0" font-family="Helvetica, Segoe UI Emoji" font-size="20px" fill="#1e1e1e" text-anchor="middle" style="white-space: pre;" direction="ltr" dominant-baseline="text-before-edge">off_dt_strings</text></g><g stroke-linecap="round" transform="translate(16.199996948242188 210.69998931884766) rotate(0 140.00001525878906 17.5)"><path d="M8.75 0 C63.78 0, 118.81 0, 271.25 0 M8.75 0 C105.12 0, 201.48 0, 271.25 0 M271.25 0 C277.08 0, 280 2.92, 280 8.75 M271.25 0 C277.08 0, 280 2.92, 280 8.75 M280 8.75 C280 15.39, 280 22.03, 280 26.25 M280 8.75 C280 13.43, 280 18.12, 280 26.25 M280 26.25 C280 32.08, 277.08 35, 271.25 35 M280 26.25 C280 32.08, 277.08 35, 271.25 35 M271.25 35 C189.6 35, 107.96 35, 8.75 35 M271.25 35 C195.17 35, 119.09 35, 8.75 35 M8.75 35 C2.92 35, 0 32.08, 0 26.25 M8.75 35 C2.92 35, 0 32.08, 0 26.25 M0 26.25 C0 21.75, 0 17.25, 0 8.75 M0 26.25 C0 20.48, 0 14.7, 0 8.75 M0 8.75 C0 2.92, 2.92 0, 8.75 0 M0 8.75 C0 2.92, 2.92 0, 8.75 0" stroke="#1e1e1e" stroke-width="1" fill="none"></path></g><g transform="translate(78.95391845703125 216.69998931884766) rotate(0 77.24609375 11.5)"><text x="77.24609375" y="0" font-family="Helvetica, Segoe UI Emoji" font-size="20px" fill="#1e1e1e" text-anchor="middle" style="white-space: pre;" direction="ltr" dominant-baseline="text-before-edge">off_mem_rsvmap</text></g><g stroke-linecap="round" transform="translate(17.199996948242188 251.89997100830078) rotate(0 140.00001525878906 17.5)"><path d="M8.75 0 C97.75 0, 186.76 0, 271.25 0 M8.75 0 C68.36 0, 127.96 0, 271.25 0 M271.25 0 C277.08 0, 280 2.92, 280 8.75 M271.25 0 C277.08 0, 280 2.92, 280 8.75 M280 8.75 C280 14.01, 280 19.26, 280 26.25 M280 8.75 C280 13.11, 280 17.47, 280 26.25 M280 26.25 C280 32.08, 277.08 35, 271.25 35 M280 26.25 C280 32.08, 277.08 35, 271.25 35 M271.25 35 C179.41 35, 87.57 35, 8.75 35 M271.25 35 C201.4 35, 131.56 35, 8.75 35 M8.75 35 C2.92 35, 0 32.08, 0 26.25 M8.75 35 C2.92 35, 0 32.08, 0 26.25 M0 26.25 C0 21.8, 0 17.35, 0 8.75 M0 26.25 C0 21.58, 0 16.92, 0 8.75 M0 8.75 C0 2.92, 2.92 0, 8.75 0 M0 8.75 C0 2.92, 2.92 0, 8.75 0" stroke="#1e1e1e" stroke-width="1" fill="none"></path></g><g transform="translate(124.96368408203125 257.8999710083008) rotate(0 32.236328125 11.5)"><text x="32.236328125" y="0" font-family="Helvetica, Segoe UI Emoji" font-size="20px" fill="#1e1e1e" text-anchor="middle" style="white-space: pre;" direction="ltr" dominant-baseline="text-before-edge">version</text></g><g transform="translate(108.5826416015625 10) rotate(0 47.8173828125 11.5)"><text x="47.8173828125" y="0" font-family="Helvetica, Segoe UI Emoji" font-size="20px" fill="#1e1e1e" text-anchor="middle" style="white-space: pre;" direction="ltr" dominant-baseline="text-before-edge">dtb header</text></g><g stroke-linecap="round" transform="translate(10.800048828125 312.19998931884766) rotate(0 145.19998168945312 24.400009155273438)"><path d="M0 0 C58.69 0, 117.37 0, 290.4 0 M0 0 C88.63 0, 177.26 0, 290.4 0 M290.4 0 C290.4 17.33, 290.4 34.66, 290.4 48.8 M290.4 0 C290.4 12.1, 290.4 24.21, 290.4 48.8 M290.4 48.8 C213.21 48.8, 136.03 48.8, 0 48.8 M290.4 48.8 C225.27 48.8, 160.15 48.8, 0 48.8 M0 48.8 C0 38.03, 0 27.26, 0 0 M0 48.8 C0 29.69, 0 10.58, 0 0" stroke="#1e1e1e" stroke-width="1" fill="none"></path></g><g transform="translate(41.517608642578125 325.0999984741211) rotate(0 114.482421875 11.5)"><text x="114.482421875" y="0" font-family="Helvetica, Segoe UI Emoji" font-size="20px" fill="#1e1e1e" text-anchor="middle" style="white-space: pre;" direction="ltr" dominant-baseline="text-before-edge">memory reservation block</text></g><g stroke-linecap="round" transform="translate(11.000030517578125 371.1999740600586) rotate(0 145.19998168945312 24.400009155273438)"><path d="M0 0 C108.01 0, 216.01 0, 290.4 0 M0 0 C92.1 0, 184.19 0, 290.4 0 M290.4 0 C290.4 10.98, 290.4 21.97, 290.4 48.8 M290.4 0 C290.4 18.43, 290.4 36.86, 290.4 48.8 M290.4 48.8 C201.24 48.8, 112.08 48.8, 0 48.8 M290.4 48.8 C208.37 48.8, 126.33 48.8, 0 48.8 M0 48.8 C0 33.29, 0 17.78, 0 0 M0 48.8 C0 30.09, 0 11.38, 0 0" stroke="#1e1e1e" stroke-width="1" fill="none"></path></g><g transform="translate(91.17559814453125 384.09998321533203) rotate(0 65.0244140625 11.5)"><text x="65.0244140625" y="0" font-family="Helvetica, Segoe UI Emoji" font-size="20px" fill="#1e1e1e" text-anchor="middle" style="white-space: pre;" direction="ltr" dominant-baseline="text-before-edge">structure block</text></g><g stroke-linecap="round" transform="translate(11.000030517578125 430.39998626708984) rotate(0 145.19998168945312 24.400009155273438)"><path d="M0 0 C71.23 0, 142.46 0, 290.4 0 M0 0 C113.96 0, 227.91 0, 290.4 0 M290.4 0 C290.4 9.98, 290.4 19.97, 290.4 48.8 M290.4 0 C290.4 17.43, 290.4 34.85, 290.4 48.8 M290.4 48.8 C210.4 48.8, 130.41 48.8, 0 48.8 M290.4 48.8 C216.33 48.8, 142.27 48.8, 0 48.8 M0 48.8 C0 34.11, 0 19.42, 0 0 M0 48.8 C0 32.48, 0 16.17, 0 0" stroke="#1e1e1e" stroke-width="1" fill="none"></path></g><g transform="translate(100.62384033203125 443.2999954223633) rotate(0 55.576171875 11.5)"><text x="55.576171875" y="0" font-family="Helvetica, Segoe UI Emoji" font-size="20px" fill="#1e1e1e" text-anchor="middle" style="white-space: pre;" direction="ltr" dominant-baseline="text-before-edge">strings block</text></g><g stroke-linecap="round"><g transform="translate(296.4000244140625 232.4000015258789) rotate(0 10.004999787294196 55.19999694824219)"><path d="M0 0 C3.33 9.33, 19.75 37.6, 20.01 56 C20.27 74.4, 4.66 101.33, 1.58 110.4 M0 0 C3.33 9.33, 19.75 37.6, 20.01 56 C20.27 74.4, 4.66 101.33, 1.58 110.4" stroke="#1e1e1e" stroke-width="1" fill="none"></path></g><g transform="translate(296.4000244140625 232.4000015258789) rotate(0 10.004999787294196 55.19999694824219)"><path d="M3.19 85.45 C2.62 94.3, 2.05 103.15, 1.58 110.4 M3.19 85.45 C2.8 91.59, 2.4 97.73, 1.58 110.4" stroke="#1e1e1e" stroke-width="1" fill="none"></path></g><g transform="translate(296.4000244140625 232.4000015258789) rotate(0 10.004999787294196 55.19999694824219)"><path d="M18.85 92.32 C12.73 98.73, 6.61 105.14, 1.58 110.4 M18.85 92.32 C14.6 96.77, 10.35 101.22, 1.58 110.4" stroke="#1e1e1e" stroke-width="1" fill="none"></path></g></g><mask></mask><g stroke-linecap="round"><g transform="translate(299.19323454556206 190.99996185302734) rotate(0 34.00503030487232 132.4000244140625)"><path d="M0 0 C11.34 11.47, 66.95 24.67, 68.01 68.8 C69.07 112.93, 16.66 232.13, 6.38 264.8 M0 0 C11.34 11.47, 66.95 24.67, 68.01 68.8 C69.07 112.93, 16.66 232.13, 6.38 264.8" stroke="#1e1e1e" stroke-width="1" fill="none"></path></g><g transform="translate(299.19323454556206 190.99996185302734) rotate(0 34.00503030487232 132.4000244140625)"><path d="M6.58 239.8 C6.52 247.02, 6.47 254.23, 6.38 264.8 M6.58 239.8 C6.53 246.18, 6.48 252.57, 6.38 264.8" stroke="#1e1e1e" stroke-width="1" fill="none"></path></g><g transform="translate(299.19323454556206 190.99996185302734) rotate(0 34.00503030487232 132.4000244140625)"><path d="M22.6 245.77 C17.92 251.27, 13.24 256.76, 6.38 264.8 M22.6 245.77 C18.46 250.63, 14.32 255.49, 6.38 264.8" stroke="#1e1e1e" stroke-width="1" fill="none"></path></g></g><mask></mask><g stroke-linecap="round"><g transform="translate(295.60003662109375 145.9999771118164) rotate(0 21.5999755859375 125.60002136230469)"><path d="M0 0 C7.2 19.73, 42.53 76.53, 43.2 118.4 C43.87 160.27, 10.53 229.07, 4 251.2 M0 0 C7.2 19.73, 42.53 76.53, 43.2 118.4 C43.87 160.27, 10.53 229.07, 4 251.2" stroke="#1e1e1e" stroke-width="1" fill="none"></path></g><g transform="translate(295.60003662109375 145.9999771118164) rotate(0 21.5999755859375 125.60002136230469)"><path d="M4.26 226.2 C4.19 232.87, 4.12 239.54, 4 251.2 M4.26 226.2 C4.19 233.03, 4.12 239.85, 4 251.2" stroke="#1e1e1e" stroke-width="1" fill="none"></path></g><g transform="translate(295.60003662109375 145.9999771118164) rotate(0 21.5999755859375 125.60002136230469)"><path d="M20.27 232.22 C15.93 237.28, 11.59 242.35, 4 251.2 M20.27 232.22 C15.83 237.4, 11.38 242.58, 4 251.2" stroke="#1e1e1e" stroke-width="1" fill="none"></path></g></g><mask></mask></svg>