<svg version="1.1" xmlns="http://www.w3.org/2000/svg" viewBox="0 0 638.974609375 280" width="638.974609375" height="280">
  <!-- svg-source:excalidraw -->
  
  <defs>
    <style class="style-fonts">
      @font-face {
        font-family: "Virgil";
        src: url("https://excalidraw.com/Virgil.woff2");
      }
      @font-face {
        font-family: "Cascadia";
        src: url("https://excalidraw.com/Cascadia.woff2");
      }
      @font-face {
        font-family: "Assistant";
        src: url("https://excalidraw.com/Assistant-Regular.woff2");
      }
    </style>
    
  </defs>
  <rect x="0" y="0" width="638.974609375" height="280" fill="#ffffff"></rect><g stroke-linecap="round" transform="translate(170 70) rotate(0 50 100)"><path d="M0 0 C22.97 0, 45.95 0, 100 0 M0 0 C39.67 0, 79.35 0, 100 0 M100 0 C100 53.49, 100 106.99, 100 200 M100 0 C100 64.57, 100 129.14, 100 200 M100 200 C60.84 200, 21.68 200, 0 200 M100 200 C61.68 200, 23.37 200, 0 200 M0 200 C0 130.07, 0 60.14, 0 0 M0 200 C0 149.54, 0 99.09, 0 0" stroke="#1e1e1e" stroke-width="1" fill="none"></path></g><g stroke-linecap="round" transform="translate(370 70) rotate(0 50 100)"><path d="M0 0 C38.32 0, 76.63 0, 100 0 M0 0 C34.96 0, 69.93 0, 100 0 M100 0 C100 50.46, 100 100.91, 100 200 M100 0 C100 70.37, 100 140.73, 100 200 M100 200 C78.43 200, 56.86 200, 0 200 M100 200 C65.09 200, 30.19 200, 0 200 M0 200 C0 151.68, 0 103.36, 0 0 M0 200 C0 157.78, 0 115.56, 0 0" stroke="#1e1e1e" stroke-width="1" fill="none"></path></g><g stroke-linecap="round" transform="translate(170 150) rotate(0 50 20)"><path d="M0 0 L100 0 L100 40 L0 40" stroke="none" stroke-width="0" fill="#e9ecef"></path><path d="M0 0 C26.41 0, 52.81 0, 100 0 M0 0 C28.17 0, 56.34 0, 100 0 M100 0 C100 14.98, 100 29.96, 100 40 M100 0 C100 10.23, 100 20.47, 100 40 M100 40 C60.37 40, 20.74 40, 0 40 M100 40 C68.92 40, 37.85 40, 0 40 M0 40 C0 29, 0 18.01, 0 0 M0 40 C0 30.08, 0 20.16, 0 0" stroke="#1e1e1e" stroke-width="4" fill="none"></path></g><g transform="translate(206.66015625 158.5) rotate(0 13.33984375 11.5)"><text x="13.33984375" y="0" font-family="Helvetica, Segoe UI Emoji" font-size="20px" fill="#1e1e1e" text-anchor="middle" style="white-space: pre;" direction="ltr" dominant-baseline="text-before-edge">1G</text></g><g stroke-linecap="round" transform="translate(370 110) rotate(0 50 20)"><path d="M0 0 L100 0 L100 40 L0 40" stroke="none" stroke-width="0" fill="#e9ecef"></path><path d="M0 0 C31.38 0, 62.76 0, 100 0 M0 0 C38.97 0, 77.94 0, 100 0 M100 0 C100 13.74, 100 27.49, 100 40 M100 0 C100 15.92, 100 31.83, 100 40 M100 40 C77.78 40, 55.55 40, 0 40 M100 40 C71.71 40, 43.41 40, 0 40 M0 40 C0 26.91, 0 13.81, 0 0 M0 40 C0 30.86, 0 21.72, 0 0" stroke="#1e1e1e" stroke-width="4" fill="none"></path></g><g transform="translate(406.66015625 118.5) rotate(0 13.33984375 11.5)"><text x="13.33984375" y="0" font-family="Helvetica, Segoe UI Emoji" font-size="20px" fill="#1e1e1e" text-anchor="middle" style="white-space: pre;" direction="ltr" dominant-baseline="text-before-edge">1G</text></g><g stroke-linecap="round" transform="translate(170 190) rotate(0 50 20)"><path d="M0 0 C32.11 0, 64.23 0, 100 0 M100 0 C100 15.11, 100 30.21, 100 40 M100 40 C66.49 40, 32.99 40, 0 40 M0 40 C0 31.45, 0 22.91, 0 0" stroke="#1e1e1e" stroke-width="1.5" fill="none" stroke-dasharray="1.5 7"></path></g><g stroke-linecap="round" transform="translate(170 230) rotate(0 50 20)"><path d="M0 0 C25.79 0, 51.57 0, 100 0 M100 0 C100 11.33, 100 22.66, 100 40 M100 40 C74.17 40, 48.34 40, 0 40 M0 40 C0 26.97, 0 13.94, 0 0" stroke="#1e1e1e" stroke-width="1.5" fill="none" stroke-dasharray="1.5 7"></path></g><g stroke-linecap="round" transform="translate(370 190) rotate(0 50 20)"><path d="M0 0 C22.78 0, 45.56 0, 100 0 M100 0 C100 15.05, 100 30.1, 100 40 M100 40 C77.91 40, 55.81 40, 0 40 M0 40 C0 25.81, 0 11.62, 0 0" stroke="#1e1e1e" stroke-width="1.5" fill="none" stroke-dasharray="1.5 7"></path></g><g stroke-linecap="round" transform="translate(370 230) rotate(0 50 20)"><path d="M0 0 C33.56 0, 67.12 0, 100 0 M100 0 C100 8.38, 100 16.75, 100 40 M100 40 C61.02 40, 22.05 40, 0 40 M0 40 C0 30.86, 0 21.72, 0 0" stroke="#1e1e1e" stroke-width="1.5" fill="none" stroke-dasharray="1.5 7"></path></g><g stroke-linecap="round" transform="translate(370 150) rotate(0 50 20)"><path d="M0 0 C35.97 0, 71.94 0, 100 0 M100 0 C100 8.33, 100 16.66, 100 40 M100 40 C79.93 40, 59.86 40, 0 40 M0 40 C0 26.49, 0 12.97, 0 0" stroke="#1e1e1e" stroke-width="1.5" fill="none" stroke-dasharray="1.5 7"></path></g><g stroke-linecap="round" transform="translate(370 70) rotate(0 50 20)"><path d="M0 0 C20.31 0, 40.62 0, 100 0 M100 0 C100 15.7, 100 31.4, 100 40 M100 40 C75.02 40, 50.04 40, 0 40 M0 40 C0 28.66, 0 17.32, 0 0" stroke="#1e1e1e" stroke-width="1.5" fill="none" stroke-dasharray="1.5 7"></path></g><g stroke-linecap="round" transform="translate(170 110) rotate(0 50 20)"><path d="M0 0 C23.14 0, 46.28 0, 100 0 M100 0 C100 11.08, 100 22.16, 100 40 M100 40 C70.68 40, 41.36 40, 0 40 M0 40 C0 28.51, 0 17.01, 0 0" stroke="#1e1e1e" stroke-width="1.5" fill="none" stroke-dasharray="1.5 7"></path></g><g transform="translate(10 130) rotate(0 59.4873046875 11.5)"><text x="0" y="0" font-family="Helvetica, Segoe UI Emoji" font-size="20px" fill="#1e1e1e" text-anchor="start" style="white-space: pre;" direction="ltr" dominant-baseline="text-before-edge">aligned to 1G</text></g><g stroke-linecap="round"><g transform="translate(130 150) rotate(0 20 0)"><path d="M0 0 C11.56 0, 23.12 0, 40 0 M0 0 C11.23 0, 22.45 0, 40 0" stroke="#1e1e1e" stroke-width="1" fill="none"></path></g><g transform="translate(130 150) rotate(0 20 0)"><path d="M21.21 6.84 C26.64 4.86, 32.07 2.89, 40 0 M21.21 6.84 C26.48 4.92, 31.75 3, 40 0" stroke="#1e1e1e" stroke-width="1" fill="none"></path></g><g transform="translate(130 150) rotate(0 20 0)"><path d="M21.21 -6.84 C26.64 -4.86, 32.07 -2.89, 40 0 M21.21 -6.84 C26.48 -4.92, 31.75 -3, 40 0" stroke="#1e1e1e" stroke-width="1" fill="none"></path></g></g><mask></mask><g transform="translate(510 90) rotate(0 59.4873046875 11.5)"><text x="0" y="0" font-family="Helvetica, Segoe UI Emoji" font-size="20px" fill="#1e1e1e" text-anchor="start" style="white-space: pre;" direction="ltr" dominant-baseline="text-before-edge">aligned to 1G</text></g><g stroke-linecap="round"><g transform="translate(510 110) rotate(0 -20 0)"><path d="M0 0 C-12.84 0, -25.68 0, -40 0 M0 0 C-14.71 0, -29.41 0, -40 0" stroke="#1e1e1e" stroke-width="1" fill="none"></path></g><g transform="translate(510 110) rotate(0 -20 0)"><path d="M-21.21 -6.84 C-27.24 -4.64, -33.27 -2.45, -40 0 M-21.21 -6.84 C-28.12 -4.33, -35.02 -1.81, -40 0" stroke="#1e1e1e" stroke-width="1" fill="none"></path></g><g transform="translate(510 110) rotate(0 -20 0)"><path d="M-21.21 6.84 C-27.24 4.64, -33.27 2.45, -40 0 M-21.21 6.84 C-28.12 4.33, -35.02 1.81, -40 0" stroke="#1e1e1e" stroke-width="1" fill="none"></path></g></g><mask></mask><g stroke-linecap="round"><g transform="translate(270 170) rotate(0 50 -20)"><path d="M0 0 C34.8 -13.92, 69.6 -27.84, 100 -40 M0 0 C22.16 -8.86, 44.31 -17.72, 100 -40" stroke="#1e1e1e" stroke-width="1" fill="none"></path></g><g transform="translate(270 170) rotate(0 50 -20)"><path d="M81.36 -23.34 C87.85 -29.14, 94.33 -34.93, 100 -40 M81.36 -23.34 C85.49 -27.03, 89.62 -30.72, 100 -40" stroke="#1e1e1e" stroke-width="1" fill="none"></path></g><g transform="translate(270 170) rotate(0 50 -20)"><path d="M75.01 -39.21 C83.71 -39.49, 92.4 -39.76, 100 -40 M75.01 -39.21 C80.55 -39.39, 86.08 -39.56, 100 -40" stroke="#1e1e1e" stroke-width="1" fill="none"></path></g></g><mask></mask><g transform="translate(290 110) rotate(0 19.453125 11.5)"><text x="0" y="0" font-family="Helvetica, Segoe UI Emoji" font-size="20px" fill="#1e1e1e" text-anchor="start" style="white-space: pre;" direction="ltr" dominant-baseline="text-before-edge">map</text></g><g transform="translate(170 10) rotate(0 51.142578125 11.5)"><text x="0" y="0" font-family="Helvetica, Segoe UI Emoji" font-size="20px" fill="#1e1e1e" text-anchor="start" style="white-space: pre;" direction="ltr" dominant-baseline="text-before-edge">VA ASpace</text></g><g transform="translate(370 10) rotate(0 51.142578125 11.5)"><text x="0" y="0" font-family="Helvetica, Segoe UI Emoji" font-size="20px" fill="#1e1e1e" text-anchor="start" style="white-space: pre;" direction="ltr" dominant-baseline="text-before-edge">PA ASpace</text></g><g transform="translate(170 30) rotate(0 53.369140625 11.5)"><text x="0" y="0" font-family="Helvetica, Segoe UI Emoji" font-size="20px" fill="#1e1e1e" text-anchor="start" style="white-space: pre;" direction="ltr" dominant-baseline="text-before-edge">(page table)</text></g><g transform="translate(370 30) rotate(0 66.1279296875 11.5)"><text x="0" y="0" font-family="Helvetica, Segoe UI Emoji" font-size="20px" fill="#1e1e1e" text-anchor="start" style="white-space: pre;" direction="ltr" dominant-baseline="text-before-edge">(phsical frame)</text></g></svg>