<svg version="1.1" xmlns="http://www.w3.org/2000/svg" viewBox="0 0 680.078125 360" width="680.078125" height="360">
  <!-- svg-source:excalidraw -->
  
  <defs>
    <style class="style-fonts">
      @font-face {
        font-family: "Virgil";
        src: url("https://excalidraw.com/Virgil.woff2");
      }
      @font-face {
        font-family: "Cascadia";
        src: url("https://excalidraw.com/Cascadia.woff2");
      }
      @font-face {
        font-family: "Assistant";
        src: url("https://excalidraw.com/Assistant-Regular.woff2");
      }
    </style>
    
  </defs>
  <rect x="0" y="0" width="680.078125" height="360" fill="#ffffff"></rect><g stroke-linecap="round" transform="translate(110 50) rotate(0 50 150)"><path d="M0 0 C22.97 0, 45.95 0, 100 0 M0 0 C39.67 0, 79.35 0, 100 0 M100 0 C100 80.24, 100 160.48, 100 300 M100 0 C100 96.86, 100 193.71, 100 300 M100 300 C60.84 300, 21.68 300, 0 300 M100 300 C61.68 300, 23.37 300, 0 300 M0 300 C0 195.11, 0 90.22, 0 0 M0 300 C0 224.32, 0 148.63, 0 0" stroke="#1e1e1e" stroke-width="1" fill="none"></path></g><g stroke-linecap="round" transform="translate(410 50) rotate(0 50 150)"><path d="M0 0 C38.32 0, 76.63 0, 100 0 M0 0 C34.96 0, 69.93 0, 100 0 M100 0 C100 75.68, 100 151.37, 100 300 M100 0 C100 105.55, 100 211.1, 100 300 M100 300 C78.43 300, 56.86 300, 0 300 M100 300 C65.09 300, 30.19 300, 0 300 M0 300 C0 227.52, 0 155.05, 0 0 M0 300 C0 236.67, 0 173.34, 0 0" stroke="#1e1e1e" stroke-width="1" fill="none"></path></g><g stroke-linecap="round" transform="translate(110 150) rotate(0 50 50)"><path d="M0 0 L100 0 L100 100 L0 100" stroke="none" stroke-width="0" fill="#e9ecef"></path><path d="M0 0 C26.41 0, 52.81 0, 100 0 M0 0 C28.17 0, 56.34 0, 100 0 M100 0 C100 37.46, 100 74.91, 100 100 M100 0 C100 25.59, 100 51.17, 100 100 M100 100 C60.37 100, 20.74 100, 0 100 M100 100 C68.92 100, 37.85 100, 0 100 M0 100 C0 72.51, 0 45.01, 0 0 M0 100 C0 75.2, 0 50.39, 0 0" stroke="#1e1e1e" stroke-width="2" fill="none"></path></g><g transform="translate(550 130) rotate(0 60.0390625 11.5)"><text x="0" y="0" font-family="Helvetica, Segoe UI Emoji" font-size="20px" fill="#1e1e1e" text-anchor="start" style="white-space: pre;" direction="ltr" dominant-baseline="text-before-edge">aligned to 2M</text></g><g transform="translate(250 170) rotate(0 53.3447265625 11.5)"><text x="0" y="0" font-family="Helvetica, Segoe UI Emoji" font-size="20px" fill="#1e1e1e" text-anchor="start" style="white-space: pre;" direction="ltr" dominant-baseline="text-before-edge">map(by 2M)</text></g><g transform="translate(110 10) rotate(0 51.142578125 11.5)"><text x="0" y="0" font-family="Helvetica, Segoe UI Emoji" font-size="20px" fill="#1e1e1e" text-anchor="start" style="white-space: pre;" direction="ltr" dominant-baseline="text-before-edge">VA ASpace</text></g><g transform="translate(410 10) rotate(0 51.142578125 11.5)"><text x="0" y="0" font-family="Helvetica, Segoe UI Emoji" font-size="20px" fill="#1e1e1e" text-anchor="start" style="white-space: pre;" direction="ltr" dominant-baseline="text-before-edge">PA ASpace</text></g><g stroke-linecap="round" transform="translate(110 110) rotate(0 50 20)"><path d="M0 0 C0 0, 0 0, 0 0 M0 0 C0 0, 0 0, 0 0 M0.13 12.04 C3.26 8.44, 6.39 4.84, 10.63 -0.03 M0.13 12.04 C3.36 8.33, 6.58 4.62, 10.63 -0.03 M0.27 24.08 C7.63 15.61, 14.99 7.14, 21.26 -0.07 M0.27 24.08 C4.9 18.75, 9.53 13.43, 21.26 -0.07 M-0.26 36.88 C6.18 29.48, 12.61 22.08, 31.89 -0.1 M-0.26 36.88 C10.27 24.77, 20.8 12.66, 31.89 -0.1 M7.09 40.62 C17.49 28.65, 27.89 16.69, 42.52 -0.14 M7.09 40.62 C19.71 26.1, 32.33 11.58, 42.52 -0.14 M17.72 40.58 C26.85 30.08, 35.99 19.57, 53.15 -0.17 M17.72 40.58 C28.61 28.06, 39.49 15.54, 53.15 -0.17 M28.35 40.55 C41.49 25.44, 54.63 10.32, 63.78 -0.21 M28.35 40.55 C36.53 31.14, 44.71 21.73, 63.78 -0.21 M38.98 40.51 C50.82 26.89, 62.66 13.27, 74.41 -0.24 M38.98 40.51 C49.82 28.05, 60.65 15.59, 74.41 -0.24 M49.61 40.48 C61.82 26.43, 74.04 12.38, 85.04 -0.28 M49.61 40.48 C57.3 31.64, 64.99 22.79, 85.04 -0.28 M60.24 40.44 C69.67 29.6, 79.09 18.76, 95.67 -0.31 M60.24 40.44 C68.53 30.91, 76.82 21.38, 95.67 -0.31 M70.87 40.41 C79.76 30.19, 88.64 19.97, 100.4 6.45 M70.87 40.41 C82.35 27.21, 93.82 14.01, 100.4 6.45 M81.5 40.37 C88.41 32.43, 95.32 24.48, 100.53 18.49 M81.5 40.37 C88.24 32.63, 94.97 24.88, 100.53 18.49 M92.13 40.34 C95.11 36.92, 98.08 33.5, 100.66 30.53 M92.13 40.34 C94.02 38.17, 95.91 36, 100.66 30.53" stroke="#e9ecef" stroke-width="1" fill="none"></path><path d="M0 0 C25.7 0, 51.39 0, 100 0 M0 0 C34.61 0, 69.22 0, 100 0 M100 0 C100 15.07, 100 30.13, 100 40 M100 0 C100 14.66, 100 29.33, 100 40 M100 40 C76.39 40, 52.79 40, 0 40 M100 40 C61.59 40, 23.18 40, 0 40 M0 40 C0 25.5, 0 11, 0 0 M0 40 C0 26.44, 0 12.88, 0 0" stroke="#1e1e1e" stroke-width="2" fill="none"></path></g><g stroke-linecap="round" transform="translate(110 250) rotate(0 50 20)"><path d="M0 0 C0 0, 0 0, 0 0 M0 0 C0 0, 0 0, 0 0 M0.13 12.04 C4.15 7.42, 8.17 2.8, 10.63 -0.03 M0.13 12.04 C2.89 8.87, 5.65 5.69, 10.63 -0.03 M0.27 24.08 C7.2 16.11, 14.13 8.13, 21.26 -0.07 M0.27 24.08 C8.39 14.73, 16.52 5.39, 21.26 -0.07 M-0.26 36.88 C11.82 22.98, 23.91 9.08, 31.89 -0.1 M-0.26 36.88 C11.1 23.81, 22.46 10.74, 31.89 -0.1 M7.09 40.62 C14.54 32.05, 21.98 23.49, 42.52 -0.14 M7.09 40.62 C16.77 29.49, 26.45 18.35, 42.52 -0.14 M17.72 40.58 C25.71 31.4, 33.69 22.21, 53.15 -0.17 M17.72 40.58 C26.85 30.08, 35.98 19.58, 53.15 -0.17 M28.35 40.55 C38.52 28.85, 48.7 17.15, 63.78 -0.21 M28.35 40.55 C38.86 28.46, 49.36 16.38, 63.78 -0.21 M38.98 40.51 C46.28 32.11, 53.59 23.71, 74.41 -0.24 M38.98 40.51 C47.33 30.91, 55.68 21.3, 74.41 -0.24 M49.61 40.48 C60.6 27.84, 71.59 15.19, 85.04 -0.28 M49.61 40.48 C58.67 30.07, 67.72 19.65, 85.04 -0.28 M60.24 40.44 C71.45 27.55, 82.65 14.66, 95.67 -0.31 M60.24 40.44 C69.07 30.3, 77.89 20.15, 95.67 -0.31 M70.87 40.41 C79.79 30.16, 88.7 19.9, 100.4 6.45 M70.87 40.41 C79.73 30.22, 88.58 20.04, 100.4 6.45 M81.5 40.37 C88.69 32.11, 95.87 23.85, 100.53 18.49 M81.5 40.37 C86.47 34.67, 91.43 28.96, 100.53 18.49 M92.13 40.34 C94.34 37.81, 96.54 35.28, 100.66 30.53 M92.13 40.34 C94.11 38.07, 96.08 35.8, 100.66 30.53" stroke="#e9ecef" stroke-width="1" fill="none"></path><path d="M0 0 C38.52 0, 77.03 0, 100 0 M0 0 C34.37 0, 68.74 0, 100 0 M100 0 C100 11.35, 100 22.71, 100 40 M100 0 C100 15.65, 100 31.3, 100 40 M100 40 C66.68 40, 33.36 40, 0 40 M100 40 C60.83 40, 21.65 40, 0 40 M0 40 C0 24.21, 0 8.42, 0 0 M0 40 C0 26.89, 0 13.77, 0 0" stroke="#1e1e1e" stroke-width="2" fill="none"></path></g><g stroke-linecap="round" transform="translate(410 150) rotate(0 50 50)"><path d="M0 0 L100 0 L100 100 L0 100" stroke="none" stroke-width="0" fill="#e9ecef"></path><path d="M0 0 C26.91 0, 53.82 0, 100 0 M0 0 C34.3 0, 68.61 0, 100 0 M100 0 C100 25.38, 100 50.77, 100 100 M100 0 C100 23.3, 100 46.61, 100 100 M100 100 C71.33 100, 42.67 100, 0 100 M100 100 C67.06 100, 34.13 100, 0 100 M0 100 C0 64.83, 0 29.66, 0 0 M0 100 C0 74.38, 0 48.77, 0 0" stroke="#1e1e1e" stroke-width="2" fill="none"></path></g><g stroke-linecap="round" transform="translate(410 110) rotate(0 50 20)"><path d="M0 0 C0 0, 0 0, 0 0 M0 0 C0 0, 0 0, 0 0 M0.13 12.04 C4.16 7.41, 8.18 2.78, 10.63 -0.03 M0.13 12.04 C2.98 8.77, 5.83 5.49, 10.63 -0.03 M0.27 24.08 C5.79 17.73, 11.31 11.38, 21.26 -0.07 M0.27 24.08 C5.24 18.36, 10.21 12.65, 21.26 -0.07 M-0.26 36.88 C11.7 23.12, 23.67 9.36, 31.89 -0.1 M-0.26 36.88 C9.59 25.54, 19.45 14.21, 31.89 -0.1 M7.09 40.62 C18.22 27.82, 29.35 15.02, 42.52 -0.14 M7.09 40.62 C16.98 29.24, 26.88 17.86, 42.52 -0.14 M17.72 40.58 C31.67 24.54, 45.62 8.49, 53.15 -0.17 M17.72 40.58 C30.26 26.16, 42.79 11.74, 53.15 -0.17 M28.35 40.55 C42.13 24.7, 55.91 8.84, 63.78 -0.21 M28.35 40.55 C35.7 32.09, 43.05 23.64, 63.78 -0.21 M38.98 40.51 C46.89 31.42, 54.79 22.33, 74.41 -0.24 M38.98 40.51 C52.21 25.29, 65.44 10.07, 74.41 -0.24 M49.61 40.48 C61.54 26.76, 73.46 13.05, 85.04 -0.28 M49.61 40.48 C60.94 27.45, 72.27 14.42, 85.04 -0.28 M60.24 40.44 C72.94 25.83, 85.65 11.22, 95.67 -0.31 M60.24 40.44 C68.28 31.2, 76.31 21.96, 95.67 -0.31 M70.87 40.41 C79.12 30.93, 87.36 21.44, 100.4 6.45 M70.87 40.41 C78.72 31.38, 86.57 22.35, 100.4 6.45 M81.5 40.37 C87.62 33.34, 93.74 26.3, 100.53 18.49 M81.5 40.37 C88.68 32.12, 95.85 23.87, 100.53 18.49 M92.13 40.34 C94.8 37.27, 97.47 34.2, 100.66 30.53 M92.13 40.34 C95.1 36.93, 98.06 33.53, 100.66 30.53" stroke="#e9ecef" stroke-width="1" fill="none"></path><path d="M0 0 C36.33 0, 72.65 0, 100 0 M0 0 C21.47 0, 42.95 0, 100 0 M100 0 C100 8.93, 100 17.86, 100 40 M100 0 C100 12.22, 100 24.44, 100 40 M100 40 C79.71 40, 59.41 40, 0 40 M100 40 C62.61 40, 25.23 40, 0 40 M0 40 C0 28.94, 0 17.88, 0 0 M0 40 C0 28.4, 0 16.81, 0 0" stroke="#1e1e1e" stroke-width="2" fill="none"></path></g><g stroke-linecap="round" transform="translate(410 250) rotate(0 50 20)"><path d="M0 0 C0 0, 0 0, 0 0 M0 0 C0 0, 0 0, 0 0 M0.13 12.04 C3.18 8.53, 6.24 5.02, 10.63 -0.03 M0.13 12.04 C4.04 7.54, 7.95 3.05, 10.63 -0.03 M0.27 24.08 C4.93 18.72, 9.59 13.36, 21.26 -0.07 M0.27 24.08 C8.2 14.95, 16.13 5.83, 21.26 -0.07 M-0.26 36.88 C10.02 25.05, 20.3 13.23, 31.89 -0.1 M-0.26 36.88 C7.78 27.63, 15.81 18.39, 31.89 -0.1 M7.09 40.62 C20.02 25.75, 32.94 10.88, 42.52 -0.14 M7.09 40.62 C15.8 30.6, 24.51 20.59, 42.52 -0.14 M17.72 40.58 C31.62 24.59, 45.52 8.6, 53.15 -0.17 M17.72 40.58 C25.5 31.63, 33.28 22.68, 53.15 -0.17 M28.35 40.55 C41.26 25.71, 54.16 10.86, 63.78 -0.21 M28.35 40.55 C35.46 32.37, 42.58 24.19, 63.78 -0.21 M38.98 40.51 C51.04 26.64, 63.1 12.77, 74.41 -0.24 M38.98 40.51 C48.61 29.44, 58.24 18.36, 74.41 -0.24 M49.61 40.48 C62.05 26.17, 74.49 11.86, 85.04 -0.28 M49.61 40.48 C61.89 26.35, 74.17 12.23, 85.04 -0.28 M60.24 40.44 C73.31 25.41, 86.38 10.37, 95.67 -0.31 M60.24 40.44 C69.05 30.32, 77.85 20.19, 95.67 -0.31 M70.87 40.41 C82.09 27.5, 93.32 14.59, 100.4 6.45 M70.87 40.41 C79.39 30.61, 87.91 20.81, 100.4 6.45 M81.5 40.37 C88.29 32.57, 95.08 24.76, 100.53 18.49 M81.5 40.37 C88.04 32.86, 94.57 25.34, 100.53 18.49 M92.13 40.34 C94.94 37.11, 97.75 33.88, 100.66 30.53 M92.13 40.34 C94.13 38.05, 96.12 35.76, 100.66 30.53" stroke="#e9ecef" stroke-width="1" fill="none"></path><path d="M0 0 C37.39 0, 74.77 0, 100 0 M0 0 C28.32 0, 56.65 0, 100 0 M100 0 C100 12.13, 100 24.26, 100 40 M100 0 C100 15.59, 100 31.17, 100 40 M100 40 C60.11 40, 20.22 40, 0 40 M100 40 C60.35 40, 20.7 40, 0 40 M0 40 C0 26.13, 0 12.25, 0 0 M0 40 C0 26.08, 0 12.15, 0 0" stroke="#1e1e1e" stroke-width="2" fill="none"></path></g><g transform="translate(550 230) rotate(0 60.0390625 11.5)"><text x="0" y="0" font-family="Helvetica, Segoe UI Emoji" font-size="20px" fill="#1e1e1e" text-anchor="start" style="white-space: pre;" direction="ltr" dominant-baseline="text-before-edge">aligned to 2M</text></g><g stroke-linecap="round"><g transform="translate(211 130) rotate(0 99 0)"><path d="M0 0 C63.04 0, 126.07 0, 198 0 M0 0 C52.91 0, 105.82 0, 198 0" stroke="#1e1e1e" stroke-width="4" fill="none"></path></g><g transform="translate(211 130) rotate(0 99 0)"><path d="M174.51 8.55 C181.99 5.83, 189.47 3.11, 198 0 M174.51 8.55 C180.79 6.27, 187.06 3.98, 198 0" stroke="#1e1e1e" stroke-width="4" fill="none"></path></g><g transform="translate(211 130) rotate(0 99 0)"><path d="M174.51 -8.55 C181.99 -5.83, 189.47 -3.11, 198 0 M174.51 -8.55 C180.79 -6.27, 187.06 -3.98, 198 0" stroke="#1e1e1e" stroke-width="4" fill="none"></path></g></g><mask></mask><g stroke-linecap="round"><g transform="translate(211 270) rotate(0 99 0)"><path d="M0 0 C45.04 0, 90.07 0, 198 0 M0 0 C64.87 0, 129.73 0, 198 0" stroke="#1e1e1e" stroke-width="4" fill="none"></path></g><g transform="translate(211 270) rotate(0 99 0)"><path d="M174.51 8.55 C179.85 6.61, 185.19 4.66, 198 0 M174.51 8.55 C182.2 5.75, 189.9 2.95, 198 0" stroke="#1e1e1e" stroke-width="4" fill="none"></path></g><g transform="translate(211 270) rotate(0 99 0)"><path d="M174.51 -8.55 C179.85 -6.61, 185.19 -4.66, 198 0 M174.51 -8.55 C182.2 -5.75, 189.9 -2.95, 198 0" stroke="#1e1e1e" stroke-width="4" fill="none"></path></g></g><mask></mask><g stroke-linecap="round"><g transform="translate(211 210) rotate(0 99 0)"><path d="M0 0 C42.05 0, 84.1 0, 198 0 M0 0 C76.71 0, 153.43 0, 198 0" stroke="#1e1e1e" stroke-width="4" fill="none"></path></g><g transform="translate(211 210) rotate(0 99 0)"><path d="M174.51 8.55 C179.5 6.73, 184.49 4.92, 198 0 M174.51 8.55 C183.61 5.24, 192.71 1.92, 198 0" stroke="#1e1e1e" stroke-width="4" fill="none"></path></g><g transform="translate(211 210) rotate(0 99 0)"><path d="M174.51 -8.55 C179.5 -6.73, 184.49 -4.92, 198 0 M174.51 -8.55 C183.61 -5.24, 192.71 -1.92, 198 0" stroke="#1e1e1e" stroke-width="4" fill="none"></path></g></g><mask></mask><g stroke-linecap="round"><g transform="translate(10 150) rotate(0 300 0)"><path d="M0 0 C220.6 0, 441.21 0, 600 0" stroke="#1e1e1e" stroke-width="1.5" fill="none" stroke-dasharray="8 9"></path></g></g><mask></mask><g stroke-linecap="round"><g transform="translate(10 250) rotate(0 300 0)"><path d="M0 0 C214.1 0, 428.19 0, 600 0" stroke="#1e1e1e" stroke-width="1.5" fill="none" stroke-dasharray="8 9"></path></g></g><mask></mask><g transform="translate(250 90) rotate(0 51.6845703125 11.5)"><text x="0" y="0" font-family="Helvetica, Segoe UI Emoji" font-size="20px" fill="#1e1e1e" text-anchor="start" style="white-space: pre;" direction="ltr" dominant-baseline="text-before-edge">map(by 4K)</text></g><g transform="translate(250 290) rotate(0 51.6845703125 11.5)"><text x="0" y="0" font-family="Helvetica, Segoe UI Emoji" font-size="20px" fill="#1e1e1e" text-anchor="start" style="white-space: pre;" direction="ltr" dominant-baseline="text-before-edge">map(by 4K)</text></g></svg>