<svg version="1.1" xmlns="http://www.w3.org/2000/svg" viewBox="0 0 920 400" width="920" height="400">
  <!-- svg-source:excalidraw -->
  
  <defs>
    <style class="style-fonts">
      @font-face {
        font-family: "Virgil";
        src: url("https://excalidraw.com/Virgil.woff2");
      }
      @font-face {
        font-family: "Cascadia";
        src: url("https://excalidraw.com/Cascadia.woff2");
      }
      @font-face {
        font-family: "Assistant";
        src: url("https://excalidraw.com/Assistant-Regular.woff2");
      }
    </style>
    
  </defs>
  <rect x="0" y="0" width="920" height="400" fill="#ffffff"></rect><g stroke-linecap="round" transform="translate(10 10) rotate(0 30 20)"><path d="M10 0 C19.66 0, 29.33 0, 50 0 M10 0 C21.82 0, 33.64 0, 50 0 M50 0 C56.67 0, 60 3.33, 60 10 M50 0 C56.67 0, 60 3.33, 60 10 M60 10 C60 17.07, 60 24.15, 60 30 M60 10 C60 17.16, 60 24.31, 60 30 M60 30 C60 36.67, 56.67 40, 50 40 M60 30 C60 36.67, 56.67 40, 50 40 M50 40 C37.43 40, 24.85 40, 10 40 M50 40 C36.08 40, 22.16 40, 10 40 M10 40 C3.33 40, 0 36.67, 0 30 M10 40 C3.33 40, 0 36.67, 0 30 M0 30 C0 24.64, 0 19.28, 0 10 M0 30 C0 24.23, 0 18.46, 0 10 M0 10 C0 3.33, 3.33 0, 10 0 M0 10 C0 3.33, 3.33 0, 10 0" stroke="#1e1e1e" stroke-width="1" fill="none"></path></g><g transform="translate(21.0986328125 18.5) rotate(0 18.9013671875 11.5)"><text x="18.9013671875" y="0" font-family="Helvetica, Segoe UI Emoji" font-size="20px" fill="#1e1e1e" text-anchor="middle" style="white-space: pre;" direction="ltr" dominant-baseline="text-before-edge">satp</text></g><g stroke-linecap="round" transform="translate(110 10) rotate(0 100 20)"><path d="M10 0 C50.45 0, 90.9 0, 190 0 M10 0 C47.18 0, 84.35 0, 190 0 M190 0 C196.67 0, 200 3.33, 200 10 M190 0 C196.67 0, 200 3.33, 200 10 M200 10 C200 15.33, 200 20.66, 200 30 M200 10 C200 16.99, 200 23.98, 200 30 M200 30 C200 36.67, 196.67 40, 190 40 M200 30 C200 36.67, 196.67 40, 190 40 M190 40 C144.44 40, 98.87 40, 10 40 M190 40 C122.15 40, 54.31 40, 10 40 M10 40 C3.33 40, 0 36.67, 0 30 M10 40 C3.33 40, 0 36.67, 0 30 M0 30 C0 24.77, 0 19.54, 0 10 M0 30 C0 25.58, 0 21.16, 0 10 M0 10 C0 3.33, 3.33 0, 10 0 M0 10 C0 3.33, 3.33 0, 10 0" stroke="#1e1e1e" stroke-width="1" fill="none"></path></g><g transform="translate(168.857421875 18.5) rotate(0 41.142578125 11.5)"><text x="41.142578125" y="0" font-family="Helvetica, Segoe UI Emoji" font-size="20px" fill="#1e1e1e" text-anchor="middle" style="white-space: pre;" direction="ltr" dominant-baseline="text-before-edge">va[38:30]</text></g><g stroke-linecap="round" transform="translate(310 10) rotate(0 100 20)"><path d="M10 0 C74.62 0, 139.24 0, 190 0 M10 0 C69.08 0, 128.17 0, 190 0 M190 0 C196.67 0, 200 3.33, 200 10 M190 0 C196.67 0, 200 3.33, 200 10 M200 10 C200 14.67, 200 19.35, 200 30 M200 10 C200 17.12, 200 24.24, 200 30 M200 30 C200 36.67, 196.67 40, 190 40 M200 30 C200 36.67, 196.67 40, 190 40 M190 40 C132.08 40, 74.16 40, 10 40 M190 40 C128.36 40, 66.72 40, 10 40 M10 40 C3.33 40, 0 36.67, 0 30 M10 40 C3.33 40, 0 36.67, 0 30 M0 30 C0 23.57, 0 17.13, 0 10 M0 30 C0 25.85, 0 21.69, 0 10 M0 10 C0 3.33, 3.33 0, 10 0 M0 10 C0 3.33, 3.33 0, 10 0" stroke="#1e1e1e" stroke-width="1" fill="none"></path></g><g transform="translate(368.857421875 18.5) rotate(0 41.142578125 11.5)"><text x="41.142578125" y="0" font-family="Helvetica, Segoe UI Emoji" font-size="20px" fill="#1e1e1e" text-anchor="middle" style="white-space: pre;" direction="ltr" dominant-baseline="text-before-edge">va[29:21]</text></g><g stroke-linecap="round" transform="translate(510 10) rotate(0 100 20)"><path d="M10 0 C65.59 0, 121.19 0, 190 0 M10 0 C47.23 0, 84.46 0, 190 0 M190 0 C196.67 0, 200 3.33, 200 10 M190 0 C196.67 0, 200 3.33, 200 10 M200 10 C200 16.1, 200 22.2, 200 30 M200 10 C200 14.61, 200 19.22, 200 30 M200 30 C200 36.67, 196.67 40, 190 40 M200 30 C200 36.67, 196.67 40, 190 40 M190 40 C139.58 40, 89.16 40, 10 40 M190 40 C153.11 40, 116.23 40, 10 40 M10 40 C3.33 40, 0 36.67, 0 30 M10 40 C3.33 40, 0 36.67, 0 30 M0 30 C0 23.09, 0 16.18, 0 10 M0 30 C0 25.66, 0 21.32, 0 10 M0 10 C0 3.33, 3.33 0, 10 0 M0 10 C0 3.33, 3.33 0, 10 0" stroke="#1e1e1e" stroke-width="1" fill="none"></path></g><g transform="translate(568.857421875 18.5) rotate(0 41.142578125 11.5)"><text x="41.142578125" y="0" font-family="Helvetica, Segoe UI Emoji" font-size="20px" fill="#1e1e1e" text-anchor="middle" style="white-space: pre;" direction="ltr" dominant-baseline="text-before-edge">va[20:12]</text></g><g stroke-linecap="round" transform="translate(710 10) rotate(0 100 20)"><path d="M10 0 C72.07 0, 134.14 0, 190 0 M10 0 C55.66 0, 101.32 0, 190 0 M190 0 C196.67 0, 200 3.33, 200 10 M190 0 C196.67 0, 200 3.33, 200 10 M200 10 C200 15.89, 200 21.79, 200 30 M200 10 C200 14.5, 200 19.01, 200 30 M200 30 C200 36.67, 196.67 40, 190 40 M200 30 C200 36.67, 196.67 40, 190 40 M190 40 C130.2 40, 70.4 40, 10 40 M190 40 C130.57 40, 71.14 40, 10 40 M10 40 C3.33 40, 0 36.67, 0 30 M10 40 C3.33 40, 0 36.67, 0 30 M0 30 C0 24.73, 0 19.46, 0 10 M0 30 C0 24.88, 0 19.75, 0 10 M0 10 C0 3.33, 3.33 0, 10 0 M0 10 C0 3.33, 3.33 0, 10 0" stroke="#1e1e1e" stroke-width="1" fill="none"></path></g><g transform="translate(774.4189453125 18.5) rotate(0 35.5810546875 11.5)"><text x="35.5810546875" y="0" font-family="Helvetica, Segoe UI Emoji" font-size="20px" fill="#1e1e1e" text-anchor="middle" style="white-space: pre;" direction="ltr" dominant-baseline="text-before-edge">va[11:0]</text></g><g stroke-linecap="round" transform="translate(110 110) rotate(0 50 80)"><path d="M0 0 C22.16 0, 44.31 0, 100 0 M0 0 C22.94 0, 45.88 0, 100 0 M100 0 C100 53.93, 100 107.87, 100 160 M100 0 C100 63.16, 100 126.32, 100 160 M100 160 C70.57 160, 41.15 160, 0 160 M100 160 C66.33 160, 32.67 160, 0 160 M0 160 C0 119.73, 0 79.47, 0 0 M0 160 C0 96.35, 0 32.7, 0 0" stroke="#1e1e1e" stroke-width="1" fill="none"></path></g><g stroke-linecap="round"><g transform="translate(50 50) rotate(0 30 30)"><path d="M0 0 C0 6.67, -10 30, 0 40 C10 50, 50 56.67, 60 60 M0 0 C0 6.67, -10 30, 0 40 C10 50, 50 56.67, 60 60" stroke="#1e1e1e" stroke-width="1" fill="none"></path></g><g transform="translate(50 50) rotate(0 30 30)"><path d="M35.13 62.55 C42.78 61.77, 50.42 60.98, 60 60 M35.13 62.55 C44.26 61.61, 53.4 60.68, 60 60" stroke="#1e1e1e" stroke-width="1" fill="none"></path></g><g transform="translate(50 50) rotate(0 30 30)"><path d="M39.31 45.97 C45.67 50.28, 52.03 54.6, 60 60 M39.31 45.97 C46.91 51.12, 54.51 56.28, 60 60" stroke="#1e1e1e" stroke-width="1" fill="none"></path></g></g><mask></mask><g stroke-linecap="round" transform="translate(110 170) rotate(0 50 20)"><path d="M0 0 L100 0 L100 40 L0 40" stroke="none" stroke-width="0" fill="#e9ecef"></path><path d="M0 0 C37.66 0, 75.31 0, 100 0 M0 0 C29.67 0, 59.34 0, 100 0 M100 0 C100 15.57, 100 31.14, 100 40 M100 0 C100 10.17, 100 20.35, 100 40 M100 40 C71.36 40, 42.73 40, 0 40 M100 40 C72.11 40, 44.21 40, 0 40 M0 40 C0 24.71, 0 9.43, 0 0 M0 40 C0 25.46, 0 10.92, 0 0" stroke="#1e1e1e" stroke-width="1" fill="none"></path></g><g stroke-linecap="round"><g transform="translate(230 50) rotate(0 -9.5 61)"><path d="M0 0 C0 30.62, 0 61.24, 0 100 M0 0 C0 30.85, 0 61.7, 0 100 M0 100 C-6.86 107.95, -13.73 115.89, -19 122 M0 100 C-5.11 105.92, -10.22 111.84, -19 122" stroke="#1e1e1e" stroke-width="1" fill="none"></path></g><g transform="translate(230 50) rotate(0 -9.5 61)"><path d="M-13.84 108.41 C-15.42 112.57, -17 116.73, -19 122 M-13.84 108.41 C-15.43 112.61, -17.02 116.8, -19 122" stroke="#1e1e1e" stroke-width="1" fill="none"></path></g><g transform="translate(230 50) rotate(0 -9.5 61)"><path d="M-6.31 114.91 C-10.2 117.08, -14.08 119.25, -19 122 M-6.31 114.91 C-10.23 117.1, -14.14 119.29, -19 122" stroke="#1e1e1e" stroke-width="1" fill="none"></path></g></g><mask></mask><g stroke-linecap="round" transform="translate(310 110) rotate(0 50 80)"><path d="M0 0 C32.04 0, 64.09 0, 100 0 M0 0 C38 0, 76.01 0, 100 0 M100 0 C100 51.7, 100 103.4, 100 160 M100 0 C100 50.21, 100 100.42, 100 160 M100 160 C75.99 160, 51.97 160, 0 160 M100 160 C73.35 160, 46.7 160, 0 160 M0 160 C0 110.5, 0 60.99, 0 0 M0 160 C0 106.76, 0 53.51, 0 0" stroke="#1e1e1e" stroke-width="1" fill="none"></path></g><g stroke-linecap="round" transform="translate(310 170) rotate(0 50 20)"><path d="M0 0 L100 0 L100 40 L0 40" stroke="none" stroke-width="0" fill="#e9ecef"></path><path d="M0 0 C28.37 0, 56.73 0, 100 0 M0 0 C25.31 0, 50.62 0, 100 0 M100 0 C100 12.1, 100 24.2, 100 40 M100 0 C100 15.16, 100 30.32, 100 40 M100 40 C71.94 40, 43.88 40, 0 40 M100 40 C74.18 40, 48.37 40, 0 40 M0 40 C0 29.79, 0 19.57, 0 0 M0 40 C0 26.2, 0 12.4, 0 0" stroke="#1e1e1e" stroke-width="1" fill="none"></path></g><g stroke-linecap="round"><g transform="translate(190 190) rotate(0 60 -40)"><path d="M0 0 C28.75 0, 57.5 0, 80 0 M0 0 C16.68 0, 33.35 0, 80 0 M80 0 C91.89 -23.78, 103.78 -47.57, 120 -80 M80 0 C88.22 -16.44, 96.44 -32.87, 120 -80" stroke="#1e1e1e" stroke-width="1" fill="none"></path></g><g transform="translate(190 190) rotate(0 60 -40)"><path d="M117.14 -55.16 C118.17 -64.09, 119.2 -73.02, 120 -80 M117.14 -55.16 C117.74 -60.34, 118.33 -65.52, 120 -80" stroke="#1e1e1e" stroke-width="1" fill="none"></path></g><g transform="translate(190 190) rotate(0 60 -40)"><path d="M101.85 -62.81 C108.37 -68.99, 114.89 -75.17, 120 -80 M101.85 -62.81 C105.63 -66.39, 109.42 -69.98, 120 -80" stroke="#1e1e1e" stroke-width="1" fill="none"></path></g></g><mask></mask><g stroke-linecap="round" transform="translate(310 310) rotate(0 50 40)"><path d="M20 0 C39.52 0, 59.03 0, 80 0 C93.33 0, 100 6.67, 100 20 C100 28.91, 100 37.82, 100 60 C100 73.33, 93.33 80, 80 80 C62.22 80, 44.43 80, 20 80 C6.67 80, 0 73.33, 0 60 C0 49.85, 0 39.7, 0 20 C0 6.67, 6.67 0, 20 0" stroke="none" stroke-width="0" fill="#e9ecef"></path><path d="M20 0 C36.88 0, 53.77 0, 80 0 M80 0 C93.33 0, 100 6.67, 100 20 M100 20 C100 31.46, 100 42.93, 100 60 M100 60 C100 73.33, 93.33 80, 80 80 M80 80 C66.18 80, 52.35 80, 20 80 M20 80 C6.67 80, 0 73.33, 0 60 M0 60 C0 50.02, 0 40.04, 0 20 M0 20 C0 6.67, 6.67 0, 20 0" stroke="#1e1e1e" stroke-width="1.5" fill="none" stroke-dasharray="1.5 7"></path></g><g transform="translate(321.650390625 327) rotate(0 38.349609375 23)"><text x="38.349609375" y="0" font-family="Helvetica, Segoe UI Emoji" font-size="20px" fill="#1e1e1e" text-anchor="middle" style="white-space: pre;" direction="ltr" dominant-baseline="text-before-edge">1G Phys</text><text x="38.349609375" y="23" font-family="Helvetica, Segoe UI Emoji" font-size="20px" fill="#1e1e1e" text-anchor="middle" style="white-space: pre;" direction="ltr" dominant-baseline="text-before-edge">ASpace</text></g><g transform="translate(110 90) rotate(0 50.5908203125 11.5)"><text x="0" y="0" font-family="Helvetica, Segoe UI Emoji" font-size="20px" fill="#1e1e1e" text-anchor="start" style="white-space: pre;" direction="ltr" dominant-baseline="text-before-edge">level0 table</text></g><g transform="translate(310 90) rotate(0 50.5908203125 11.5)"><text x="0" y="0" font-family="Helvetica, Segoe UI Emoji" font-size="20px" fill="#1e1e1e" text-anchor="start" style="white-space: pre;" direction="ltr" dominant-baseline="text-before-edge">level1 table</text></g><g transform="translate(230 50) rotate(0 23.90625 11.5)"><text x="0" y="0" font-family="Helvetica, Segoe UI Emoji" font-size="20px" fill="#1e1e1e" text-anchor="start" style="white-space: pre;" direction="ltr" dominant-baseline="text-before-edge">index</text></g><g stroke-linecap="round"><g transform="translate(429 50) rotate(0 -9.5 61)"><path d="M0 0 C0 24.54, 0 49.07, 0 100 M0 0 C0 30.95, 0 61.9, 0 100 M0 100 C-5.44 106.3, -10.88 112.6, -19 122 M0 100 C-5.73 106.63, -11.46 113.27, -19 122" stroke="#1e1e1e" stroke-width="1" fill="none"></path></g><g transform="translate(429 50) rotate(0 -9.5 61)"><path d="M-13.84 108.41 C-15.1 111.75, -16.37 115.08, -19 122 M-13.84 108.41 C-15.43 112.62, -17.03 116.82, -19 122" stroke="#1e1e1e" stroke-width="1" fill="none"></path></g><g transform="translate(429 50) rotate(0 -9.5 61)"><path d="M-6.31 114.91 C-9.42 116.65, -12.54 118.39, -19 122 M-6.31 114.91 C-10.24 117.11, -14.17 119.3, -19 122" stroke="#1e1e1e" stroke-width="1" fill="none"></path></g></g><mask></mask><g stroke-linecap="round" transform="translate(509 110) rotate(0 50 80)"><path d="M0 0 C20.37 0, 40.75 0, 100 0 M0 0 C33.76 0, 67.53 0, 100 0 M100 0 C100 60.64, 100 121.27, 100 160 M100 0 C100 60.1, 100 120.21, 100 160 M100 160 C67.01 160, 34.03 160, 0 160 M100 160 C76.03 160, 52.06 160, 0 160 M0 160 C0 127.6, 0 95.19, 0 0 M0 160 C0 115.08, 0 70.17, 0 0" stroke="#1e1e1e" stroke-width="1" fill="none"></path></g><g stroke-linecap="round" transform="translate(509 170) rotate(0 50 20)"><path d="M0 0 L100 0 L100 40 L0 40" stroke="none" stroke-width="0" fill="#e9ecef"></path><path d="M0 0 C30.21 0, 60.41 0, 100 0 M0 0 C36.46 0, 72.93 0, 100 0 M100 0 C100 9.06, 100 18.12, 100 40 M100 0 C100 14.3, 100 28.6, 100 40 M100 40 C65.34 40, 30.67 40, 0 40 M100 40 C64.01 40, 28.02 40, 0 40 M0 40 C0 27.25, 0 14.5, 0 0 M0 40 C0 27.86, 0 15.73, 0 0" stroke="#1e1e1e" stroke-width="1" fill="none"></path></g><g stroke-linecap="round" transform="translate(509 310) rotate(0 50 40)"><path d="M20 0 C41.9 0, 63.8 0, 80 0 C93.33 0, 100 6.67, 100 20 C100 30.49, 100 40.98, 100 60 C100 73.33, 93.33 80, 80 80 C64.45 80, 48.91 80, 20 80 C6.67 80, 0 73.33, 0 60 C0 51.04, 0 42.09, 0 20 C0 6.67, 6.67 0, 20 0" stroke="none" stroke-width="0" fill="#e9ecef"></path><path d="M20 0 C37 0, 53.99 0, 80 0 M80 0 C93.33 0, 100 6.67, 100 20 M100 20 C100 30.62, 100 41.25, 100 60 M100 60 C100 73.33, 93.33 80, 80 80 M80 80 C63.17 80, 46.34 80, 20 80 M20 80 C6.67 80, 0 73.33, 0 60 M0 60 C0 45.6, 0 31.21, 0 20 M0 20 C0 6.67, 6.67 0, 20 0" stroke="#1e1e1e" stroke-width="1.5" fill="none" stroke-dasharray="1.5 7"></path></g><g transform="translate(520.0986328125 327) rotate(0 38.9013671875 23)"><text x="38.9013671875" y="0" font-family="Helvetica, Segoe UI Emoji" font-size="20px" fill="#1e1e1e" text-anchor="middle" style="white-space: pre;" direction="ltr" dominant-baseline="text-before-edge">2M Phys</text><text x="38.9013671875" y="23" font-family="Helvetica, Segoe UI Emoji" font-size="20px" fill="#1e1e1e" text-anchor="middle" style="white-space: pre;" direction="ltr" dominant-baseline="text-before-edge">ASpace</text></g><g transform="translate(509 90) rotate(0 50.5908203125 11.5)"><text x="0" y="0" font-family="Helvetica, Segoe UI Emoji" font-size="20px" fill="#1e1e1e" text-anchor="start" style="white-space: pre;" direction="ltr" dominant-baseline="text-before-edge">level2 table</text></g><g transform="translate(429 50) rotate(0 23.90625 11.5)"><text x="0" y="0" font-family="Helvetica, Segoe UI Emoji" font-size="20px" fill="#1e1e1e" text-anchor="start" style="white-space: pre;" direction="ltr" dominant-baseline="text-before-edge">index</text></g><g stroke-linecap="round"><g transform="translate(390 190) rotate(0 60 -40)"><path d="M0 0 C18.76 0, 37.53 0, 80 0 M0 0 C23.97 0, 47.93 0, 80 0 M80 0 C93.17 -26.34, 106.34 -52.68, 120 -80 M80 0 C91.76 -23.52, 103.52 -47.05, 120 -80" stroke="#1e1e1e" stroke-width="1" fill="none"></path></g><g transform="translate(390 190) rotate(0 60 -40)"><path d="M117.14 -55.16 C117.81 -60.99, 118.48 -66.81, 120 -80 M117.14 -55.16 C118 -62.6, 118.85 -70.05, 120 -80" stroke="#1e1e1e" stroke-width="1" fill="none"></path></g><g transform="translate(390 190) rotate(0 60 -40)"><path d="M101.85 -62.81 C106.1 -66.84, 110.36 -70.87, 120 -80 M101.85 -62.81 C107.28 -67.96, 112.72 -73.11, 120 -80" stroke="#1e1e1e" stroke-width="1" fill="none"></path></g></g><mask></mask><g stroke-linecap="round"><g transform="translate(629 50) rotate(0 -9.5 61)"><path d="M0 0 C0 23.06, 0 46.13, 0 100 M0 0 C0 35.41, 0 70.83, 0 100 M0 100 C-7.03 108.14, -14.05 116.27, -19 122 M0 100 C-6.01 106.96, -12.02 113.91, -19 122" stroke="#1e1e1e" stroke-width="1" fill="none"></path></g><g transform="translate(629 50) rotate(0 -9.5 61)"><path d="M-13.84 108.41 C-15.03 111.55, -16.22 114.68, -19 122 M-13.84 108.41 C-15.66 113.23, -17.49 118.04, -19 122" stroke="#1e1e1e" stroke-width="1" fill="none"></path></g><g transform="translate(629 50) rotate(0 -9.5 61)"><path d="M-6.31 114.91 C-9.24 116.55, -12.16 118.18, -19 122 M-6.31 114.91 C-10.8 117.42, -15.3 119.93, -19 122" stroke="#1e1e1e" stroke-width="1" fill="none"></path></g></g><mask></mask><g transform="translate(629 50) rotate(0 23.90625 11.5)"><text x="0" y="0" font-family="Helvetica, Segoe UI Emoji" font-size="20px" fill="#1e1e1e" text-anchor="start" style="white-space: pre;" direction="ltr" dominant-baseline="text-before-edge">index</text></g><g stroke-linecap="round" transform="translate(710 110) rotate(0 50 80)"><path d="M0 0 C35.8 0, 71.61 0, 100 0 M0 0 C31.55 0, 63.1 0, 100 0 M100 0 C100 38.49, 100 76.97, 100 160 M100 0 C100 42.4, 100 84.79, 100 160 M100 160 C65.82 160, 31.64 160, 0 160 M100 160 C74.12 160, 48.24 160, 0 160 M0 160 C0 115.63, 0 71.26, 0 0 M0 160 C0 108.93, 0 57.86, 0 0" stroke="#1e1e1e" stroke-width="1" fill="none"></path></g><g transform="translate(710 90) rotate(0 46.1474609375 11.5)"><text x="0" y="0" font-family="Helvetica, Segoe UI Emoji" font-size="20px" fill="#1e1e1e" text-anchor="start" style="white-space: pre;" direction="ltr" dominant-baseline="text-before-edge">phys page</text></g><g stroke-linecap="round"><g transform="translate(590 190) rotate(0 60 -40)"><path d="M0 0 C31.33 0, 62.66 0, 80 0 M0 0 C29.65 0, 59.29 0, 80 0 M80 0 C90.06 -20.11, 100.11 -40.22, 120 -80 M80 0 C89.8 -19.61, 99.61 -39.22, 120 -80" stroke="#1e1e1e" stroke-width="1" fill="none"></path></g><g transform="translate(590 190) rotate(0 60 -40)"><path d="M117.14 -55.16 C118.26 -64.89, 119.38 -74.62, 120 -80 M117.14 -55.16 C118.2 -64.37, 119.26 -73.57, 120 -80" stroke="#1e1e1e" stroke-width="1" fill="none"></path></g><g transform="translate(590 190) rotate(0 60 -40)"><path d="M101.85 -62.81 C108.96 -69.54, 116.06 -76.27, 120 -80 M101.85 -62.81 C108.57 -69.18, 115.3 -75.55, 120 -80" stroke="#1e1e1e" stroke-width="1" fill="none"></path></g></g><mask></mask><g stroke-linecap="round" transform="translate(710 210) rotate(0 50 20)"><path d="M0 0 L100 0 L100 40 L0 40" stroke="none" stroke-width="0" fill="#e9ecef"></path><path d="M0 0 C22.92 0, 45.84 0, 100 0 M0 0 C31.61 0, 63.22 0, 100 0 M100 0 C100 10.39, 100 20.79, 100 40 M100 0 C100 10.63, 100 21.26, 100 40 M100 40 C66.65 40, 33.3 40, 0 40 M100 40 C66.3 40, 32.6 40, 0 40 M0 40 C0 29.12, 0 18.23, 0 0 M0 40 C0 24.13, 0 8.25, 0 0" stroke="#1e1e1e" stroke-width="1" fill="none"></path></g><g stroke-linecap="round"><g transform="translate(830 50) rotate(0 -10 81)"><path d="M0 0 C-0.38 52.66, -0.75 105.32, -1 140 M0 0 C-0.26 35.9, -0.51 71.8, -1 140 M-1 140 C-7.77 147.84, -14.54 155.68, -20 162 M-1 140 C-8.6 148.8, -16.2 157.6, -20 162" stroke="#1e1e1e" stroke-width="1" fill="none"></path></g><g transform="translate(830 50) rotate(0 -10 81)"><path d="M-14.84 148.41 C-16.78 153.52, -18.72 158.63, -20 162 M-14.84 148.41 C-16.16 151.9, -17.48 155.38, -20 162" stroke="#1e1e1e" stroke-width="1" fill="none"></path></g><g transform="translate(830 50) rotate(0 -10 81)"><path d="M-7.31 154.91 C-12.08 157.58, -16.86 160.24, -20 162 M-7.31 154.91 C-10.56 156.73, -13.82 158.55, -20 162" stroke="#1e1e1e" stroke-width="1" fill="none"></path></g></g><mask></mask><g transform="translate(850 50) rotate(0 24.4580078125 34.5)"><text x="0" y="0" font-family="Helvetica, Segoe UI Emoji" font-size="20px" fill="#1e1e1e" text-anchor="start" style="white-space: pre;" direction="ltr" dominant-baseline="text-before-edge">offset</text><text x="0" y="23" font-family="Helvetica, Segoe UI Emoji" font-size="20px" fill="#1e1e1e" text-anchor="start" style="white-space: pre;" direction="ltr" dominant-baseline="text-before-edge">in</text><text x="0" y="46" font-family="Helvetica, Segoe UI Emoji" font-size="20px" fill="#1e1e1e" text-anchor="start" style="white-space: pre;" direction="ltr" dominant-baseline="text-before-edge">page</text></g><g stroke-linecap="round"><g transform="translate(170 190) rotate(0 70 80)"><path d="M0 0 C39.91 45.61, 79.81 91.21, 140 160" stroke="#1e1e1e" stroke-width="1.5" fill="none" stroke-dasharray="1.5 7"></path></g><g transform="translate(170 190) rotate(0 70 80)"><path d="M118.1 147.95 C124.34 151.39, 130.58 154.82, 140 160" stroke="#1e1e1e" stroke-width="1.5" fill="none" stroke-dasharray="1.5 5"></path></g><g transform="translate(170 190) rotate(0 70 80)"><path d="M130.97 136.69 C133.54 143.33, 136.12 149.98, 140 160" stroke="#1e1e1e" stroke-width="1.5" fill="none" stroke-dasharray="1.5 5"></path></g></g><mask></mask><g stroke-linecap="round"><g transform="translate(370 190) rotate(0 70 80)"><path d="M0 0 C52.61 60.13, 105.23 120.26, 140 160" stroke="#1e1e1e" stroke-width="1.5" fill="none" stroke-dasharray="1.5 7"></path></g><g transform="translate(370 190) rotate(0 70 80)"><path d="M118.1 147.95 C126.33 152.48, 134.56 157.01, 140 160" stroke="#1e1e1e" stroke-width="1.5" fill="none" stroke-dasharray="1.5 5"></path></g><g transform="translate(370 190) rotate(0 70 80)"><path d="M130.97 136.69 C134.36 145.45, 137.76 154.21, 140 160" stroke="#1e1e1e" stroke-width="1.5" fill="none" stroke-dasharray="1.5 5"></path></g></g><mask></mask><g transform="translate(230 230) rotate(0 16.123046875 11.5)"><text x="0" y="0" font-family="Helvetica, Segoe UI Emoji" font-size="20px" fill="#1e1e1e" text-anchor="start" style="white-space: pre;" direction="ltr" dominant-baseline="text-before-edge">leaf</text></g><g transform="translate(430 230) rotate(0 16.123046875 11.5)"><text x="0" y="0" font-family="Helvetica, Segoe UI Emoji" font-size="20px" fill="#1e1e1e" text-anchor="start" style="white-space: pre;" direction="ltr" dominant-baseline="text-before-edge">leaf</text></g></svg>