<svg version="1.1" xmlns="http://www.w3.org/2000/svg" viewBox="0 0 933.6000671386719 457.2000274658203" width="933.6000671386719" height="457.2000274658203">
  <!-- svg-source:excalidraw -->
  
  <defs>
    <style class="style-fonts">
      @font-face {
        font-family: "Virgil";
        src: url("https://excalidraw.com/Virgil.woff2");
      }
      @font-face {
        font-family: "Cascadia";
        src: url("https://excalidraw.com/Cascadia.woff2");
      }
      @font-face {
        font-family: "Assistant";
        src: url("https://excalidraw.com/Assistant-Regular.woff2");
      }
    </style>
    
  </defs>
  <g stroke-linecap="round" transform="translate(130 11.800018310546875) rotate(0 37.60005187988281 16.5)"><path d="M8.25 0 C22.35 0, 36.45 0, 66.95 0 M8.25 0 C27.64 0, 47.03 0, 66.95 0 M66.95 0 C72.45 0, 75.2 2.75, 75.2 8.25 M66.95 0 C72.45 0, 75.2 2.75, 75.2 8.25 M75.2 8.25 C75.2 12.29, 75.2 16.33, 75.2 24.75 M75.2 8.25 C75.2 12.29, 75.2 16.32, 75.2 24.75 M75.2 24.75 C75.2 30.25, 72.45 33, 66.95 33 M75.2 24.75 C75.2 30.25, 72.45 33, 66.95 33 M66.95 33 C49.35 33, 31.75 33, 8.25 33 M66.95 33 C48.81 33, 30.66 33, 8.25 33 M8.25 33 C2.75 33, 0 30.25, 0 24.75 M8.25 33 C2.75 33, 0 30.25, 0 24.75 M0 24.75 C0 20.25, 0 15.75, 0 8.25 M0 24.75 C0 19.38, 0 14, 0 8.25 M0 8.25 C0 2.75, 2.75 0, 8.25 0 M0 8.25 C0 2.75, 2.75 0, 8.25 0" stroke="#1e1e1e" stroke-width="1" fill="none"></path></g><g transform="translate(157.0385284423828 16.800018310546875) rotate(0 10.5615234375 11.5)"><text x="10.5615234375" y="0" font-family="Helvetica, Segoe UI Emoji" font-size="20px" fill="#1e1e1e" text-anchor="middle" style="white-space: pre;" direction="ltr" dominant-baseline="text-before-edge">bit</text></g><g stroke-linecap="round" transform="translate(129.20004272460938 10) rotate(0 115.5999755859375 17.20001220703125)"><path d="M0 0 C58.81 0, 117.62 0, 231.2 0 M0 0 C91.55 0, 183.11 0, 231.2 0 M231.2 0 C231.2 11.07, 231.2 22.13, 231.2 34.4 M231.2 0 C231.2 7.71, 231.2 15.41, 231.2 34.4 M231.2 34.4 C156.68 34.4, 82.16 34.4, 0 34.4 M231.2 34.4 C161.04 34.4, 90.89 34.4, 0 34.4 M0 34.4 C0 21.26, 0 8.11, 0 0 M0 34.4 C0 24.96, 0 15.51, 0 0" stroke="#1e1e1e" stroke-width="1" fill="none"></path></g><g stroke-linecap="round" transform="translate(206.79994201660156 11.500015258789062) rotate(0 37.60005187988281 16.5)"><path d="M8.25 0 C20.11 0, 31.96 0, 66.95 0 M8.25 0 C28.32 0, 48.38 0, 66.95 0 M66.95 0 C72.45 0, 75.2 2.75, 75.2 8.25 M66.95 0 C72.45 0, 75.2 2.75, 75.2 8.25 M75.2 8.25 C75.2 12.86, 75.2 17.48, 75.2 24.75 M75.2 8.25 C75.2 13.66, 75.2 19.06, 75.2 24.75 M75.2 24.75 C75.2 30.25, 72.45 33, 66.95 33 M75.2 24.75 C75.2 30.25, 72.45 33, 66.95 33 M66.95 33 C44.47 33, 21.99 33, 8.25 33 M66.95 33 C52.73 33, 38.51 33, 8.25 33 M8.25 33 C2.75 33, 0 30.25, 0 24.75 M8.25 33 C2.75 33, 0 30.25, 0 24.75 M0 24.75 C0 19.72, 0 14.7, 0 8.25 M0 24.75 C0 18.95, 0 13.16, 0 8.25 M0 8.25 C0 2.75, 2.75 0, 8.25 0 M0 8.25 C0 2.75, 2.75 0, 8.25 0" stroke="#1e1e1e" stroke-width="1" fill="none"></path></g><g transform="translate(233.83847045898438 16.500015258789062) rotate(0 10.5615234375 11.5)"><text x="10.5615234375" y="0" font-family="Helvetica, Segoe UI Emoji" font-size="20px" fill="#1e1e1e" text-anchor="middle" style="white-space: pre;" direction="ltr" dominant-baseline="text-before-edge">bit</text></g><g stroke-linecap="round" transform="translate(283.39991760253906 11.300033569335938) rotate(0 37.60005187988281 16.5)"><path d="M8.25 0 C24.13 0, 40.01 0, 66.95 0 M8.25 0 C30.26 0, 52.26 0, 66.95 0 M66.95 0 C72.45 0, 75.2 2.75, 75.2 8.25 M66.95 0 C72.45 0, 75.2 2.75, 75.2 8.25 M75.2 8.25 C75.2 13.21, 75.2 18.17, 75.2 24.75 M75.2 8.25 C75.2 12.91, 75.2 17.57, 75.2 24.75 M75.2 24.75 C75.2 30.25, 72.45 33, 66.95 33 M75.2 24.75 C75.2 30.25, 72.45 33, 66.95 33 M66.95 33 C45.7 33, 24.45 33, 8.25 33 M66.95 33 C44.14 33, 21.33 33, 8.25 33 M8.25 33 C2.75 33, 0 30.25, 0 24.75 M8.25 33 C2.75 33, 0 30.25, 0 24.75 M0 24.75 C0 20.07, 0 15.39, 0 8.25 M0 24.75 C0 19.92, 0 15.1, 0 8.25 M0 8.25 C0 2.75, 2.75 0, 8.25 0 M0 8.25 C0 2.75, 2.75 0, 8.25 0" stroke="#1e1e1e" stroke-width="1" fill="none"></path></g><g transform="translate(312.6650085449219 16.300033569335938) rotate(0 8.3349609375 11.5)"><text x="8.3349609375" y="0" font-family="Helvetica, Segoe UI Emoji" font-size="20px" fill="#1e1e1e" text-anchor="middle" style="white-space: pre;" direction="ltr" dominant-baseline="text-before-edge">...</text></g><g stroke-linecap="round" transform="translate(130.39996337890625 113.00003051757812) rotate(0 37.60005187988281 16.5)"><path d="M8.25 0 C28.12 0, 47.99 0, 66.95 0 M8.25 0 C21.79 0, 35.32 0, 66.95 0 M66.95 0 C72.45 0, 75.2 2.75, 75.2 8.25 M66.95 0 C72.45 0, 75.2 2.75, 75.2 8.25 M75.2 8.25 C75.2 11.61, 75.2 14.97, 75.2 24.75 M75.2 8.25 C75.2 13.15, 75.2 18.06, 75.2 24.75 M75.2 24.75 C75.2 30.25, 72.45 33, 66.95 33 M75.2 24.75 C75.2 30.25, 72.45 33, 66.95 33 M66.95 33 C46.71 33, 26.48 33, 8.25 33 M66.95 33 C51.49 33, 36.04 33, 8.25 33 M8.25 33 C2.75 33, 0 30.25, 0 24.75 M8.25 33 C2.75 33, 0 30.25, 0 24.75 M0 24.75 C0 18.83, 0 12.91, 0 8.25 M0 24.75 C0 20.8, 0 16.84, 0 8.25 M0 8.25 C0 2.75, 2.75 0, 8.25 0 M0 8.25 C0 2.75, 2.75 0, 8.25 0" stroke="#1e1e1e" stroke-width="1" fill="none"></path></g><g transform="translate(157.43849182128906 118.00003051757812) rotate(0 10.5615234375 11.5)"><text x="10.5615234375" y="0" font-family="Helvetica, Segoe UI Emoji" font-size="20px" fill="#1e1e1e" text-anchor="middle" style="white-space: pre;" direction="ltr" dominant-baseline="text-before-edge">bit</text></g><g stroke-linecap="round" transform="translate(129.60000610351562 111.20001220703125) rotate(0 115.5999755859375 17.20001220703125)"><path d="M0 0 C53.94 0, 107.88 0, 231.2 0 M0 0 C78.59 0, 157.18 0, 231.2 0 M231.2 0 C231.2 11.55, 231.2 23.1, 231.2 34.4 M231.2 0 C231.2 8.47, 231.2 16.94, 231.2 34.4 M231.2 34.4 C146.54 34.4, 61.87 34.4, 0 34.4 M231.2 34.4 C157.45 34.4, 83.71 34.4, 0 34.4 M0 34.4 C0 25.35, 0 16.29, 0 0 M0 34.4 C0 22.74, 0 11.08, 0 0" stroke="#1e1e1e" stroke-width="1" fill="none"></path></g><g stroke-linecap="round" transform="translate(207.1999053955078 112.70002746582031) rotate(0 37.60005187988281 16.5)"><path d="M8.25 0 C31.29 0, 54.32 0, 66.95 0 M8.25 0 C26.87 0, 45.49 0, 66.95 0 M66.95 0 C72.45 0, 75.2 2.75, 75.2 8.25 M66.95 0 C72.45 0, 75.2 2.75, 75.2 8.25 M75.2 8.25 C75.2 14.14, 75.2 20.03, 75.2 24.75 M75.2 8.25 C75.2 13, 75.2 17.76, 75.2 24.75 M75.2 24.75 C75.2 30.25, 72.45 33, 66.95 33 M75.2 24.75 C75.2 30.25, 72.45 33, 66.95 33 M66.95 33 C43.86 33, 20.77 33, 8.25 33 M66.95 33 C45.78 33, 24.62 33, 8.25 33 M8.25 33 C2.75 33, 0 30.25, 0 24.75 M8.25 33 C2.75 33, 0 30.25, 0 24.75 M0 24.75 C0 20.76, 0 16.76, 0 8.25 M0 24.75 C0 20, 0 15.24, 0 8.25 M0 8.25 C0 2.75, 2.75 0, 8.25 0 M0 8.25 C0 2.75, 2.75 0, 8.25 0" stroke="#1e1e1e" stroke-width="1" fill="none"></path></g><g transform="translate(234.23843383789062 117.70002746582031) rotate(0 10.5615234375 11.5)"><text x="10.5615234375" y="0" font-family="Helvetica, Segoe UI Emoji" font-size="20px" fill="#1e1e1e" text-anchor="middle" style="white-space: pre;" direction="ltr" dominant-baseline="text-before-edge">bit</text></g><g stroke-linecap="round" transform="translate(283.7998809814453 112.50004577636719) rotate(0 37.60005187988281 16.5)"><path d="M8.25 0 C31.22 0, 54.19 0, 66.95 0 M8.25 0 C31.45 0, 54.66 0, 66.95 0 M66.95 0 C72.45 0, 75.2 2.75, 75.2 8.25 M66.95 0 C72.45 0, 75.2 2.75, 75.2 8.25 M75.2 8.25 C75.2 14.29, 75.2 20.33, 75.2 24.75 M75.2 8.25 C75.2 13.51, 75.2 18.78, 75.2 24.75 M75.2 24.75 C75.2 30.25, 72.45 33, 66.95 33 M75.2 24.75 C75.2 30.25, 72.45 33, 66.95 33 M66.95 33 C45.76 33, 24.56 33, 8.25 33 M66.95 33 C45.94 33, 24.92 33, 8.25 33 M8.25 33 C2.75 33, 0 30.25, 0 24.75 M8.25 33 C2.75 33, 0 30.25, 0 24.75 M0 24.75 C0 20.65, 0 16.55, 0 8.25 M0 24.75 C0 20.22, 0 15.69, 0 8.25 M0 8.25 C0 2.75, 2.75 0, 8.25 0 M0 8.25 C0 2.75, 2.75 0, 8.25 0" stroke="#1e1e1e" stroke-width="1" fill="none"></path></g><g transform="translate(313.0649719238281 117.50004577636719) rotate(0 8.3349609375 11.5)"><text x="8.3349609375" y="0" font-family="Helvetica, Segoe UI Emoji" font-size="20px" fill="#1e1e1e" text-anchor="middle" style="white-space: pre;" direction="ltr" dominant-baseline="text-before-edge">...</text></g><g stroke-linecap="round" transform="translate(394.7999267578125 114.00006103515625) rotate(0 37.60005187988281 16.5)"><path d="M8.25 0 C21.55 0, 34.86 0, 66.95 0 M8.25 0 C30.4 0, 52.54 0, 66.95 0 M66.95 0 C72.45 0, 75.2 2.75, 75.2 8.25 M66.95 0 C72.45 0, 75.2 2.75, 75.2 8.25 M75.2 8.25 C75.2 13.4, 75.2 18.56, 75.2 24.75 M75.2 8.25 C75.2 11.96, 75.2 15.67, 75.2 24.75 M75.2 24.75 C75.2 30.25, 72.45 33, 66.95 33 M75.2 24.75 C75.2 30.25, 72.45 33, 66.95 33 M66.95 33 C54.55 33, 42.14 33, 8.25 33 M66.95 33 C44.96 33, 22.97 33, 8.25 33 M8.25 33 C2.75 33, 0 30.25, 0 24.75 M8.25 33 C2.75 33, 0 30.25, 0 24.75 M0 24.75 C0 19.01, 0 13.27, 0 8.25 M0 24.75 C0 20.59, 0 16.44, 0 8.25 M0 8.25 C0 2.75, 2.75 0, 8.25 0 M0 8.25 C0 2.75, 2.75 0, 8.25 0" stroke="#1e1e1e" stroke-width="1" fill="none"></path></g><g transform="translate(421.8384552001953 119.00006103515625) rotate(0 10.5615234375 11.5)"><text x="10.5615234375" y="0" font-family="Helvetica, Segoe UI Emoji" font-size="20px" fill="#1e1e1e" text-anchor="middle" style="white-space: pre;" direction="ltr" dominant-baseline="text-before-edge">bit</text></g><g stroke-linecap="round" transform="translate(393.9999694824219 112.20004272460938) rotate(0 115.5999755859375 17.20001220703125)"><path d="M0 0 C53.71 0, 107.42 0, 231.2 0 M0 0 C84.61 0, 169.22 0, 231.2 0 M231.2 0 C231.2 12.77, 231.2 25.54, 231.2 34.4 M231.2 0 C231.2 9.32, 231.2 18.64, 231.2 34.4 M231.2 34.4 C155.54 34.4, 79.89 34.4, 0 34.4 M231.2 34.4 C161.12 34.4, 91.05 34.4, 0 34.4 M0 34.4 C0 27.21, 0 20.02, 0 0 M0 34.4 C0 26.79, 0 19.18, 0 0" stroke="#1e1e1e" stroke-width="1" fill="none"></path></g><g stroke-linecap="round" transform="translate(471.59986877441406 113.70005798339844) rotate(0 37.60005187988281 16.5)"><path d="M8.25 0 C20.38 0, 32.5 0, 66.95 0 M8.25 0 C24.73 0, 41.22 0, 66.95 0 M66.95 0 C72.45 0, 75.2 2.75, 75.2 8.25 M66.95 0 C72.45 0, 75.2 2.75, 75.2 8.25 M75.2 8.25 C75.2 13.57, 75.2 18.89, 75.2 24.75 M75.2 8.25 C75.2 13.08, 75.2 17.92, 75.2 24.75 M75.2 24.75 C75.2 30.25, 72.45 33, 66.95 33 M75.2 24.75 C75.2 30.25, 72.45 33, 66.95 33 M66.95 33 C45.65 33, 24.35 33, 8.25 33 M66.95 33 C53.83 33, 40.71 33, 8.25 33 M8.25 33 C2.75 33, 0 30.25, 0 24.75 M8.25 33 C2.75 33, 0 30.25, 0 24.75 M0 24.75 C0 18.17, 0 11.59, 0 8.25 M0 24.75 C0 18.35, 0 11.95, 0 8.25 M0 8.25 C0 2.75, 2.75 0, 8.25 0 M0 8.25 C0 2.75, 2.75 0, 8.25 0" stroke="#1e1e1e" stroke-width="1" fill="none"></path></g><g transform="translate(498.6383972167969 118.70005798339844) rotate(0 10.5615234375 11.5)"><text x="10.5615234375" y="0" font-family="Helvetica, Segoe UI Emoji" font-size="20px" fill="#1e1e1e" text-anchor="middle" style="white-space: pre;" direction="ltr" dominant-baseline="text-before-edge">bit</text></g><g stroke-linecap="round" transform="translate(548.1998443603516 113.50007629394531) rotate(0 37.60005187988281 16.5)"><path d="M8.25 0 C29.39 0, 50.53 0, 66.95 0 M8.25 0 C29.97 0, 51.68 0, 66.95 0 M66.95 0 C72.45 0, 75.2 2.75, 75.2 8.25 M66.95 0 C72.45 0, 75.2 2.75, 75.2 8.25 M75.2 8.25 C75.2 13.65, 75.2 19.05, 75.2 24.75 M75.2 8.25 C75.2 13.25, 75.2 18.25, 75.2 24.75 M75.2 24.75 C75.2 30.25, 72.45 33, 66.95 33 M75.2 24.75 C75.2 30.25, 72.45 33, 66.95 33 M66.95 33 C53.67 33, 40.38 33, 8.25 33 M66.95 33 C54.49 33, 42.04 33, 8.25 33 M8.25 33 C2.75 33, 0 30.25, 0 24.75 M8.25 33 C2.75 33, 0 30.25, 0 24.75 M0 24.75 C0 20.98, 0 17.2, 0 8.25 M0 24.75 C0 18.93, 0 13.11, 0 8.25 M0 8.25 C0 2.75, 2.75 0, 8.25 0 M0 8.25 C0 2.75, 2.75 0, 8.25 0" stroke="#1e1e1e" stroke-width="1" fill="none"></path></g><g transform="translate(577.4649353027344 118.50007629394531) rotate(0 8.3349609375 11.5)"><text x="8.3349609375" y="0" font-family="Helvetica, Segoe UI Emoji" font-size="20px" fill="#1e1e1e" text-anchor="middle" style="white-space: pre;" direction="ltr" dominant-baseline="text-before-edge">...</text></g><g stroke-linecap="round" transform="translate(659.5999755859375 114.40005493164062) rotate(0 37.60005187988281 16.5)"><path d="M8.25 0 C30.41 0, 52.57 0, 66.95 0 M8.25 0 C30.78 0, 53.31 0, 66.95 0 M66.95 0 C72.45 0, 75.2 2.75, 75.2 8.25 M66.95 0 C72.45 0, 75.2 2.75, 75.2 8.25 M75.2 8.25 C75.2 12.4, 75.2 16.55, 75.2 24.75 M75.2 8.25 C75.2 12.76, 75.2 17.26, 75.2 24.75 M75.2 24.75 C75.2 30.25, 72.45 33, 66.95 33 M75.2 24.75 C75.2 30.25, 72.45 33, 66.95 33 M66.95 33 C47.84 33, 28.73 33, 8.25 33 M66.95 33 C52.76 33, 38.57 33, 8.25 33 M8.25 33 C2.75 33, 0 30.25, 0 24.75 M8.25 33 C2.75 33, 0 30.25, 0 24.75 M0 24.75 C0 21.36, 0 17.97, 0 8.25 M0 24.75 C0 21.22, 0 17.69, 0 8.25 M0 8.25 C0 2.75, 2.75 0, 8.25 0 M0 8.25 C0 2.75, 2.75 0, 8.25 0" stroke="#1e1e1e" stroke-width="1" fill="none"></path></g><g transform="translate(688.8650665283203 119.40005493164062) rotate(0 8.3349609375 11.5)"><text x="8.3349609375" y="0" font-family="Helvetica, Segoe UI Emoji" font-size="20px" fill="#1e1e1e" text-anchor="middle" style="white-space: pre;" direction="ltr" dominant-baseline="text-before-edge">...</text></g><g stroke-linecap="round" transform="translate(658.8000183105469 112.60003662109375) rotate(0 115.5999755859375 17.20001220703125)"><path d="M0 0 C64.59 0, 129.18 0, 231.2 0 M0 0 C89.05 0, 178.11 0, 231.2 0 M231.2 0 C231.2 7.08, 231.2 14.16, 231.2 34.4 M231.2 0 C231.2 7.9, 231.2 15.8, 231.2 34.4 M231.2 34.4 C155.67 34.4, 80.13 34.4, 0 34.4 M231.2 34.4 C155.76 34.4, 80.31 34.4, 0 34.4 M0 34.4 C0 25.05, 0 15.7, 0 0 M0 34.4 C0 25.85, 0 17.29, 0 0" stroke="#1e1e1e" stroke-width="1" fill="none"></path></g><g stroke-linecap="round" transform="translate(736.3999176025391 114.10005187988281) rotate(0 37.60005187988281 16.5)"><path d="M8.25 0 C21.24 0, 34.23 0, 66.95 0 M8.25 0 C22.28 0, 36.31 0, 66.95 0 M66.95 0 C72.45 0, 75.2 2.75, 75.2 8.25 M66.95 0 C72.45 0, 75.2 2.75, 75.2 8.25 M75.2 8.25 C75.2 13.39, 75.2 18.52, 75.2 24.75 M75.2 8.25 C75.2 14.55, 75.2 20.85, 75.2 24.75 M75.2 24.75 C75.2 30.25, 72.45 33, 66.95 33 M75.2 24.75 C75.2 30.25, 72.45 33, 66.95 33 M66.95 33 C44.14 33, 21.32 33, 8.25 33 M66.95 33 C48.65 33, 30.35 33, 8.25 33 M8.25 33 C2.75 33, 0 30.25, 0 24.75 M8.25 33 C2.75 33, 0 30.25, 0 24.75 M0 24.75 C0 20.9, 0 17.06, 0 8.25 M0 24.75 C0 20.38, 0 16, 0 8.25 M0 8.25 C0 2.75, 2.75 0, 8.25 0 M0 8.25 C0 2.75, 2.75 0, 8.25 0" stroke="#1e1e1e" stroke-width="1" fill="none"></path></g><g transform="translate(765.6650085449219 119.10005187988281) rotate(0 8.3349609375 11.5)"><text x="8.3349609375" y="0" font-family="Helvetica, Segoe UI Emoji" font-size="20px" fill="#1e1e1e" text-anchor="middle" style="white-space: pre;" direction="ltr" dominant-baseline="text-before-edge">...</text></g><g stroke-linecap="round" transform="translate(812.9998931884766 113.90007019042969) rotate(0 37.60005187988281 16.5)"><path d="M8.25 0 C29.2 0, 50.14 0, 66.95 0 M8.25 0 C30.08 0, 51.92 0, 66.95 0 M66.95 0 C72.45 0, 75.2 2.75, 75.2 8.25 M66.95 0 C72.45 0, 75.2 2.75, 75.2 8.25 M75.2 8.25 C75.2 13.64, 75.2 19.03, 75.2 24.75 M75.2 8.25 C75.2 13.63, 75.2 19.02, 75.2 24.75 M75.2 24.75 C75.2 30.25, 72.45 33, 66.95 33 M75.2 24.75 C75.2 30.25, 72.45 33, 66.95 33 M66.95 33 C52.34 33, 37.74 33, 8.25 33 M66.95 33 C49.57 33, 32.19 33, 8.25 33 M8.25 33 C2.75 33, 0 30.25, 0 24.75 M8.25 33 C2.75 33, 0 30.25, 0 24.75 M0 24.75 C0 19.43, 0 14.11, 0 8.25 M0 24.75 C0 20.82, 0 16.88, 0 8.25 M0 8.25 C0 2.75, 2.75 0, 8.25 0 M0 8.25 C0 2.75, 2.75 0, 8.25 0" stroke="#1e1e1e" stroke-width="1" fill="none"></path></g><g transform="translate(842.2649841308594 118.90007019042969) rotate(0 8.3349609375 11.5)"><text x="8.3349609375" y="0" font-family="Helvetica, Segoe UI Emoji" font-size="20px" fill="#1e1e1e" text-anchor="middle" style="white-space: pre;" direction="ltr" dominant-baseline="text-before-edge">...</text></g><g stroke-linecap="round" transform="translate(132.79989624023438 306.10003662109375) rotate(0 37.60005187988281 16.5)"><path d="M8.25 0 C22.87 0, 37.49 0, 66.95 0 M8.25 0 C22.12 0, 36 0, 66.95 0 M66.95 0 C72.45 0, 75.2 2.75, 75.2 8.25 M66.95 0 C72.45 0, 75.2 2.75, 75.2 8.25 M75.2 8.25 C75.2 13.42, 75.2 18.6, 75.2 24.75 M75.2 8.25 C75.2 13.85, 75.2 19.45, 75.2 24.75 M75.2 24.75 C75.2 30.25, 72.45 33, 66.95 33 M75.2 24.75 C75.2 30.25, 72.45 33, 66.95 33 M66.95 33 C51.41 33, 35.88 33, 8.25 33 M66.95 33 C55.04 33, 43.13 33, 8.25 33 M8.25 33 C2.75 33, 0 30.25, 0 24.75 M8.25 33 C2.75 33, 0 30.25, 0 24.75 M0 24.75 C0 19.31, 0 13.86, 0 8.25 M0 24.75 C0 20.24, 0 15.73, 0 8.25 M0 8.25 C0 2.75, 2.75 0, 8.25 0 M0 8.25 C0 2.75, 2.75 0, 8.25 0" stroke="#1e1e1e" stroke-width="1" fill="none"></path></g><g transform="translate(159.8384246826172 311.10003662109375) rotate(0 10.5615234375 11.5)"><text x="10.5615234375" y="0" font-family="Helvetica, Segoe UI Emoji" font-size="20px" fill="#1e1e1e" text-anchor="middle" style="white-space: pre;" direction="ltr" dominant-baseline="text-before-edge">bit</text></g><g stroke-linecap="round" transform="translate(131.99993896484375 304.3000183105469) rotate(0 115.5999755859375 17.20001220703125)"><path d="M0 0 C76.38 0, 152.77 0, 231.2 0 M0 0 C60.97 0, 121.94 0, 231.2 0 M231.2 0 C231.2 13.73, 231.2 27.46, 231.2 34.4 M231.2 0 C231.2 10.28, 231.2 20.56, 231.2 34.4 M231.2 34.4 C167.95 34.4, 104.7 34.4, 0 34.4 M231.2 34.4 C147.36 34.4, 63.52 34.4, 0 34.4 M0 34.4 C0 25.86, 0 17.32, 0 0 M0 34.4 C0 26.38, 0 18.36, 0 0" stroke="#1e1e1e" stroke-width="1" fill="none"></path></g><g stroke-linecap="round" transform="translate(209.59983825683594 305.80003356933594) rotate(0 37.60005187988281 16.5)"><path d="M8.25 0 C29.55 0, 50.84 0, 66.95 0 M8.25 0 C20.05 0, 31.85 0, 66.95 0 M66.95 0 C72.45 0, 75.2 2.75, 75.2 8.25 M66.95 0 C72.45 0, 75.2 2.75, 75.2 8.25 M75.2 8.25 C75.2 13.25, 75.2 18.26, 75.2 24.75 M75.2 8.25 C75.2 14.25, 75.2 20.25, 75.2 24.75 M75.2 24.75 C75.2 30.25, 72.45 33, 66.95 33 M75.2 24.75 C75.2 30.25, 72.45 33, 66.95 33 M66.95 33 C46.11 33, 25.27 33, 8.25 33 M66.95 33 C52.2 33, 37.46 33, 8.25 33 M8.25 33 C2.75 33, 0 30.25, 0 24.75 M8.25 33 C2.75 33, 0 30.25, 0 24.75 M0 24.75 C0 18.43, 0 12.12, 0 8.25 M0 24.75 C0 18.84, 0 12.92, 0 8.25 M0 8.25 C0 2.75, 2.75 0, 8.25 0 M0 8.25 C0 2.75, 2.75 0, 8.25 0" stroke="#1e1e1e" stroke-width="1" fill="none"></path></g><g transform="translate(236.63836669921875 310.80003356933594) rotate(0 10.5615234375 11.5)"><text x="10.5615234375" y="0" font-family="Helvetica, Segoe UI Emoji" font-size="20px" fill="#1e1e1e" text-anchor="middle" style="white-space: pre;" direction="ltr" dominant-baseline="text-before-edge">bit</text></g><g stroke-linecap="round" transform="translate(286.19981384277344 305.6000518798828) rotate(0 37.60005187988281 16.5)"><path d="M8.25 0 C28.74 0, 49.23 0, 66.95 0 M8.25 0 C30.54 0, 52.82 0, 66.95 0 M66.95 0 C72.45 0, 75.2 2.75, 75.2 8.25 M66.95 0 C72.45 0, 75.2 2.75, 75.2 8.25 M75.2 8.25 C75.2 12.76, 75.2 17.28, 75.2 24.75 M75.2 8.25 C75.2 14.23, 75.2 20.22, 75.2 24.75 M75.2 24.75 C75.2 30.25, 72.45 33, 66.95 33 M75.2 24.75 C75.2 30.25, 72.45 33, 66.95 33 M66.95 33 C46.67 33, 26.38 33, 8.25 33 M66.95 33 C49.93 33, 32.92 33, 8.25 33 M8.25 33 C2.75 33, 0 30.25, 0 24.75 M8.25 33 C2.75 33, 0 30.25, 0 24.75 M0 24.75 C0 21.06, 0 17.36, 0 8.25 M0 24.75 C0 21.41, 0 18.07, 0 8.25 M0 8.25 C0 2.75, 2.75 0, 8.25 0 M0 8.25 C0 2.75, 2.75 0, 8.25 0" stroke="#1e1e1e" stroke-width="1" fill="none"></path></g><g transform="translate(315.46490478515625 310.6000518798828) rotate(0 8.3349609375 11.5)"><text x="8.3349609375" y="0" font-family="Helvetica, Segoe UI Emoji" font-size="20px" fill="#1e1e1e" text-anchor="middle" style="white-space: pre;" direction="ltr" dominant-baseline="text-before-edge">...</text></g><g stroke-linecap="round" transform="translate(397.1998596191406 307.1000671386719) rotate(0 37.60005187988281 16.5)"><path d="M8.25 0 C26.03 0, 43.81 0, 66.95 0 M8.25 0 C28.28 0, 48.3 0, 66.95 0 M66.95 0 C72.45 0, 75.2 2.75, 75.2 8.25 M66.95 0 C72.45 0, 75.2 2.75, 75.2 8.25 M75.2 8.25 C75.2 13.78, 75.2 19.3, 75.2 24.75 M75.2 8.25 C75.2 13.12, 75.2 17.99, 75.2 24.75 M75.2 24.75 C75.2 30.25, 72.45 33, 66.95 33 M75.2 24.75 C75.2 30.25, 72.45 33, 66.95 33 M66.95 33 C48.75 33, 30.55 33, 8.25 33 M66.95 33 C43.66 33, 20.37 33, 8.25 33 M8.25 33 C2.75 33, 0 30.25, 0 24.75 M8.25 33 C2.75 33, 0 30.25, 0 24.75 M0 24.75 C0 20.72, 0 16.69, 0 8.25 M0 24.75 C0 20.28, 0 15.8, 0 8.25 M0 8.25 C0 2.75, 2.75 0, 8.25 0 M0 8.25 C0 2.75, 2.75 0, 8.25 0" stroke="#1e1e1e" stroke-width="1" fill="none"></path></g><g transform="translate(424.23838806152344 312.1000671386719) rotate(0 10.5615234375 11.5)"><text x="10.5615234375" y="0" font-family="Helvetica, Segoe UI Emoji" font-size="20px" fill="#1e1e1e" text-anchor="middle" style="white-space: pre;" direction="ltr" dominant-baseline="text-before-edge">bit</text></g><g stroke-linecap="round" transform="translate(396.39990234375 305.300048828125) rotate(0 115.5999755859375 17.20001220703125)"><path d="M0 0 C92.26 0, 184.53 0, 231.2 0 M0 0 C69.07 0, 138.15 0, 231.2 0 M231.2 0 C231.2 9.41, 231.2 18.82, 231.2 34.4 M231.2 0 C231.2 12.47, 231.2 24.95, 231.2 34.4 M231.2 34.4 C173.79 34.4, 116.38 34.4, 0 34.4 M231.2 34.4 C177.31 34.4, 123.42 34.4, 0 34.4 M0 34.4 C0 21.31, 0 8.23, 0 0 M0 34.4 C0 20.68, 0 6.97, 0 0" stroke="#1e1e1e" stroke-width="1" fill="none"></path></g><g stroke-linecap="round" transform="translate(473.9998016357422 306.80006408691406) rotate(0 37.60005187988281 16.5)"><path d="M8.25 0 C20.61 0, 32.97 0, 66.95 0 M8.25 0 C23.79 0, 39.34 0, 66.95 0 M66.95 0 C72.45 0, 75.2 2.75, 75.2 8.25 M66.95 0 C72.45 0, 75.2 2.75, 75.2 8.25 M75.2 8.25 C75.2 13.81, 75.2 19.36, 75.2 24.75 M75.2 8.25 C75.2 14.21, 75.2 20.17, 75.2 24.75 M75.2 24.75 C75.2 30.25, 72.45 33, 66.95 33 M75.2 24.75 C75.2 30.25, 72.45 33, 66.95 33 M66.95 33 C52.57 33, 38.19 33, 8.25 33 M66.95 33 C48.73 33, 30.51 33, 8.25 33 M8.25 33 C2.75 33, 0 30.25, 0 24.75 M8.25 33 C2.75 33, 0 30.25, 0 24.75 M0 24.75 C0 20.78, 0 16.8, 0 8.25 M0 24.75 C0 20.08, 0 15.41, 0 8.25 M0 8.25 C0 2.75, 2.75 0, 8.25 0 M0 8.25 C0 2.75, 2.75 0, 8.25 0" stroke="#1e1e1e" stroke-width="1" fill="none"></path></g><g transform="translate(501.038330078125 311.80006408691406) rotate(0 10.5615234375 11.5)"><text x="10.5615234375" y="0" font-family="Helvetica, Segoe UI Emoji" font-size="20px" fill="#1e1e1e" text-anchor="middle" style="white-space: pre;" direction="ltr" dominant-baseline="text-before-edge">bit</text></g><g stroke-linecap="round" transform="translate(550.5997772216797 306.60008239746094) rotate(0 37.60005187988281 16.5)"><path d="M8.25 0 C30.54 0, 52.83 0, 66.95 0 M8.25 0 C23.93 0, 39.6 0, 66.95 0 M66.95 0 C72.45 0, 75.2 2.75, 75.2 8.25 M66.95 0 C72.45 0, 75.2 2.75, 75.2 8.25 M75.2 8.25 C75.2 12.35, 75.2 16.44, 75.2 24.75 M75.2 8.25 C75.2 12.1, 75.2 15.94, 75.2 24.75 M75.2 24.75 C75.2 30.25, 72.45 33, 66.95 33 M75.2 24.75 C75.2 30.25, 72.45 33, 66.95 33 M66.95 33 C54.64 33, 42.33 33, 8.25 33 M66.95 33 C52.3 33, 37.66 33, 8.25 33 M8.25 33 C2.75 33, 0 30.25, 0 24.75 M8.25 33 C2.75 33, 0 30.25, 0 24.75 M0 24.75 C0 20.91, 0 17.07, 0 8.25 M0 24.75 C0 20.38, 0 16.01, 0 8.25 M0 8.25 C0 2.75, 2.75 0, 8.25 0 M0 8.25 C0 2.75, 2.75 0, 8.25 0" stroke="#1e1e1e" stroke-width="1" fill="none"></path></g><g transform="translate(579.8648681640625 311.60008239746094) rotate(0 8.3349609375 11.5)"><text x="8.3349609375" y="0" font-family="Helvetica, Segoe UI Emoji" font-size="20px" fill="#1e1e1e" text-anchor="middle" style="white-space: pre;" direction="ltr" dominant-baseline="text-before-edge">...</text></g><g stroke-linecap="round" transform="translate(661.9999084472656 307.50006103515625) rotate(0 37.60005187988281 16.5)"><path d="M8.25 0 C26.05 0, 43.85 0, 66.95 0 M8.25 0 C29.6 0, 50.95 0, 66.95 0 M66.95 0 C72.45 0, 75.2 2.75, 75.2 8.25 M66.95 0 C72.45 0, 75.2 2.75, 75.2 8.25 M75.2 8.25 C75.2 14.11, 75.2 19.97, 75.2 24.75 M75.2 8.25 C75.2 12.39, 75.2 16.54, 75.2 24.75 M75.2 24.75 C75.2 30.25, 72.45 33, 66.95 33 M75.2 24.75 C75.2 30.25, 72.45 33, 66.95 33 M66.95 33 C44.48 33, 22.02 33, 8.25 33 M66.95 33 C45.91 33, 24.88 33, 8.25 33 M8.25 33 C2.75 33, 0 30.25, 0 24.75 M8.25 33 C2.75 33, 0 30.25, 0 24.75 M0 24.75 C0 18.47, 0 12.18, 0 8.25 M0 24.75 C0 20.64, 0 16.54, 0 8.25 M0 8.25 C0 2.75, 2.75 0, 8.25 0 M0 8.25 C0 2.75, 2.75 0, 8.25 0" stroke="#1e1e1e" stroke-width="1" fill="none"></path></g><g transform="translate(691.2649993896484 312.50006103515625) rotate(0 8.3349609375 11.5)"><text x="8.3349609375" y="0" font-family="Helvetica, Segoe UI Emoji" font-size="20px" fill="#1e1e1e" text-anchor="middle" style="white-space: pre;" direction="ltr" dominant-baseline="text-before-edge">...</text></g><g stroke-linecap="round" transform="translate(661.199951171875 305.7000427246094) rotate(0 115.5999755859375 17.20001220703125)"><path d="M0 0 C63.25 0, 126.5 0, 231.2 0 M0 0 C83.84 0, 167.68 0, 231.2 0 M231.2 0 C231.2 8.54, 231.2 17.08, 231.2 34.4 M231.2 0 C231.2 8.02, 231.2 16.04, 231.2 34.4 M231.2 34.4 C143.25 34.4, 55.31 34.4, 0 34.4 M231.2 34.4 C139.02 34.4, 46.84 34.4, 0 34.4 M0 34.4 C0 21.76, 0 9.11, 0 0 M0 34.4 C0 23.02, 0 11.64, 0 0" stroke="#1e1e1e" stroke-width="1" fill="none"></path></g><g stroke-linecap="round" transform="translate(738.7998504638672 307.20005798339844) rotate(0 37.60005187988281 16.5)"><path d="M8.25 0 C28.94 0, 49.64 0, 66.95 0 M8.25 0 C21.57 0, 34.89 0, 66.95 0 M66.95 0 C72.45 0, 75.2 2.75, 75.2 8.25 M66.95 0 C72.45 0, 75.2 2.75, 75.2 8.25 M75.2 8.25 C75.2 14.18, 75.2 20.11, 75.2 24.75 M75.2 8.25 C75.2 13.13, 75.2 18.01, 75.2 24.75 M75.2 24.75 C75.2 30.25, 72.45 33, 66.95 33 M75.2 24.75 C75.2 30.25, 72.45 33, 66.95 33 M66.95 33 C54.61 33, 42.28 33, 8.25 33 M66.95 33 C45.56 33, 24.16 33, 8.25 33 M8.25 33 C2.75 33, 0 30.25, 0 24.75 M8.25 33 C2.75 33, 0 30.25, 0 24.75 M0 24.75 C0 19.1, 0 13.45, 0 8.25 M0 24.75 C0 19.15, 0 13.55, 0 8.25 M0 8.25 C0 2.75, 2.75 0, 8.25 0 M0 8.25 C0 2.75, 2.75 0, 8.25 0" stroke="#1e1e1e" stroke-width="1" fill="none"></path></g><g transform="translate(768.06494140625 312.20005798339844) rotate(0 8.3349609375 11.5)"><text x="8.3349609375" y="0" font-family="Helvetica, Segoe UI Emoji" font-size="20px" fill="#1e1e1e" text-anchor="middle" style="white-space: pre;" direction="ltr" dominant-baseline="text-before-edge">...</text></g><g stroke-linecap="round" transform="translate(815.3998260498047 307.0000762939453) rotate(0 37.60005187988281 16.5)"><path d="M8.25 0 C21.95 0, 35.65 0, 66.95 0 M8.25 0 C22.05 0, 35.84 0, 66.95 0 M66.95 0 C72.45 0, 75.2 2.75, 75.2 8.25 M66.95 0 C72.45 0, 75.2 2.75, 75.2 8.25 M75.2 8.25 C75.2 14.53, 75.2 20.8, 75.2 24.75 M75.2 8.25 C75.2 14.83, 75.2 21.41, 75.2 24.75 M75.2 24.75 C75.2 30.25, 72.45 33, 66.95 33 M75.2 24.75 C75.2 30.25, 72.45 33, 66.95 33 M66.95 33 C55.16 33, 43.37 33, 8.25 33 M66.95 33 C43.79 33, 20.62 33, 8.25 33 M8.25 33 C2.75 33, 0 30.25, 0 24.75 M8.25 33 C2.75 33, 0 30.25, 0 24.75 M0 24.75 C0 20.39, 0 16.04, 0 8.25 M0 24.75 C0 19.17, 0 13.6, 0 8.25 M0 8.25 C0 2.75, 2.75 0, 8.25 0 M0 8.25 C0 2.75, 2.75 0, 8.25 0" stroke="#1e1e1e" stroke-width="1" fill="none"></path></g><g transform="translate(844.6649169921875 312.0000762939453) rotate(0 8.3349609375 11.5)"><text x="8.3349609375" y="0" font-family="Helvetica, Segoe UI Emoji" font-size="20px" fill="#1e1e1e" text-anchor="middle" style="white-space: pre;" direction="ltr" dominant-baseline="text-before-edge">...</text></g><g stroke-linecap="round"><g transform="translate(172.39999389648438 44.40003967285156) rotate(0 -0.399993896484375 33.19999694824219)"><path d="M0 0 C-0.22 18.22, -0.44 36.45, -0.8 66.4 M0 0 C-0.23 19.06, -0.46 38.11, -0.8 66.4" stroke="#1e1e1e" stroke-width="1" fill="none"></path></g><g transform="translate(172.39999389648438 44.40003967285156) rotate(0 -0.399993896484375 33.19999694824219)"><path d="M-9.07 42.81 C-6.8 49.28, -4.53 55.76, -0.8 66.4 M-9.07 42.81 C-6.69 49.58, -4.32 56.35, -0.8 66.4" stroke="#1e1e1e" stroke-width="1" fill="none"></path></g><g transform="translate(172.39999389648438 44.40003967285156) rotate(0 -0.399993896484375 33.19999694824219)"><path d="M8.03 43.01 C5.61 49.43, 3.18 55.85, -0.8 66.4 M8.03 43.01 C5.5 49.72, 2.96 56.44, -0.8 66.4" stroke="#1e1e1e" stroke-width="1" fill="none"></path></g></g><mask></mask><g stroke-linecap="round"><g transform="translate(250.79995727539062 47.60002136230469) rotate(0 82.80001831054688 27.600006103515625)"><path d="M0 0 C53.71 17.9, 107.42 35.81, 165.6 55.2 M0 0 C62.94 20.98, 125.88 41.96, 165.6 55.2" stroke="#1e1e1e" stroke-width="1" fill="none"></path></g><g transform="translate(250.79995727539062 47.60002136230469) rotate(0 82.80001831054688 27.600006103515625)"><path d="M140.61 55.88 C148.71 55.66, 156.82 55.44, 165.6 55.2 M140.61 55.88 C150.11 55.62, 159.61 55.36, 165.6 55.2" stroke="#1e1e1e" stroke-width="1" fill="none"></path></g><g transform="translate(250.79995727539062 47.60002136230469) rotate(0 82.80001831054688 27.600006103515625)"><path d="M146.02 39.66 C152.37 44.7, 158.72 49.74, 165.6 55.2 M146.02 39.66 C153.46 45.57, 160.9 51.47, 165.6 55.2" stroke="#1e1e1e" stroke-width="1" fill="none"></path></g></g><mask></mask><g stroke-linecap="round"><g transform="translate(345.1999816894531 44.40003967285156) rotate(0 174.00003051757812 29.599990844726562)"><path d="M0 0 C129.25 21.99, 258.5 43.98, 348 59.2 M0 0 C72.67 12.36, 145.34 24.72, 348 59.2" stroke="#1e1e1e" stroke-width="1" fill="none"></path></g><g transform="translate(345.1999816894531 44.40003967285156) rotate(0 174.00003051757812 29.599990844726562)"><path d="M323.41 63.69 C332.54 62.02, 341.68 60.35, 348 59.2 M323.41 63.69 C328.54 62.75, 333.68 61.81, 348 59.2" stroke="#1e1e1e" stroke-width="1" fill="none"></path></g><g transform="translate(345.1999816894531 44.40003967285156) rotate(0 174.00003051757812 29.599990844726562)"><path d="M326.27 46.83 C334.34 51.42, 342.41 56.02, 348 59.2 M326.27 46.83 C330.81 49.41, 335.35 52, 348 59.2" stroke="#1e1e1e" stroke-width="1" fill="none"></path></g></g><mask></mask><g stroke-linecap="round"><g transform="translate(170.80001831054688 152.40003967285156) rotate(0 0.399993896484375 18.399993896484375)"><path d="M0 0 C0.29 13.27, 0.58 26.53, 0.8 36.8 M0 0 C0.23 10.59, 0.46 21.17, 0.8 36.8" stroke="#1e1e1e" stroke-width="1" fill="none"></path></g><g transform="translate(170.80001831054688 152.40003967285156) rotate(0 0.399993896484375 18.399993896484375)"><path d="M-5.87 19.65 C-3.46 25.83, -1.06 32.01, 0.8 36.8 M-5.87 19.65 C-3.95 24.58, -2.03 29.52, 0.8 36.8" stroke="#1e1e1e" stroke-width="1" fill="none"></path></g><g transform="translate(170.80001831054688 152.40003967285156) rotate(0 0.399993896484375 18.399993896484375)"><path d="M6.72 19.37 C4.58 25.66, 2.45 31.94, 0.8 36.8 M6.72 19.37 C5.02 24.39, 3.31 29.4, 0.8 36.8" stroke="#1e1e1e" stroke-width="1" fill="none"></path></g></g><mask></mask><g stroke-linecap="round"><g transform="translate(172.79327818677996 238.40005493164068) rotate(0 0.08920928286664775 28.29998779296872)"><path d="M0 0 C0.04 12.37, 0.08 24.74, 0.18 56.6 M0 0 C0.05 16.09, 0.1 32.17, 0.18 56.6" stroke="#1e1e1e" stroke-width="1" fill="none"></path></g><g transform="translate(172.79327818677996 238.40005493164068) rotate(0 0.08920928286664775 28.29998779296872)"><path d="M-8.45 33.13 C-6.56 38.26, -4.68 43.39, 0.18 56.6 M-8.45 33.13 C-5.99 39.8, -3.54 46.47, 0.18 56.6" stroke="#1e1e1e" stroke-width="1" fill="none"></path></g><g transform="translate(172.79327818677996 238.40005493164068) rotate(0 0.08920928286664775 28.29998779296872)"><path d="M8.65 33.08 C6.8 38.22, 4.95 43.36, 0.18 56.6 M8.65 33.08 C6.25 39.77, 3.84 46.45, 0.18 56.6" stroke="#1e1e1e" stroke-width="1" fill="none"></path></g></g><mask></mask><g stroke-linecap="round"><g transform="translate(246.79986572265625 238.4000244140625) rotate(0 72.78682596746427 29.300003051757812)"><path d="M0 0 C33.52 13.49, 67.04 26.99, 145.57 58.6 M0 0 C36.41 14.66, 72.81 29.31, 145.57 58.6" stroke="#1e1e1e" stroke-width="1" fill="none"></path></g><g transform="translate(246.79986572265625 238.4000244140625) rotate(0 72.78682596746427 29.300003051757812)"><path d="M120.59 57.76 C126.34 57.95, 132.09 58.15, 145.57 58.6 M120.59 57.76 C126.84 57.97, 133.09 58.18, 145.57 58.6" stroke="#1e1e1e" stroke-width="1" fill="none"></path></g><g transform="translate(246.79986572265625 238.4000244140625) rotate(0 72.78682596746427 29.300003051757812)"><path d="M126.97 41.9 C131.26 45.74, 135.54 49.59, 145.57 58.6 M126.97 41.9 C131.63 46.07, 136.28 50.25, 145.57 58.6" stroke="#1e1e1e" stroke-width="1" fill="none"></path></g></g><mask></mask><g stroke-linecap="round"><g transform="translate(337.99993896484375 238.40005493164062) rotate(0 158.7929441917454 30.89996337890625)"><path d="M0 0 C101.35 19.72, 202.71 39.45, 317.59 61.8 M0 0 C91.92 17.89, 183.84 35.77, 317.59 61.8" stroke="#1e1e1e" stroke-width="1" fill="none"></path></g><g transform="translate(337.99993896484375 238.40005493164062) rotate(0 158.7929441917454 30.89996337890625)"><path d="M292.89 65.71 C300.77 64.46, 308.65 63.21, 317.59 61.8 M292.89 65.71 C300.04 64.58, 307.19 63.44, 317.59 61.8" stroke="#1e1e1e" stroke-width="1" fill="none"></path></g><g transform="translate(337.99993896484375 238.40005493164062) rotate(0 158.7929441917454 30.89996337890625)"><path d="M296.16 48.92 C303 53.03, 309.84 57.14, 317.59 61.8 M296.16 48.92 C302.36 52.65, 308.56 56.38, 317.59 61.8" stroke="#1e1e1e" stroke-width="1" fill="none"></path></g></g><mask></mask><g stroke-linecap="round" transform="translate(130.99993896484375 200.00003051757812) rotate(0 37.60005187988281 16.5)"><path d="M8.25 0 C29.68 0, 51.11 0, 66.95 0 M8.25 0 C25.55 0, 42.85 0, 66.95 0 M66.95 0 C72.45 0, 75.2 2.75, 75.2 8.25 M66.95 0 C72.45 0, 75.2 2.75, 75.2 8.25 M75.2 8.25 C75.2 14.78, 75.2 21.3, 75.2 24.75 M75.2 8.25 C75.2 13.06, 75.2 17.87, 75.2 24.75 M75.2 24.75 C75.2 30.25, 72.45 33, 66.95 33 M75.2 24.75 C75.2 30.25, 72.45 33, 66.95 33 M66.95 33 C49.31 33, 31.66 33, 8.25 33 M66.95 33 C54.35 33, 41.75 33, 8.25 33 M8.25 33 C2.75 33, 0 30.25, 0 24.75 M8.25 33 C2.75 33, 0 30.25, 0 24.75 M0 24.75 C0 19.21, 0 13.67, 0 8.25 M0 24.75 C0 19.14, 0 13.52, 0 8.25 M0 8.25 C0 2.75, 2.75 0, 8.25 0 M0 8.25 C0 2.75, 2.75 0, 8.25 0" stroke="#1e1e1e" stroke-width="1" fill="none"></path></g><g transform="translate(160.26502990722656 205.00003051757812) rotate(0 8.3349609375 11.5)"><text x="8.3349609375" y="0" font-family="Helvetica, Segoe UI Emoji" font-size="20px" fill="#1e1e1e" text-anchor="middle" style="white-space: pre;" direction="ltr" dominant-baseline="text-before-edge">...</text></g><g stroke-linecap="round" transform="translate(130.19998168945312 198.20001220703125) rotate(0 115.5999755859375 17.20001220703125)"><path d="M0 0 C60.18 0, 120.35 0, 231.2 0 M0 0 C71.56 0, 143.13 0, 231.2 0 M231.2 0 C231.2 7.09, 231.2 14.18, 231.2 34.4 M231.2 0 C231.2 12.24, 231.2 24.48, 231.2 34.4 M231.2 34.4 C163.89 34.4, 96.59 34.4, 0 34.4 M231.2 34.4 C147.2 34.4, 63.2 34.4, 0 34.4 M0 34.4 C0 25.81, 0 17.21, 0 0 M0 34.4 C0 25.93, 0 17.47, 0 0" stroke="#1e1e1e" stroke-width="1" fill="none"></path></g><g stroke-linecap="round" transform="translate(207.7998809814453 199.7000274658203) rotate(0 37.60005187988281 16.5)"><path d="M8.25 0 C23.4 0, 38.55 0, 66.95 0 M8.25 0 C24.34 0, 40.43 0, 66.95 0 M66.95 0 C72.45 0, 75.2 2.75, 75.2 8.25 M66.95 0 C72.45 0, 75.2 2.75, 75.2 8.25 M75.2 8.25 C75.2 13.69, 75.2 19.13, 75.2 24.75 M75.2 8.25 C75.2 13.33, 75.2 18.4, 75.2 24.75 M75.2 24.75 C75.2 30.25, 72.45 33, 66.95 33 M75.2 24.75 C75.2 30.25, 72.45 33, 66.95 33 M66.95 33 C44.65 33, 22.36 33, 8.25 33 M66.95 33 C46.49 33, 26.03 33, 8.25 33 M8.25 33 C2.75 33, 0 30.25, 0 24.75 M8.25 33 C2.75 33, 0 30.25, 0 24.75 M0 24.75 C0 20.05, 0 15.34, 0 8.25 M0 24.75 C0 20.77, 0 16.79, 0 8.25 M0 8.25 C0 2.75, 2.75 0, 8.25 0 M0 8.25 C0 2.75, 2.75 0, 8.25 0" stroke="#1e1e1e" stroke-width="1" fill="none"></path></g><g transform="translate(237.06497192382812 204.7000274658203) rotate(0 8.3349609375 11.5)"><text x="8.3349609375" y="0" font-family="Helvetica, Segoe UI Emoji" font-size="20px" fill="#1e1e1e" text-anchor="middle" style="white-space: pre;" direction="ltr" dominant-baseline="text-before-edge">...</text></g><g stroke-linecap="round" transform="translate(284.3998565673828 199.5000457763672) rotate(0 37.60005187988281 16.5)"><path d="M8.25 0 C22.24 0, 36.22 0, 66.95 0 M8.25 0 C23.05 0, 37.85 0, 66.95 0 M66.95 0 C72.45 0, 75.2 2.75, 75.2 8.25 M66.95 0 C72.45 0, 75.2 2.75, 75.2 8.25 M75.2 8.25 C75.2 13.05, 75.2 17.86, 75.2 24.75 M75.2 8.25 C75.2 14.24, 75.2 20.24, 75.2 24.75 M75.2 24.75 C75.2 30.25, 72.45 33, 66.95 33 M75.2 24.75 C75.2 30.25, 72.45 33, 66.95 33 M66.95 33 C53.55 33, 40.16 33, 8.25 33 M66.95 33 C50.6 33, 34.25 33, 8.25 33 M8.25 33 C2.75 33, 0 30.25, 0 24.75 M8.25 33 C2.75 33, 0 30.25, 0 24.75 M0 24.75 C0 18.92, 0 13.08, 0 8.25 M0 24.75 C0 19.4, 0 14.06, 0 8.25 M0 8.25 C0 2.75, 2.75 0, 8.25 0 M0 8.25 C0 2.75, 2.75 0, 8.25 0" stroke="#1e1e1e" stroke-width="1" fill="none"></path></g><g transform="translate(313.6649475097656 204.5000457763672) rotate(0 8.3349609375 11.5)"><text x="8.3349609375" y="0" font-family="Helvetica, Segoe UI Emoji" font-size="20px" fill="#1e1e1e" text-anchor="middle" style="white-space: pre;" direction="ltr" dominant-baseline="text-before-edge">...</text></g><g stroke-linecap="round" transform="translate(396.4000244140625 201.4000244140625) rotate(0 37.60005187988281 16.5)"><path d="M8.25 0 C23.42 0, 38.59 0, 66.95 0 M8.25 0 C28.59 0, 48.93 0, 66.95 0 M66.95 0 C72.45 0, 75.2 2.75, 75.2 8.25 M66.95 0 C72.45 0, 75.2 2.75, 75.2 8.25 M75.2 8.25 C75.2 14.64, 75.2 21.02, 75.2 24.75 M75.2 8.25 C75.2 12.4, 75.2 16.55, 75.2 24.75 M75.2 24.75 C75.2 30.25, 72.45 33, 66.95 33 M75.2 24.75 C75.2 30.25, 72.45 33, 66.95 33 M66.95 33 C48.7 33, 30.44 33, 8.25 33 M66.95 33 C44.76 33, 22.56 33, 8.25 33 M8.25 33 C2.75 33, 0 30.25, 0 24.75 M8.25 33 C2.75 33, 0 30.25, 0 24.75 M0 24.75 C0 18.24, 0 11.74, 0 8.25 M0 24.75 C0 20.07, 0 15.39, 0 8.25 M0 8.25 C0 2.75, 2.75 0, 8.25 0 M0 8.25 C0 2.75, 2.75 0, 8.25 0" stroke="#1e1e1e" stroke-width="1" fill="none"></path></g><g transform="translate(425.6651153564453 206.4000244140625) rotate(0 8.3349609375 11.5)"><text x="8.3349609375" y="0" font-family="Helvetica, Segoe UI Emoji" font-size="20px" fill="#1e1e1e" text-anchor="middle" style="white-space: pre;" direction="ltr" dominant-baseline="text-before-edge">...</text></g><g stroke-linecap="round" transform="translate(395.6000671386719 199.60000610351562) rotate(0 115.5999755859375 17.20001220703125)"><path d="M0 0 C51.44 0, 102.87 0, 231.2 0 M0 0 C79.03 0, 158.06 0, 231.2 0 M231.2 0 C231.2 13.68, 231.2 27.35, 231.2 34.4 M231.2 0 C231.2 12.53, 231.2 25.06, 231.2 34.4 M231.2 34.4 C145.38 34.4, 59.55 34.4, 0 34.4 M231.2 34.4 C177.73 34.4, 124.27 34.4, 0 34.4 M0 34.4 C0 20.82, 0 7.24, 0 0 M0 34.4 C0 24.15, 0 13.9, 0 0" stroke="#1e1e1e" stroke-width="1" fill="none"></path></g><g stroke-linecap="round" transform="translate(473.19996643066406 201.1000213623047) rotate(0 37.60005187988281 16.5)"><path d="M8.25 0 C24.44 0, 40.63 0, 66.95 0 M8.25 0 C28.72 0, 49.2 0, 66.95 0 M66.95 0 C72.45 0, 75.2 2.75, 75.2 8.25 M66.95 0 C72.45 0, 75.2 2.75, 75.2 8.25 M75.2 8.25 C75.2 13.58, 75.2 18.92, 75.2 24.75 M75.2 8.25 C75.2 14.82, 75.2 21.39, 75.2 24.75 M75.2 24.75 C75.2 30.25, 72.45 33, 66.95 33 M75.2 24.75 C75.2 30.25, 72.45 33, 66.95 33 M66.95 33 C50.08 33, 33.21 33, 8.25 33 M66.95 33 C44.35 33, 21.74 33, 8.25 33 M8.25 33 C2.75 33, 0 30.25, 0 24.75 M8.25 33 C2.75 33, 0 30.25, 0 24.75 M0 24.75 C0 20.83, 0 16.91, 0 8.25 M0 24.75 C0 21.44, 0 18.14, 0 8.25 M0 8.25 C0 2.75, 2.75 0, 8.25 0 M0 8.25 C0 2.75, 2.75 0, 8.25 0" stroke="#1e1e1e" stroke-width="1" fill="none"></path></g><g transform="translate(502.4650573730469 206.1000213623047) rotate(0 8.3349609375 11.5)"><text x="8.3349609375" y="0" font-family="Helvetica, Segoe UI Emoji" font-size="20px" fill="#1e1e1e" text-anchor="middle" style="white-space: pre;" direction="ltr" dominant-baseline="text-before-edge">...</text></g><g stroke-linecap="round" transform="translate(549.7999420166016 200.90003967285156) rotate(0 37.60005187988281 16.5)"><path d="M8.25 0 C25.3 0, 42.35 0, 66.95 0 M8.25 0 C20.45 0, 32.66 0, 66.95 0 M66.95 0 C72.45 0, 75.2 2.75, 75.2 8.25 M66.95 0 C72.45 0, 75.2 2.75, 75.2 8.25 M75.2 8.25 C75.2 14.38, 75.2 20.5, 75.2 24.75 M75.2 8.25 C75.2 12.07, 75.2 15.88, 75.2 24.75 M75.2 24.75 C75.2 30.25, 72.45 33, 66.95 33 M75.2 24.75 C75.2 30.25, 72.45 33, 66.95 33 M66.95 33 C52.81 33, 38.68 33, 8.25 33 M66.95 33 C48.95 33, 30.95 33, 8.25 33 M8.25 33 C2.75 33, 0 30.25, 0 24.75 M8.25 33 C2.75 33, 0 30.25, 0 24.75 M0 24.75 C0 18.94, 0 13.12, 0 8.25 M0 24.75 C0 18.97, 0 13.19, 0 8.25 M0 8.25 C0 2.75, 2.75 0, 8.25 0 M0 8.25 C0 2.75, 2.75 0, 8.25 0" stroke="#1e1e1e" stroke-width="1" fill="none"></path></g><g transform="translate(579.0650329589844 205.90003967285156) rotate(0 8.3349609375 11.5)"><text x="8.3349609375" y="0" font-family="Helvetica, Segoe UI Emoji" font-size="20px" fill="#1e1e1e" text-anchor="middle" style="white-space: pre;" direction="ltr" dominant-baseline="text-before-edge">...</text></g><g stroke-linecap="round" transform="translate(661.5999755859375 200.40005493164062) rotate(0 37.60005187988281 16.5)"><path d="M8.25 0 C31.23 0, 54.21 0, 66.95 0 M8.25 0 C27.71 0, 47.18 0, 66.95 0 M66.95 0 C72.45 0, 75.2 2.75, 75.2 8.25 M66.95 0 C72.45 0, 75.2 2.75, 75.2 8.25 M75.2 8.25 C75.2 14.53, 75.2 20.81, 75.2 24.75 M75.2 8.25 C75.2 13.85, 75.2 19.45, 75.2 24.75 M75.2 24.75 C75.2 30.25, 72.45 33, 66.95 33 M75.2 24.75 C75.2 30.25, 72.45 33, 66.95 33 M66.95 33 C51.21 33, 35.47 33, 8.25 33 M66.95 33 C45.72 33, 24.49 33, 8.25 33 M8.25 33 C2.75 33, 0 30.25, 0 24.75 M8.25 33 C2.75 33, 0 30.25, 0 24.75 M0 24.75 C0 19.24, 0 13.74, 0 8.25 M0 24.75 C0 19.52, 0 14.29, 0 8.25 M0 8.25 C0 2.75, 2.75 0, 8.25 0 M0 8.25 C0 2.75, 2.75 0, 8.25 0" stroke="#1e1e1e" stroke-width="1" fill="none"></path></g><g transform="translate(690.8650665283203 205.40005493164062) rotate(0 8.3349609375 11.5)"><text x="8.3349609375" y="0" font-family="Helvetica, Segoe UI Emoji" font-size="20px" fill="#1e1e1e" text-anchor="middle" style="white-space: pre;" direction="ltr" dominant-baseline="text-before-edge">...</text></g><g stroke-linecap="round" transform="translate(660.8000183105469 198.60003662109375) rotate(0 115.5999755859375 17.20001220703125)"><path d="M0 0 C82.02 0, 164.04 0, 231.2 0 M0 0 C52.18 0, 104.37 0, 231.2 0 M231.2 0 C231.2 10.74, 231.2 21.47, 231.2 34.4 M231.2 0 C231.2 11.1, 231.2 22.19, 231.2 34.4 M231.2 34.4 C171.76 34.4, 112.33 34.4, 0 34.4 M231.2 34.4 C141.58 34.4, 51.96 34.4, 0 34.4 M0 34.4 C0 20.67, 0 6.94, 0 0 M0 34.4 C0 23.62, 0 12.85, 0 0" stroke="#1e1e1e" stroke-width="1" fill="none"></path></g><g stroke-linecap="round" transform="translate(738.3999176025391 200.1000518798828) rotate(0 37.60005187988281 16.5)"><path d="M8.25 0 C31.7 0, 55.16 0, 66.95 0 M8.25 0 C28.59 0, 48.92 0, 66.95 0 M66.95 0 C72.45 0, 75.2 2.75, 75.2 8.25 M66.95 0 C72.45 0, 75.2 2.75, 75.2 8.25 M75.2 8.25 C75.2 12.05, 75.2 15.85, 75.2 24.75 M75.2 8.25 C75.2 14.65, 75.2 21.05, 75.2 24.75 M75.2 24.75 C75.2 30.25, 72.45 33, 66.95 33 M75.2 24.75 C75.2 30.25, 72.45 33, 66.95 33 M66.95 33 C53.09 33, 39.23 33, 8.25 33 M66.95 33 C52.66 33, 38.37 33, 8.25 33 M8.25 33 C2.75 33, 0 30.25, 0 24.75 M8.25 33 C2.75 33, 0 30.25, 0 24.75 M0 24.75 C0 21.27, 0 17.78, 0 8.25 M0 24.75 C0 21.36, 0 17.96, 0 8.25 M0 8.25 C0 2.75, 2.75 0, 8.25 0 M0 8.25 C0 2.75, 2.75 0, 8.25 0" stroke="#1e1e1e" stroke-width="1" fill="none"></path></g><g transform="translate(767.6650085449219 205.1000518798828) rotate(0 8.3349609375 11.5)"><text x="8.3349609375" y="0" font-family="Helvetica, Segoe UI Emoji" font-size="20px" fill="#1e1e1e" text-anchor="middle" style="white-space: pre;" direction="ltr" dominant-baseline="text-before-edge">...</text></g><g stroke-linecap="round" transform="translate(814.9998931884766 199.9000701904297) rotate(0 37.60005187988281 16.5)"><path d="M8.25 0 C28 0, 47.75 0, 66.95 0 M8.25 0 C31.27 0, 54.29 0, 66.95 0 M66.95 0 C72.45 0, 75.2 2.75, 75.2 8.25 M66.95 0 C72.45 0, 75.2 2.75, 75.2 8.25 M75.2 8.25 C75.2 12.49, 75.2 16.73, 75.2 24.75 M75.2 8.25 C75.2 14.65, 75.2 21.04, 75.2 24.75 M75.2 24.75 C75.2 30.25, 72.45 33, 66.95 33 M75.2 24.75 C75.2 30.25, 72.45 33, 66.95 33 M66.95 33 C48.83 33, 30.7 33, 8.25 33 M66.95 33 C53.02 33, 39.09 33, 8.25 33 M8.25 33 C2.75 33, 0 30.25, 0 24.75 M8.25 33 C2.75 33, 0 30.25, 0 24.75 M0 24.75 C0 18.55, 0 12.35, 0 8.25 M0 24.75 C0 20.58, 0 16.41, 0 8.25 M0 8.25 C0 2.75, 2.75 0, 8.25 0 M0 8.25 C0 2.75, 2.75 0, 8.25 0" stroke="#1e1e1e" stroke-width="1" fill="none"></path></g><g transform="translate(844.2649841308594 204.9000701904297) rotate(0 8.3349609375 11.5)"><text x="8.3349609375" y="0" font-family="Helvetica, Segoe UI Emoji" font-size="20px" fill="#1e1e1e" text-anchor="middle" style="white-space: pre;" direction="ltr" dominant-baseline="text-before-edge">...</text></g><g stroke-linecap="round" transform="translate(134.00003051757812 413.6000518798828) rotate(0 36.79998779296875 16.79998779296875)"><path d="M0 0 C20.74 0, 41.49 0, 73.6 0 M0 0 C16.45 0, 32.9 0, 73.6 0 M73.6 0 C73.6 9.8, 73.6 19.6, 73.6 33.6 M73.6 0 C73.6 9.12, 73.6 18.23, 73.6 33.6 M73.6 33.6 C48.79 33.6, 23.99 33.6, 0 33.6 M73.6 33.6 C55.7 33.6, 37.8 33.6, 0 33.6 M0 33.6 C0 24.79, 0 15.97, 0 0 M0 33.6 C0 21.27, 0 8.93, 0 0" stroke="#1e1e1e" stroke-width="1" fill="none"></path></g><g transform="translate(148.55392456054688 418.90003967285156) rotate(0 22.24609375 11.5)"><text x="22.24609375" y="0" font-family="Helvetica, Segoe UI Emoji" font-size="20px" fill="#1e1e1e" text-anchor="middle" style="white-space: pre;" direction="ltr" dominant-baseline="text-before-edge">page</text></g><g stroke-linecap="round" transform="translate(209.00003051757812 413.2000274658203) rotate(0 36.79998779296875 16.79998779296875)"><path d="M0 0 C23.24 0, 46.47 0, 73.6 0 M0 0 C24.48 0, 48.95 0, 73.6 0 M73.6 0 C73.6 8.89, 73.6 17.79, 73.6 33.6 M73.6 0 C73.6 7.98, 73.6 15.95, 73.6 33.6 M73.6 33.6 C48.76 33.6, 23.93 33.6, 0 33.6 M73.6 33.6 C46.4 33.6, 19.19 33.6, 0 33.6 M0 33.6 C0 24.72, 0 15.83, 0 0 M0 33.6 C0 23.86, 0 14.12, 0 0" stroke="#1e1e1e" stroke-width="1" fill="none"></path></g><g transform="translate(223.55392456054688 418.50001525878906) rotate(0 22.24609375 11.5)"><text x="22.24609375" y="0" font-family="Helvetica, Segoe UI Emoji" font-size="20px" fill="#1e1e1e" text-anchor="middle" style="white-space: pre;" direction="ltr" dominant-baseline="text-before-edge">page</text></g><g stroke-linecap="round" transform="translate(283.7999572753906 412.2000274658203) rotate(0 36.79998779296875 16.79998779296875)"><path d="M0 0 C23.39 0, 46.79 0, 73.6 0 M0 0 C21.81 0, 43.62 0, 73.6 0 M73.6 0 C73.6 13.33, 73.6 26.67, 73.6 33.6 M73.6 0 C73.6 8.24, 73.6 16.49, 73.6 33.6 M73.6 33.6 C55.98 33.6, 38.36 33.6, 0 33.6 M73.6 33.6 C56.95 33.6, 40.29 33.6, 0 33.6 M0 33.6 C0 23.64, 0 13.67, 0 0 M0 33.6 C0 25.07, 0 16.54, 0 0" stroke="#1e1e1e" stroke-width="1" fill="none"></path></g><g transform="translate(298.3538513183594 417.50001525878906) rotate(0 22.24609375 11.5)"><text x="22.24609375" y="0" font-family="Helvetica, Segoe UI Emoji" font-size="20px" fill="#1e1e1e" text-anchor="middle" style="white-space: pre;" direction="ltr" dominant-baseline="text-before-edge">page</text></g><g stroke-linecap="round"><g transform="translate(87.60000610351562 374.00001525878906) rotate(0 418.0000305175781 0.4000244140625)"><path d="M0 0 C287.87 0.28, 575.74 0.55, 836 0.8" stroke="#1e1e1e" stroke-width="1.5" fill="none" stroke-dasharray="1.5 7"></path></g></g><mask></mask><g stroke-linecap="round"><g transform="translate(170.00003051757812 349.2000274658203) rotate(0 0 24.399993896484375)"><path d="M0 0 C0 9.94, 0 19.88, 0 48.8 M0 0 C0 17.44, 0 34.89, 0 48.8" stroke="#1e1e1e" stroke-width="1" fill="none"></path></g><g transform="translate(170.00003051757812 349.2000274658203) rotate(0 0 24.399993896484375)"><path d="M-8.35 25.87 C-6.65 30.54, -4.95 35.21, 0 48.8 M-8.35 25.87 C-5.36 34.07, -2.38 42.26, 0 48.8" stroke="#1e1e1e" stroke-width="1" fill="none"></path></g><g transform="translate(170.00003051757812 349.2000274658203) rotate(0 0 24.399993896484375)"><path d="M8.35 25.87 C6.65 30.54, 4.95 35.21, 0 48.8 M8.35 25.87 C5.36 34.07, 2.38 42.26, 0 48.8" stroke="#1e1e1e" stroke-width="1" fill="none"></path></g></g><mask></mask><g stroke-linecap="round"><g transform="translate(245.19998168945312 350.40000915527344) rotate(0 0 24.399993896484375)"><path d="M0 0 C0 11.3, 0 22.59, 0 48.8 M0 0 C0 19.38, 0 38.76, 0 48.8" stroke="#1e1e1e" stroke-width="1" fill="none"></path></g><g transform="translate(245.19998168945312 350.40000915527344) rotate(0 0 24.399993896484375)"><path d="M-8.35 25.87 C-6.41 31.18, -4.48 36.49, 0 48.8 M-8.35 25.87 C-5.03 34.98, -1.72 44.08, 0 48.8" stroke="#1e1e1e" stroke-width="1" fill="none"></path></g><g transform="translate(245.19998168945312 350.40000915527344) rotate(0 0 24.399993896484375)"><path d="M8.35 25.87 C6.41 31.18, 4.48 36.49, 0 48.8 M8.35 25.87 C5.03 34.98, 1.72 44.08, 0 48.8" stroke="#1e1e1e" stroke-width="1" fill="none"></path></g></g><mask></mask><g stroke-linecap="round"><g transform="translate(323.8000183105469 349.60008239746094) rotate(0 0 24.399993896484375)"><path d="M0 0 C0 10.92, 0 21.84, 0 48.8 M0 0 C0 10.34, 0 20.68, 0 48.8" stroke="#1e1e1e" stroke-width="1" fill="none"></path></g><g transform="translate(323.8000183105469 349.60008239746094) rotate(0 0 24.399993896484375)"><path d="M-8.35 25.87 C-6.48 31, -4.61 36.13, 0 48.8 M-8.35 25.87 C-6.58 30.73, -4.81 35.59, 0 48.8" stroke="#1e1e1e" stroke-width="1" fill="none"></path></g><g transform="translate(323.8000183105469 349.60008239746094) rotate(0 0 24.399993896484375)"><path d="M8.35 25.87 C6.48 31, 4.61 36.13, 0 48.8 M8.35 25.87 C6.58 30.73, 4.81 35.59, 0 48.8" stroke="#1e1e1e" stroke-width="1" fill="none"></path></g></g><mask></mask><g transform="translate(10 14.000045776367188) rotate(0 36.6845703125 11.5)"><text x="0" y="0" font-family="Helvetica, Segoe UI Emoji" font-size="20px" fill="#1e1e1e" text-anchor="start" style="white-space: pre;" direction="ltr" dominant-baseline="text-before-edge">1st level</text></g><g transform="translate(10 119.90003967285156) rotate(0 36.6845703125 11.5)"><text x="0" y="0" font-family="Helvetica, Segoe UI Emoji" font-size="20px" fill="#1e1e1e" text-anchor="start" style="white-space: pre;" direction="ltr" dominant-baseline="text-before-edge">2st level</text></g><g transform="translate(10 207.5000457763672) rotate(0 37.24609375 11.5)"><text x="0" y="0" font-family="Helvetica, Segoe UI Emoji" font-size="20px" fill="#1e1e1e" text-anchor="start" style="white-space: pre;" direction="ltr" dominant-baseline="text-before-edge">nth level</text></g><g transform="translate(10 310.50001525878906) rotate(0 39.4677734375 11.5)"><text x="0" y="0" font-family="Helvetica, Segoe UI Emoji" font-size="20px" fill="#1e1e1e" text-anchor="start" style="white-space: pre;" direction="ltr" dominant-baseline="text-before-edge">leaf level</text></g></svg>