<svg version="1.1" xmlns="http://www.w3.org/2000/svg" viewBox="0 0 1174.453125 244" width="1174.453125" height="244">
  <!-- svg-source:excalidraw -->
  
  <defs>
    <style class="style-fonts">
      @font-face {
        font-family: "Virgil";
        src: url("https://excalidraw.com/Virgil.woff2");
      }
      @font-face {
        font-family: "Cascadia";
        src: url("https://excalidraw.com/Cascadia.woff2");
      }
      @font-face {
        font-family: "Assistant";
        src: url("https://excalidraw.com/Assistant-Regular.woff2");
      }
    </style>
    
  </defs>
  <rect x="0" y="0" width="1174.453125" height="244" fill="#ffffff"></rect><g stroke-linecap="round" transform="translate(10 74) rotate(0 30 30)"><path d="M0 0 C14.5 0, 29.01 0, 60 0 M0 0 C14.66 0, 29.31 0, 60 0 M60 0 C60 14.01, 60 28.02, 60 60 M60 0 C60 14.1, 60 28.19, 60 60 M60 60 C40.58 60, 21.15 60, 0 60 M60 60 C37.91 60, 15.82 60, 0 60 M0 60 C0 44.63, 0 29.26, 0 0 M0 60 C0 36.52, 0 13.04, 0 0" stroke="#1e1e1e" stroke-width="1" fill="none"></path></g><g transform="translate(17.75390625 92.5) rotate(0 22.24609375 11.5)"><text x="22.24609375" y="0" font-family="Helvetica, Segoe UI Emoji" font-size="20px" fill="#1e1e1e" text-anchor="middle" style="white-space: pre;" direction="ltr" dominant-baseline="text-before-edge">head</text></g><g stroke-linecap="round" transform="translate(130 74) rotate(0 30 30)"><path d="M0 0 C16.67 0, 33.34 0, 60 0 M0 0 C17.57 0, 35.14 0, 60 0 M60 0 C60 20.71, 60 41.42, 60 60 M60 0 C60 12.02, 60 24.04, 60 60 M60 60 C45.28 60, 30.56 60, 0 60 M60 60 C44.28 60, 28.55 60, 0 60 M0 60 C0 37.6, 0 15.19, 0 0 M0 60 C0 37.01, 0 14.01, 0 0" stroke="#1e1e1e" stroke-width="1" fill="none"></path></g><g transform="translate(137.75390625 92.5) rotate(0 22.24609375 11.5)"><text x="22.24609375" y="0" font-family="Helvetica, Segoe UI Emoji" font-size="20px" fill="#1e1e1e" text-anchor="middle" style="white-space: pre;" direction="ltr" dominant-baseline="text-before-edge">node</text></g><g stroke-linecap="round" transform="translate(250 74) rotate(0 30 30)"><path d="M0 0 C15.42 0, 30.84 0, 60 0 M0 0 C22.84 0, 45.68 0, 60 0 M60 0 C60 22.34, 60 44.68, 60 60 M60 0 C60 14.98, 60 29.95, 60 60 M60 60 C46 60, 32 60, 0 60 M60 60 C42.59 60, 25.17 60, 0 60 M0 60 C0 42.8, 0 25.59, 0 0 M0 60 C0 40.12, 0 20.24, 0 0" stroke="#1e1e1e" stroke-width="1" fill="none"></path></g><g transform="translate(257.75390625 92.5) rotate(0 22.24609375 11.5)"><text x="22.24609375" y="0" font-family="Helvetica, Segoe UI Emoji" font-size="20px" fill="#1e1e1e" text-anchor="middle" style="white-space: pre;" direction="ltr" dominant-baseline="text-before-edge">node</text></g><g stroke-linecap="round" transform="translate(370 74) rotate(0 30 30)"><path d="M0 0 C12.2 0, 24.4 0, 60 0 M0 0 C22.4 0, 44.81 0, 60 0 M60 0 C60 12.09, 60 24.18, 60 60 M60 0 C60 22.25, 60 44.5, 60 60 M60 60 C36.02 60, 12.03 60, 0 60 M60 60 C47.91 60, 35.81 60, 0 60 M0 60 C0 36.47, 0 12.93, 0 0 M0 60 C0 40.22, 0 20.45, 0 0" stroke="#1e1e1e" stroke-width="1" fill="none"></path></g><g transform="translate(377.75390625 92.5) rotate(0 22.24609375 11.5)"><text x="22.24609375" y="0" font-family="Helvetica, Segoe UI Emoji" font-size="20px" fill="#1e1e1e" text-anchor="middle" style="white-space: pre;" direction="ltr" dominant-baseline="text-before-edge">node</text></g><g transform="translate(490 94) rotate(0 17.2265625 11.5)"><text x="0" y="0" font-family="Helvetica, Segoe UI Emoji" font-size="20px" fill="#1e1e1e" text-anchor="start" style="white-space: pre;" direction="ltr" dominant-baseline="text-before-edge">Null</text></g><g stroke-linecap="round"><g transform="translate(70 94) rotate(0 30 0)"><path d="M0 0 C23.53 0, 47.07 0, 60 0 M0 0 C19.78 0, 39.55 0, 60 0" stroke="#1e1e1e" stroke-width="2" fill="none"></path></g><g transform="translate(70 94) rotate(0 30 0)"><path d="M36.51 8.55 C45.72 5.2, 54.94 1.84, 60 0 M36.51 8.55 C44.25 5.73, 51.99 2.91, 60 0" stroke="#1e1e1e" stroke-width="2" fill="none"></path></g><g transform="translate(70 94) rotate(0 30 0)"><path d="M36.51 -8.55 C45.72 -5.2, 54.94 -1.84, 60 0 M36.51 -8.55 C44.25 -5.73, 51.99 -2.91, 60 0" stroke="#1e1e1e" stroke-width="2" fill="none"></path></g></g><mask></mask><g stroke-linecap="round"><g transform="translate(190 94) rotate(0 30 0)"><path d="M0 0 C12.33 0, 24.65 0, 60 0 M0 0 C22.62 0, 45.23 0, 60 0" stroke="#1e1e1e" stroke-width="2" fill="none"></path></g><g transform="translate(190 94) rotate(0 30 0)"><path d="M36.51 8.55 C41.33 6.79, 46.16 5.04, 60 0 M36.51 8.55 C45.36 5.33, 54.22 2.1, 60 0" stroke="#1e1e1e" stroke-width="2" fill="none"></path></g><g transform="translate(190 94) rotate(0 30 0)"><path d="M36.51 -8.55 C41.33 -6.79, 46.16 -5.04, 60 0 M36.51 -8.55 C45.36 -5.33, 54.22 -2.1, 60 0" stroke="#1e1e1e" stroke-width="2" fill="none"></path></g></g><mask></mask><g stroke-linecap="round"><g transform="translate(310 94) rotate(0 30 0)"><path d="M0 0 C21.13 0, 42.26 0, 60 0 M0 0 C22.58 0, 45.15 0, 60 0" stroke="#1e1e1e" stroke-width="2" fill="none"></path></g><g transform="translate(310 94) rotate(0 30 0)"><path d="M36.51 8.55 C44.78 5.54, 53.05 2.53, 60 0 M36.51 8.55 C45.35 5.33, 54.19 2.12, 60 0" stroke="#1e1e1e" stroke-width="2" fill="none"></path></g><g transform="translate(310 94) rotate(0 30 0)"><path d="M36.51 -8.55 C44.78 -5.54, 53.05 -2.53, 60 0 M36.51 -8.55 C45.35 -5.33, 54.19 -2.12, 60 0" stroke="#1e1e1e" stroke-width="2" fill="none"></path></g></g><mask></mask><g stroke-linecap="round"><g transform="translate(431 94) rotate(0 29.5 0)"><path d="M0 0 C13.31 0, 26.63 0, 59 0 M0 0 C15.08 0, 30.16 0, 59 0" stroke="#1e1e1e" stroke-width="2" fill="none"></path></g><g transform="translate(431 94) rotate(0 29.5 0)"><path d="M35.51 8.55 C40.81 6.62, 46.11 4.69, 59 0 M35.51 8.55 C41.51 6.36, 47.52 4.18, 59 0" stroke="#1e1e1e" stroke-width="2" fill="none"></path></g><g transform="translate(431 94) rotate(0 29.5 0)"><path d="M35.51 -8.55 C40.81 -6.62, 46.11 -4.69, 59 0 M35.51 -8.55 C41.51 -6.36, 47.52 -4.18, 59 0" stroke="#1e1e1e" stroke-width="2" fill="none"></path></g></g><mask></mask><g stroke-linecap="round" transform="translate(130 174) rotate(0 50 30)"><path d="M0 0 C21.25 0, 42.5 0, 100 0 M0 0 C32.77 0, 65.55 0, 100 0 M100 0 C100 15.96, 100 31.91, 100 60 M100 0 C100 22.48, 100 44.97, 100 60 M100 60 C63.48 60, 26.97 60, 0 60 M100 60 C75.37 60, 50.73 60, 0 60 M0 60 C0 40.35, 0 20.71, 0 0 M0 60 C0 46.64, 0 33.28, 0 0" stroke="#1e1e1e" stroke-width="1" fill="none"></path></g><g transform="translate(156.6552734375 192.5) rotate(0 23.3447265625 11.5)"><text x="23.3447265625" y="0" font-family="Helvetica, Segoe UI Emoji" font-size="20px" fill="#1e1e1e" text-anchor="middle" style="white-space: pre;" direction="ltr" dominant-baseline="text-before-edge">block</text></g><g stroke-linecap="round" transform="translate(250 174) rotate(0 50 30)"><path d="M0 0 C37.82 0, 75.64 0, 100 0 M0 0 C23.86 0, 47.71 0, 100 0 M100 0 C100 18.12, 100 36.24, 100 60 M100 0 C100 18.85, 100 37.7, 100 60 M100 60 C60.82 60, 21.64 60, 0 60 M100 60 C76.45 60, 52.9 60, 0 60 M0 60 C0 43.02, 0 26.04, 0 0 M0 60 C0 44.96, 0 29.93, 0 0" stroke="#1e1e1e" stroke-width="1" fill="none"></path></g><g transform="translate(276.6552734375 192.5) rotate(0 23.3447265625 11.5)"><text x="23.3447265625" y="0" font-family="Helvetica, Segoe UI Emoji" font-size="20px" fill="#1e1e1e" text-anchor="middle" style="white-space: pre;" direction="ltr" dominant-baseline="text-before-edge">block</text></g><g stroke-linecap="round" transform="translate(370 174) rotate(0 50 30)"><path d="M0 0 C38.71 0, 77.42 0, 100 0 M0 0 C29.27 0, 58.55 0, 100 0 M100 0 C100 17.62, 100 35.24, 100 60 M100 0 C100 21.73, 100 43.45, 100 60 M100 60 C79.54 60, 59.08 60, 0 60 M100 60 C64.18 60, 28.35 60, 0 60 M0 60 C0 40.83, 0 21.65, 0 0 M0 60 C0 40.48, 0 20.95, 0 0" stroke="#1e1e1e" stroke-width="1" fill="none"></path></g><g transform="translate(396.6552734375 192.5) rotate(0 23.3447265625 11.5)"><text x="23.3447265625" y="0" font-family="Helvetica, Segoe UI Emoji" font-size="20px" fill="#1e1e1e" text-anchor="middle" style="white-space: pre;" direction="ltr" dominant-baseline="text-before-edge">block</text></g><g stroke-linecap="round"><g transform="translate(150 135) rotate(0 0 19)"><path d="M0 0 C0 8.7, 0 17.4, 0 38 M0 0 C0 10.08, 0 20.16, 0 38" stroke="#1e1e1e" stroke-width="1" fill="none"></path></g><g transform="translate(150 135) rotate(0 0 19)"><path d="M-6.5 20.15 C-5.01 24.23, -3.52 28.32, 0 38 M-6.5 20.15 C-4.77 24.88, -3.05 29.62, 0 38" stroke="#1e1e1e" stroke-width="1" fill="none"></path></g><g transform="translate(150 135) rotate(0 0 19)"><path d="M6.5 20.15 C5.01 24.23, 3.52 28.32, 0 38 M6.5 20.15 C4.77 24.88, 3.05 29.62, 0 38" stroke="#1e1e1e" stroke-width="1" fill="none"></path></g></g><mask></mask><g stroke-linecap="round"><g transform="translate(270 135) rotate(0 0 19)"><path d="M0 0 C0 7.95, 0 15.89, 0 38 M0 0 C0 14.76, 0 29.53, 0 38" stroke="#1e1e1e" stroke-width="1" fill="none"></path></g><g transform="translate(270 135) rotate(0 0 19)"><path d="M-6.5 20.15 C-5.14 23.88, -3.78 27.61, 0 38 M-6.5 20.15 C-3.97 27.08, -1.45 34.02, 0 38" stroke="#1e1e1e" stroke-width="1" fill="none"></path></g><g transform="translate(270 135) rotate(0 0 19)"><path d="M6.5 20.15 C5.14 23.88, 3.78 27.61, 0 38 M6.5 20.15 C3.97 27.08, 1.45 34.02, 0 38" stroke="#1e1e1e" stroke-width="1" fill="none"></path></g></g><mask></mask><g stroke-linecap="round"><g transform="translate(390 135) rotate(0 0 19)"><path d="M0 0 C0 8.93, 0 17.85, 0 38 M0 0 C0 10.74, 0 21.48, 0 38" stroke="#1e1e1e" stroke-width="1" fill="none"></path></g><g transform="translate(390 135) rotate(0 0 19)"><path d="M-6.5 20.15 C-4.97 24.34, -3.45 28.53, 0 38 M-6.5 20.15 C-4.66 25.19, -2.82 30.24, 0 38" stroke="#1e1e1e" stroke-width="1" fill="none"></path></g><g transform="translate(390 135) rotate(0 0 19)"><path d="M6.5 20.15 C4.97 24.34, 3.45 28.53, 0 38 M6.5 20.15 C4.66 25.19, 2.82 30.24, 0 38" stroke="#1e1e1e" stroke-width="1" fill="none"></path></g></g><mask></mask><g stroke-linecap="round" transform="translate(710 74) rotate(0 50 80)"><path d="M0 0 C27.37 0, 54.75 0, 100 0 M0 0 C20.64 0, 41.28 0, 100 0 M100 0 C100 51.19, 100 102.39, 100 160 M100 0 C100 56.85, 100 113.71, 100 160 M100 160 C65.39 160, 30.78 160, 0 160 M100 160 C76.24 160, 52.47 160, 0 160 M0 160 C0 102.48, 0 44.96, 0 0 M0 160 C0 99.29, 0 38.58, 0 0" stroke="#1e1e1e" stroke-width="1" fill="none"></path></g><g transform="translate(736.6552734375 206) rotate(0 23.3447265625 11.5)"><text x="23.3447265625" y="0" font-family="Helvetica, Segoe UI Emoji" font-size="20px" fill="#1e1e1e" text-anchor="middle" style="white-space: pre;" direction="ltr" dominant-baseline="text-before-edge">block</text></g><g stroke-linecap="round" transform="translate(850 74) rotate(0 50 80)"><path d="M0 0 C27.84 0, 55.68 0, 100 0 M0 0 C31.56 0, 63.12 0, 100 0 M100 0 C100 32.27, 100 64.54, 100 160 M100 0 C100 48.69, 100 97.39, 100 160 M100 160 C76.18 160, 52.37 160, 0 160 M100 160 C69.93 160, 39.85 160, 0 160 M0 160 C0 122.45, 0 84.9, 0 0 M0 160 C0 126.9, 0 93.8, 0 0" stroke="#1e1e1e" stroke-width="1" fill="none"></path></g><g transform="translate(876.6552734375 206) rotate(0 23.3447265625 11.5)"><text x="23.3447265625" y="0" font-family="Helvetica, Segoe UI Emoji" font-size="20px" fill="#1e1e1e" text-anchor="middle" style="white-space: pre;" direction="ltr" dominant-baseline="text-before-edge">block</text></g><g stroke-linecap="round" transform="translate(990 74) rotate(0 50 80)"><path d="M0 0 C39.22 0, 78.43 0, 100 0 M0 0 C29.3 0, 58.6 0, 100 0 M100 0 C100 58.53, 100 117.06, 100 160 M100 0 C100 35.56, 100 71.11, 100 160 M100 160 C69.66 160, 39.31 160, 0 160 M100 160 C66.54 160, 33.08 160, 0 160 M0 160 C0 103.34, 0 46.68, 0 0 M0 160 C0 120.69, 0 81.38, 0 0" stroke="#1e1e1e" stroke-width="1" fill="none"></path></g><g transform="translate(1016.6552734375 206) rotate(0 23.3447265625 11.5)"><text x="23.3447265625" y="0" font-family="Helvetica, Segoe UI Emoji" font-size="20px" fill="#1e1e1e" text-anchor="middle" style="white-space: pre;" direction="ltr" dominant-baseline="text-before-edge">block</text></g><g stroke-linecap="round" transform="translate(610 74) rotate(0 30 30)"><path d="M0 0 C12.4 0, 24.81 0, 60 0 M0 0 C23.2 0, 46.4 0, 60 0 M60 0 C60 15.01, 60 30.01, 60 60 M60 0 C60 15.98, 60 31.96, 60 60 M60 60 C44.02 60, 28.05 60, 0 60 M60 60 C47.55 60, 35.09 60, 0 60 M0 60 C0 45.89, 0 31.78, 0 0 M0 60 C0 41.2, 0 22.4, 0 0" stroke="#1e1e1e" stroke-width="1" fill="none"></path></g><g transform="translate(617.75390625 92.5) rotate(0 22.24609375 11.5)"><text x="22.24609375" y="0" font-family="Helvetica, Segoe UI Emoji" font-size="20px" fill="#1e1e1e" text-anchor="middle" style="white-space: pre;" direction="ltr" dominant-baseline="text-before-edge">head</text></g><g stroke-linecap="round" transform="translate(710 74) rotate(0 30 30)"><path d="M0 0 C17.91 0, 35.82 0, 60 0 M0 0 C18.31 0, 36.63 0, 60 0 M60 0 C60 16.51, 60 33.03, 60 60 M60 0 C60 13.09, 60 26.18, 60 60 M60 60 C47.78 60, 35.56 60, 0 60 M60 60 C36.86 60, 13.71 60, 0 60 M0 60 C0 36.61, 0 13.23, 0 0 M0 60 C0 40.83, 0 21.67, 0 0" stroke="#1e1e1e" stroke-width="1" fill="none"></path></g><g transform="translate(717.75390625 92.5) rotate(0 22.24609375 11.5)"><text x="22.24609375" y="0" font-family="Helvetica, Segoe UI Emoji" font-size="20px" fill="#1e1e1e" text-anchor="middle" style="white-space: pre;" direction="ltr" dominant-baseline="text-before-edge">node</text></g><g stroke-linecap="round" transform="translate(850 74) rotate(0 30 30)"><path d="M0 0 C15.49 0, 30.99 0, 60 0 M0 0 C17.17 0, 34.34 0, 60 0 M60 0 C60 14.07, 60 28.15, 60 60 M60 0 C60 18.45, 60 36.91, 60 60 M60 60 C39.43 60, 18.87 60, 0 60 M60 60 C44.59 60, 29.18 60, 0 60 M0 60 C0 38.86, 0 17.72, 0 0 M0 60 C0 41.01, 0 22.03, 0 0" stroke="#1e1e1e" stroke-width="1" fill="none"></path></g><g transform="translate(857.75390625 92.5) rotate(0 22.24609375 11.5)"><text x="22.24609375" y="0" font-family="Helvetica, Segoe UI Emoji" font-size="20px" fill="#1e1e1e" text-anchor="middle" style="white-space: pre;" direction="ltr" dominant-baseline="text-before-edge">node</text></g><g stroke-linecap="round" transform="translate(990 74) rotate(0 30 30)"><path d="M0 0 C23.24 0, 46.48 0, 60 0 M0 0 C14.88 0, 29.76 0, 60 0 M60 0 C60 22.26, 60 44.52, 60 60 M60 0 C60 14.95, 60 29.89, 60 60 M60 60 C36.42 60, 12.85 60, 0 60 M60 60 C47.61 60, 35.21 60, 0 60 M0 60 C0 46.59, 0 33.17, 0 0 M0 60 C0 45.84, 0 31.68, 0 0" stroke="#1e1e1e" stroke-width="1" fill="none"></path></g><g transform="translate(997.75390625 92.5) rotate(0 22.24609375 11.5)"><text x="22.24609375" y="0" font-family="Helvetica, Segoe UI Emoji" font-size="20px" fill="#1e1e1e" text-anchor="middle" style="white-space: pre;" direction="ltr" dominant-baseline="text-before-edge">node</text></g><g transform="translate(1130 94) rotate(0 17.2265625 11.5)"><text x="0" y="0" font-family="Helvetica, Segoe UI Emoji" font-size="20px" fill="#1e1e1e" text-anchor="start" style="white-space: pre;" direction="ltr" dominant-baseline="text-before-edge">Null</text></g><g stroke-linecap="round"><g transform="translate(671 94) rotate(0 19 0)"><path d="M0 0 C10.46 0, 20.92 0, 38 0 M0 0 C8.29 0, 16.58 0, 38 0" stroke="#1e1e1e" stroke-width="2" fill="none"></path></g><g transform="translate(671 94) rotate(0 19 0)"><path d="M20.15 6.5 C25.06 4.71, 29.97 2.92, 38 0 M20.15 6.5 C24.04 5.08, 27.94 3.66, 38 0" stroke="#1e1e1e" stroke-width="2" fill="none"></path></g><g transform="translate(671 94) rotate(0 19 0)"><path d="M20.15 -6.5 C25.06 -4.71, 29.97 -2.92, 38 0 M20.15 -6.5 C24.04 -5.08, 27.94 -3.66, 38 0" stroke="#1e1e1e" stroke-width="2" fill="none"></path></g></g><mask></mask><g stroke-linecap="round"><g transform="translate(771 94) rotate(0 39 0)"><path d="M0 0 C24.02 0, 48.05 0, 78 0 M0 0 C20.6 0, 41.21 0, 78 0" stroke="#1e1e1e" stroke-width="2" fill="none"></path></g><g transform="translate(771 94) rotate(0 39 0)"><path d="M54.51 8.55 C61.74 5.92, 68.98 3.28, 78 0 M54.51 8.55 C60.71 6.29, 66.92 4.03, 78 0" stroke="#1e1e1e" stroke-width="2" fill="none"></path></g><g transform="translate(771 94) rotate(0 39 0)"><path d="M54.51 -8.55 C61.74 -5.92, 68.98 -3.28, 78 0 M54.51 -8.55 C60.71 -6.29, 66.92 -4.03, 78 0" stroke="#1e1e1e" stroke-width="2" fill="none"></path></g></g><mask></mask><g stroke-linecap="round"><g transform="translate(911 93.99999999998704) rotate(0 39 4.263256414560601e-12)"><path d="M0 0 C18.29 0, 36.59 0, 78 0 M0 0 C23.99 0, 47.98 0, 78 0" stroke="#1e1e1e" stroke-width="2" fill="none"></path></g><g transform="translate(911 93.99999999998704) rotate(0 39 4.263256414560601e-12)"><path d="M54.51 8.55 C60.02 6.54, 65.53 4.54, 78 0 M54.51 8.55 C61.73 5.92, 68.96 3.29, 78 0" stroke="#1e1e1e" stroke-width="2" fill="none"></path></g><g transform="translate(911 93.99999999998704) rotate(0 39 4.263256414560601e-12)"><path d="M54.51 -8.55 C60.02 -6.54, 65.53 -4.54, 78 0 M54.51 -8.55 C61.73 -5.92, 68.96 -3.29, 78 0" stroke="#1e1e1e" stroke-width="2" fill="none"></path></g></g><mask></mask><g stroke-linecap="round"><g transform="translate(1051 94) rotate(0 39 0)"><path d="M0 0 C27.38 0, 54.76 0, 78 0 M0 0 C25.9 0, 51.8 0, 78 0" stroke="#1e1e1e" stroke-width="2" fill="none"></path></g><g transform="translate(1051 94) rotate(0 39 0)"><path d="M54.51 8.55 C62.75 5.55, 71 2.55, 78 0 M54.51 8.55 C62.31 5.71, 70.11 2.87, 78 0" stroke="#1e1e1e" stroke-width="2" fill="none"></path></g><g transform="translate(1051 94) rotate(0 39 0)"><path d="M54.51 -8.55 C62.75 -5.55, 71 -2.55, 78 0 M54.51 -8.55 C62.31 -5.71, 70.11 -2.87, 78 0" stroke="#1e1e1e" stroke-width="2" fill="none"></path></g></g><mask></mask><g transform="translate(185.20001220703125 10) rotate(0 88.3740234375 11.5)"><text x="0" y="0" font-family="Helvetica, Segoe UI Emoji" font-size="20px" fill="#1e1e1e" text-anchor="start" style="white-space: pre;" direction="ltr" dominant-baseline="text-before-edge">Common LinkedList</text></g><g transform="translate(810 14) rotate(0 85.6005859375 11.5)"><text x="0" y="0" font-family="Helvetica, Segoe UI Emoji" font-size="20px" fill="#1e1e1e" text-anchor="start" style="white-space: pre;" direction="ltr" dominant-baseline="text-before-edge">Intrusive LinkedList</text></g></svg>