<svg version="1.1" xmlns="http://www.w3.org/2000/svg" viewBox="0 0 500 616" width="500" height="616">
  <!-- svg-source:excalidraw -->
  
  <defs>
    <style class="style-fonts">
      @font-face {
        font-family: "Virgil";
        src: url("https://excalidraw.com/Virgil.woff2");
      }
      @font-face {
        font-family: "Cascadia";
        src: url("https://excalidraw.com/Cascadia.woff2");
      }
      @font-face {
        font-family: "Assistant";
        src: url("https://excalidraw.com/Assistant-Regular.woff2");
      }
    </style>
    
  </defs>
  <rect x="0" y="0" width="500" height="616" fill="#ffffff"></rect><g transform="translate(30 10) rotate(0 43.3447265625 11.5)"><text x="0" y="0" font-family="Helvetica, Segoe UI Emoji" font-size="20px" fill="#1e1e1e" text-anchor="start" style="white-space: pre;" direction="ltr" dominant-baseline="text-before-edge">MainTask</text></g><g stroke-linecap="round" transform="translate(10 50) rotate(0 70 28)"><path d="M14 0 C40.56 0, 67.12 0, 126 0 M14 0 C40.41 0, 66.83 0, 126 0 M126 0 C135.33 0, 140 4.67, 140 14 M126 0 C135.33 0, 140 4.67, 140 14 M140 14 C140 23.39, 140 32.77, 140 42 M140 14 C140 21.54, 140 29.07, 140 42 M140 42 C140 51.33, 135.33 56, 126 56 M140 42 C140 51.33, 135.33 56, 126 56 M126 56 C92.06 56, 58.13 56, 14 56 M126 56 C89.64 56, 53.29 56, 14 56 M14 56 C4.67 56, 0 51.33, 0 42 M14 56 C4.67 56, 0 51.33, 0 42 M0 42 C0 34.18, 0 26.36, 0 14 M0 42 C0 32.09, 0 22.19, 0 14 M0 14 C0 4.67, 4.67 0, 14 0 M0 14 C0 4.67, 4.67 0, 14 0" stroke="#1e1e1e" stroke-width="1" fill="none"></path></g><g transform="translate(16.6552734375 55) rotate(0 63.3447265625 23)"><text x="63.3447265625" y="0" font-family="Helvetica, Segoe UI Emoji" font-size="20px" fill="#1e1e1e" text-anchor="middle" style="white-space: pre;" direction="ltr" dominant-baseline="text-before-edge">启用多任务</text><text x="63.3447265625" y="23" font-family="Helvetica, Segoe UI Emoji" font-size="20px" fill="#1e1e1e" text-anchor="middle" style="white-space: pre;" direction="ltr" dominant-baseline="text-before-edge">成为MainTask</text></g><g stroke-linecap="round" transform="translate(10 150) rotate(0 70 28)"><path d="M14 0 C52.19 0, 90.39 0, 126 0 M14 0 C42.13 0, 70.26 0, 126 0 M126 0 C135.33 0, 140 4.67, 140 14 M126 0 C135.33 0, 140 4.67, 140 14 M140 14 C140 22.57, 140 31.13, 140 42 M140 14 C140 24.25, 140 34.51, 140 42 M140 42 C140 51.33, 135.33 56, 126 56 M140 42 C140 51.33, 135.33 56, 126 56 M126 56 C94.72 56, 63.44 56, 14 56 M126 56 C92.18 56, 58.36 56, 14 56 M14 56 C4.67 56, 0 51.33, 0 42 M14 56 C4.67 56, 0 51.33, 0 42 M0 42 C0 33.56, 0 25.13, 0 14 M0 42 C0 36.12, 0 30.23, 0 14 M0 14 C0 4.67, 4.67 0, 14 0 M0 14 C0 4.67, 4.67 0, 14 0" stroke="#1e1e1e" stroke-width="1" fill="none"></path></g><g transform="translate(38.3251953125 155) rotate(0 41.6748046875 23)"><text x="41.6748046875" y="0" font-family="Helvetica, Segoe UI Emoji" font-size="20px" fill="#1e1e1e" text-anchor="middle" style="white-space: pre;" direction="ltr" dominant-baseline="text-before-edge">执行应用</text><text x="41.6748046875" y="23" font-family="Helvetica, Segoe UI Emoji" font-size="20px" fill="#1e1e1e" text-anchor="middle" style="white-space: pre;" direction="ltr" dominant-baseline="text-before-edge">main入口</text></g><g stroke-linecap="round" transform="translate(10 250) rotate(0 70 28)"><path d="M14 0 C37.62 0, 61.25 0, 126 0 M14 0 C47.62 0, 81.24 0, 126 0 M126 0 C135.33 0, 140 4.67, 140 14 M126 0 C135.33 0, 140 4.67, 140 14 M140 14 C140 19.74, 140 25.48, 140 42 M140 14 C140 24.01, 140 34.01, 140 42 M140 42 C140 51.33, 135.33 56, 126 56 M140 42 C140 51.33, 135.33 56, 126 56 M126 56 C98.98 56, 71.97 56, 14 56 M126 56 C83.17 56, 40.34 56, 14 56 M14 56 C4.67 56, 0 51.33, 0 42 M14 56 C4.67 56, 0 51.33, 0 42 M0 42 C0 32.19, 0 22.38, 0 14 M0 42 C0 34.95, 0 27.9, 0 14 M0 14 C0 4.67, 4.67 0, 14 0 M0 14 C0 4.67, 4.67 0, 14 0" stroke="#1e1e1e" stroke-width="1" fill="none"></path></g><g transform="translate(30 255) rotate(0 50 23)"><text x="50" y="0" font-family="Helvetica, Segoe UI Emoji" font-size="20px" fill="#1e1e1e" text-anchor="middle" style="white-space: pre;" direction="ltr" dominant-baseline="text-before-edge">创建新任务</text><text x="50" y="23" font-family="Helvetica, Segoe UI Emoji" font-size="20px" fill="#1e1e1e" text-anchor="middle" style="white-space: pre;" direction="ltr" dominant-baseline="text-before-edge">spawn</text></g><g stroke-linecap="round" transform="translate(350 250) rotate(0 70 28)"><path d="M14 0 C36.87 0, 59.73 0, 126 0 M14 0 C48.61 0, 83.22 0, 126 0 M126 0 C135.33 0, 140 4.67, 140 14 M126 0 C135.33 0, 140 4.67, 140 14 M140 14 C140 23.42, 140 32.84, 140 42 M140 14 C140 23.17, 140 32.34, 140 42 M140 42 C140 51.33, 135.33 56, 126 56 M140 42 C140 51.33, 135.33 56, 126 56 M126 56 C81.95 56, 37.9 56, 14 56 M126 56 C86.75 56, 47.51 56, 14 56 M14 56 C4.67 56, 0 51.33, 0 42 M14 56 C4.67 56, 0 51.33, 0 42 M0 42 C0 33.84, 0 25.68, 0 14 M0 42 C0 32.07, 0 22.14, 0 14 M0 14 C0 4.67, 4.67 0, 14 0 M0 14 C0 4.67, 4.67 0, 14 0" stroke="#1e1e1e" stroke-width="1" fill="none"></path></g><g transform="translate(380 255) rotate(0 40 23)"><text x="40" y="0" font-family="Helvetica, Segoe UI Emoji" font-size="20px" fill="#1e1e1e" text-anchor="middle" style="white-space: pre;" direction="ltr" dominant-baseline="text-before-edge">应用任务</text><text x="40" y="23" font-family="Helvetica, Segoe UI Emoji" font-size="20px" fill="#1e1e1e" text-anchor="middle" style="white-space: pre;" direction="ltr" dominant-baseline="text-before-edge">待命</text></g><g transform="translate(370 210) rotate(0 39.462890625 11.5)"><text x="0" y="0" font-family="Helvetica, Segoe UI Emoji" font-size="20px" fill="#1e1e1e" text-anchor="start" style="white-space: pre;" direction="ltr" dominant-baseline="text-before-edge">AppTask</text></g><g stroke-linecap="round" transform="translate(10 350) rotate(0 70 28)"><path d="M14 0 C50.95 0, 87.9 0, 126 0 M14 0 C58.37 0, 102.74 0, 126 0 M126 0 C135.33 0, 140 4.67, 140 14 M126 0 C135.33 0, 140 4.67, 140 14 M140 14 C140 21.47, 140 28.95, 140 42 M140 14 C140 21.67, 140 29.34, 140 42 M140 42 C140 51.33, 135.33 56, 126 56 M140 42 C140 51.33, 135.33 56, 126 56 M126 56 C87.6 56, 49.2 56, 14 56 M126 56 C86.77 56, 47.54 56, 14 56 M14 56 C4.67 56, 0 51.33, 0 42 M14 56 C4.67 56, 0 51.33, 0 42 M0 42 C0 36.01, 0 30.01, 0 14 M0 42 C0 36.27, 0 30.54, 0 14 M0 14 C0 4.67, 4.67 0, 14 0 M0 14 C0 4.67, 4.67 0, 14 0" stroke="#1e1e1e" stroke-width="1" fill="none"></path></g><g transform="translate(30 355) rotate(0 50 23)"><text x="50" y="0" font-family="Helvetica, Segoe UI Emoji" font-size="20px" fill="#1e1e1e" text-anchor="middle" style="white-space: pre;" direction="ltr" dominant-baseline="text-before-edge">让出执行权</text><text x="50" y="23" font-family="Helvetica, Segoe UI Emoji" font-size="20px" fill="#1e1e1e" text-anchor="middle" style="white-space: pre;" direction="ltr" dominant-baseline="text-before-edge">join</text></g><g stroke-linecap="round" transform="translate(350 350) rotate(0 70 28)"><path d="M14 0 C37.87 0, 61.74 0, 126 0 M14 0 C51.67 0, 89.33 0, 126 0 M126 0 C135.33 0, 140 4.67, 140 14 M126 0 C135.33 0, 140 4.67, 140 14 M140 14 C140 23.78, 140 33.56, 140 42 M140 14 C140 22.15, 140 30.29, 140 42 M140 42 C140 51.33, 135.33 56, 126 56 M140 42 C140 51.33, 135.33 56, 126 56 M126 56 C84.62 56, 43.24 56, 14 56 M126 56 C103.42 56, 80.84 56, 14 56 M14 56 C4.67 56, 0 51.33, 0 42 M14 56 C4.67 56, 0 51.33, 0 42 M0 42 C0 31.38, 0 20.76, 0 14 M0 42 C0 32.55, 0 23.09, 0 14 M0 14 C0 4.67, 4.67 0, 14 0 M0 14 C0 4.67, 4.67 0, 14 0" stroke="#1e1e1e" stroke-width="1" fill="none"></path></g><g transform="translate(380 355) rotate(0 40 23)"><text x="40" y="0" font-family="Helvetica, Segoe UI Emoji" font-size="20px" fill="#1e1e1e" text-anchor="middle" style="white-space: pre;" direction="ltr" dominant-baseline="text-before-edge">应用任务</text><text x="40" y="23" font-family="Helvetica, Segoe UI Emoji" font-size="20px" fill="#1e1e1e" text-anchor="middle" style="white-space: pre;" direction="ltr" dominant-baseline="text-before-edge">运行</text></g><g stroke-linecap="round" transform="translate(350 450) rotate(0 70 28)"><path d="M14 0 C43.52 0, 73.04 0, 126 0 M14 0 C54.05 0, 94.09 0, 126 0 M126 0 C135.33 0, 140 4.67, 140 14 M126 0 C135.33 0, 140 4.67, 140 14 M140 14 C140 24.31, 140 34.61, 140 42 M140 14 C140 22.87, 140 31.75, 140 42 M140 42 C140 51.33, 135.33 56, 126 56 M140 42 C140 51.33, 135.33 56, 126 56 M126 56 C90.89 56, 55.78 56, 14 56 M126 56 C83.52 56, 41.03 56, 14 56 M14 56 C4.67 56, 0 51.33, 0 42 M14 56 C4.67 56, 0 51.33, 0 42 M0 42 C0 31.75, 0 21.49, 0 14 M0 42 C0 34.21, 0 26.42, 0 14 M0 14 C0 4.67, 4.67 0, 14 0 M0 14 C0 4.67, 4.67 0, 14 0" stroke="#1e1e1e" stroke-width="1" fill="none"></path></g><g transform="translate(380 455) rotate(0 40 23)"><text x="40" y="0" font-family="Helvetica, Segoe UI Emoji" font-size="20px" fill="#1e1e1e" text-anchor="middle" style="white-space: pre;" direction="ltr" dominant-baseline="text-before-edge">应用任务</text><text x="40" y="23" font-family="Helvetica, Segoe UI Emoji" font-size="20px" fill="#1e1e1e" text-anchor="middle" style="white-space: pre;" direction="ltr" dominant-baseline="text-before-edge">退出</text></g><g stroke-linecap="round" transform="translate(10 450) rotate(0 70 28)"><path d="M14 0 C38.09 0, 62.17 0, 126 0 M14 0 C41.36 0, 68.72 0, 126 0 M126 0 C135.33 0, 140 4.67, 140 14 M126 0 C135.33 0, 140 4.67, 140 14 M140 14 C140 24.65, 140 35.3, 140 42 M140 14 C140 24.19, 140 34.38, 140 42 M140 42 C140 51.33, 135.33 56, 126 56 M140 42 C140 51.33, 135.33 56, 126 56 M126 56 C81.55 56, 37.1 56, 14 56 M126 56 C97.01 56, 68.01 56, 14 56 M14 56 C4.67 56, 0 51.33, 0 42 M14 56 C4.67 56, 0 51.33, 0 42 M0 42 C0 33.44, 0 24.88, 0 14 M0 42 C0 34.91, 0 27.83, 0 14 M0 14 C0 4.67, 4.67 0, 14 0 M0 14 C0 4.67, 4.67 0, 14 0" stroke="#1e1e1e" stroke-width="1" fill="none"></path></g><g transform="translate(20 455) rotate(0 60 23)"><text x="60" y="0" font-family="Helvetica, Segoe UI Emoji" font-size="20px" fill="#1e1e1e" text-anchor="middle" style="white-space: pre;" direction="ltr" dominant-baseline="text-before-edge">等待应用完成</text><text x="60" y="23" font-family="Helvetica, Segoe UI Emoji" font-size="20px" fill="#1e1e1e" text-anchor="middle" style="white-space: pre;" direction="ltr" dominant-baseline="text-before-edge">被通知唤醒</text></g><g stroke-linecap="round" transform="translate(10 550) rotate(0 70 28)"><path d="M14 0 C41.36 0, 68.73 0, 126 0 M14 0 C50.51 0, 87.02 0, 126 0 M126 0 C135.33 0, 140 4.67, 140 14 M126 0 C135.33 0, 140 4.67, 140 14 M140 14 C140 23.88, 140 33.77, 140 42 M140 14 C140 20.47, 140 26.94, 140 42 M140 42 C140 51.33, 135.33 56, 126 56 M140 42 C140 51.33, 135.33 56, 126 56 M126 56 C89.52 56, 53.05 56, 14 56 M126 56 C82.07 56, 38.14 56, 14 56 M14 56 C4.67 56, 0 51.33, 0 42 M14 56 C4.67 56, 0 51.33, 0 42 M0 42 C0 34.55, 0 27.1, 0 14 M0 42 C0 34.41, 0 26.82, 0 14 M0 14 C0 4.67, 4.67 0, 14 0 M0 14 C0 4.67, 4.67 0, 14 0" stroke="#1e1e1e" stroke-width="1" fill="none"></path></g><g transform="translate(40 555) rotate(0 40 23)"><text x="40" y="0" font-family="Helvetica, Segoe UI Emoji" font-size="20px" fill="#1e1e1e" text-anchor="middle" style="white-space: pre;" direction="ltr" dominant-baseline="text-before-edge">系统退出</text><text x="40" y="23" font-family="Helvetica, Segoe UI Emoji" font-size="20px" fill="#1e1e1e" text-anchor="middle" style="white-space: pre;" direction="ltr" dominant-baseline="text-before-edge">exit</text></g><g stroke-linecap="round"><g transform="translate(70 110) rotate(0 0 19.5)"><path d="M0 0 C0 6.5, 0 32.5, 0 39 M0 0 C0 6.5, 0 32.5, 0 39" stroke="#1e1e1e" stroke-width="1" fill="none"></path></g><g transform="translate(70 110) rotate(0 0 19.5)"><path d="M-6.67 20.68 C-4.13 27.64, -1.6 34.61, 0 39 M-6.67 20.68 C-4.91 25.5, -3.16 30.32, 0 39" stroke="#1e1e1e" stroke-width="1" fill="none"></path></g><g transform="translate(70 110) rotate(0 0 19.5)"><path d="M6.67 20.68 C4.13 27.64, 1.6 34.61, 0 39 M6.67 20.68 C4.91 25.5, 3.16 30.32, 0 39" stroke="#1e1e1e" stroke-width="1" fill="none"></path></g></g><mask></mask><g stroke-linecap="round"><g transform="translate(70 210) rotate(0 0 19.5)"><path d="M0 0 C0 6.5, 0 32.5, 0 39 M0 0 C0 6.5, 0 32.5, 0 39" stroke="#1e1e1e" stroke-width="1" fill="none"></path></g><g transform="translate(70 210) rotate(0 0 19.5)"><path d="M-6.67 20.68 C-4.19 27.49, -1.71 34.31, 0 39 M-6.67 20.68 C-5.21 24.69, -3.75 28.7, 0 39" stroke="#1e1e1e" stroke-width="1" fill="none"></path></g><g transform="translate(70 210) rotate(0 0 19.5)"><path d="M6.67 20.68 C4.19 27.49, 1.71 34.31, 0 39 M6.67 20.68 C5.21 24.69, 3.75 28.7, 0 39" stroke="#1e1e1e" stroke-width="1" fill="none"></path></g></g><mask></mask><g stroke-linecap="round"><g transform="translate(70 510) rotate(0 0 19.5)"><path d="M0 0 C0 6.5, 0 32.5, 0 39 M0 0 C0 6.5, 0 32.5, 0 39" stroke="#1e1e1e" stroke-width="1" fill="none"></path></g><g transform="translate(70 510) rotate(0 0 19.5)"><path d="M-6.67 20.68 C-4.23 27.37, -1.8 34.07, 0 39 M-6.67 20.68 C-4.47 26.72, -2.27 32.76, 0 39" stroke="#1e1e1e" stroke-width="1" fill="none"></path></g><g transform="translate(70 510) rotate(0 0 19.5)"><path d="M6.67 20.68 C4.23 27.37, 1.8 34.07, 0 39 M6.67 20.68 C4.47 26.72, 2.27 32.76, 0 39" stroke="#1e1e1e" stroke-width="1" fill="none"></path></g></g><mask></mask><g stroke-linecap="round"><g transform="translate(70 310) rotate(0 0 20)"><path d="M0 0 C0 6.67, 0 33.33, 0 40 M0 0 C0 6.67, 0 33.33, 0 40" stroke="#1e1e1e" stroke-width="1" fill="none"></path></g><g transform="translate(70 310) rotate(0 0 20)"><path d="M-6.84 21.21 C-4.33 28.11, -1.82 35, 0 40 M-6.84 21.21 C-5.06 26.1, -3.28 31, 0 40" stroke="#1e1e1e" stroke-width="1" fill="none"></path></g><g transform="translate(70 310) rotate(0 0 20)"><path d="M6.84 21.21 C4.33 28.11, 1.82 35, 0 40 M6.84 21.21 C5.06 26.1, 3.28 31, 0 40" stroke="#1e1e1e" stroke-width="1" fill="none"></path></g></g><mask></mask><g stroke-linecap="round"><g transform="translate(70 410) rotate(0 0 20)"><path d="M0 0 C0 6.67, 0 33.33, 0 40" stroke="#1e1e1e" stroke-width="1.5" fill="none" stroke-dasharray="1.5 7"></path></g><g transform="translate(70 410) rotate(0 0 20)"><path d="M-6.84 21.21 C-4.7 27.09, -2.56 32.98, 0 40" stroke="#1e1e1e" stroke-width="1.5" fill="none" stroke-dasharray="1.5 5"></path></g><g transform="translate(70 410) rotate(0 0 20)"><path d="M6.84 21.21 C4.7 27.09, 2.56 32.98, 0 40" stroke="#1e1e1e" stroke-width="1.5" fill="none" stroke-dasharray="1.5 5"></path></g></g><mask></mask><g mask="url(#mask-A8PQ6P2I_-1a9ZHbdBZ2D)" stroke-linecap="round"><g transform="translate(150 270) rotate(0 100 0)"><path d="M0 0 C33.33 0, 166.67 0, 200 0" stroke="#1e1e1e" stroke-width="1.5" fill="none" stroke-dasharray="1.5 7"></path></g><g transform="translate(150 270) rotate(0 100 0)"><path d="M176.51 8.55 C183.86 5.87, 191.22 3.19, 200 0" stroke="#1e1e1e" stroke-width="1.5" fill="none" stroke-dasharray="1.5 5"></path></g><g transform="translate(150 270) rotate(0 100 0)"><path d="M176.51 -8.55 C183.86 -5.87, 191.22 -3.19, 200 0" stroke="#1e1e1e" stroke-width="1.5" fill="none" stroke-dasharray="1.5 5"></path></g></g><mask id="mask-A8PQ6P2I_-1a9ZHbdBZ2D"><rect x="0" y="0" fill="#fff" width="450" height="370"></rect><rect x="180" y="258.5" fill="#000" width="140" height="23" opacity="1"></rect></mask><g transform="translate(180 258.5) rotate(0 70 11.5)"><text x="70" y="0" font-family="Helvetica, Segoe UI Emoji" font-size="20px" fill="#1e1e1e" text-anchor="middle" style="white-space: pre;" direction="ltr" dominant-baseline="text-before-edge">投递到运行队列</text></g><g mask="url(#mask-F5LP0d1GWvMx1HPVWWbes)" stroke-linecap="round"><g transform="translate(150 370) rotate(0 100 0)"><path d="M0 0 C33.33 0, 166.67 0, 200 0 M0 0 C33.33 0, 166.67 0, 200 0" stroke="#1e1e1e" stroke-width="1" fill="none"></path></g><g transform="translate(150 370) rotate(0 100 0)"><path d="M176.51 8.55 C182.52 6.36, 188.52 4.18, 200 0 M176.51 8.55 C183.51 6, 190.51 3.45, 200 0" stroke="#1e1e1e" stroke-width="1" fill="none"></path></g><g transform="translate(150 370) rotate(0 100 0)"><path d="M176.51 -8.55 C182.52 -6.36, 188.52 -4.18, 200 0 M176.51 -8.55 C183.51 -6, 190.51 -3.45, 200 0" stroke="#1e1e1e" stroke-width="1" fill="none"></path></g></g><mask id="mask-F5LP0d1GWvMx1HPVWWbes"><rect x="0" y="0" fill="#fff" width="450" height="470"></rect><rect x="194.423828125" y="358.5" fill="#000" width="111.15234375" height="23" opacity="1"></rect></mask><g transform="translate(194.423828125 358.5) rotate(0 55.576171875 11.5)"><text x="55.576171875" y="0" font-family="Helvetica, Segoe UI Emoji" font-size="20px" fill="#1e1e1e" text-anchor="middle" style="white-space: pre;" direction="ltr" dominant-baseline="text-before-edge">resched调度</text></g><g stroke-linecap="round"><g transform="translate(410 310) rotate(0 0 20)"><path d="M0 0 C0 6.67, 0 33.33, 0 40" stroke="#1e1e1e" stroke-width="1.5" fill="none" stroke-dasharray="1.5 7"></path></g><g transform="translate(410 310) rotate(0 0 20)"><path d="M-6.84 21.21 C-5.08 26.04, -3.32 30.88, 0 40" stroke="#1e1e1e" stroke-width="1.5" fill="none" stroke-dasharray="1.5 5"></path></g><g transform="translate(410 310) rotate(0 0 20)"><path d="M6.84 21.21 C5.08 26.04, 3.32 30.88, 0 40" stroke="#1e1e1e" stroke-width="1.5" fill="none" stroke-dasharray="1.5 5"></path></g></g><mask></mask><g stroke-linecap="round"><g transform="translate(410 410) rotate(0 0 20)"><path d="M0 0 C0 6.67, 0 33.33, 0 40 M0 0 C0 6.67, 0 33.33, 0 40" stroke="#1e1e1e" stroke-width="1" fill="none"></path></g><g transform="translate(410 410) rotate(0 0 20)"><path d="M-6.84 21.21 C-5.05 26.12, -3.27 31.02, 0 40 M-6.84 21.21 C-5.42 25.1, -4 29, 0 40" stroke="#1e1e1e" stroke-width="1" fill="none"></path></g><g transform="translate(410 410) rotate(0 0 20)"><path d="M6.84 21.21 C5.05 26.12, 3.27 31.02, 0 40 M6.84 21.21 C5.42 25.1, 4 29, 0 40" stroke="#1e1e1e" stroke-width="1" fill="none"></path></g></g><mask></mask><g mask="url(#mask-jJFOkBgG8eMhdpE_S5FBf)" stroke-linecap="round"><g transform="translate(350 470) rotate(0 -100 0)"><path d="M0 0 C-33.33 0, -166.67 0, -200 0 M0 0 C-33.33 0, -166.67 0, -200 0" stroke="#1e1e1e" stroke-width="1" fill="none"></path></g><g transform="translate(350 470) rotate(0 -100 0)"><path d="M-176.51 -8.55 C-185.3 -5.35, -194.1 -2.15, -200 0 M-176.51 -8.55 C-182.7 -6.3, -188.9 -4.04, -200 0" stroke="#1e1e1e" stroke-width="1" fill="none"></path></g><g transform="translate(350 470) rotate(0 -100 0)"><path d="M-176.51 8.55 C-185.3 5.35, -194.1 2.15, -200 0 M-176.51 8.55 C-182.7 6.3, -188.9 4.04, -200 0" stroke="#1e1e1e" stroke-width="1" fill="none"></path></g></g><mask id="mask-jJFOkBgG8eMhdpE_S5FBf"><rect x="0" y="0" fill="#fff" width="650" height="570"></rect><rect x="200" y="447" fill="#000" width="100" height="46" opacity="1"></rect></mask><g transform="translate(200 447) rotate(0 50 23)"><text x="50" y="0" font-family="Helvetica, Segoe UI Emoji" font-size="20px" fill="#1e1e1e" text-anchor="middle" style="white-space: pre;" direction="ltr" dominant-baseline="text-before-edge">返回结果</text><text x="50" y="23" font-family="Helvetica, Segoe UI Emoji" font-size="20px" fill="#1e1e1e" text-anchor="middle" style="white-space: pre;" direction="ltr" dominant-baseline="text-before-edge">并等待回收</text></g><g transform="translate(85.20001220703125 420.8000183105469) rotate(0 60 11.5)"><text x="0" y="0" font-family="Helvetica, Segoe UI Emoji" font-size="20px" fill="#1e1e1e" text-anchor="start" style="white-space: pre;" direction="ltr" dominant-baseline="text-before-edge">进入等待队列</text></g></svg>