<svg version="1.1" xmlns="http://www.w3.org/2000/svg" viewBox="0 0 1120 323" width="1120" height="323">
  <!-- svg-source:excalidraw -->
  
  <defs>
    <style class="style-fonts">
      @font-face {
        font-family: "Virgil";
        src: url("https://excalidraw.com/Virgil.woff2");
      }
      @font-face {
        font-family: "Cascadia";
        src: url("https://excalidraw.com/Cascadia.woff2");
      }
      @font-face {
        font-family: "Assistant";
        src: url("https://excalidraw.com/Assistant-Regular.woff2");
      }
    </style>
    
  </defs>
  <rect x="0" y="0" width="1120" height="323" fill="#ffffff"></rect><g stroke-linecap="round" transform="translate(130 130) rotate(0 100 70)"><path d="M0 0 L200 0 L200 140 L0 140" stroke="none" stroke-width="0" fill="#e9ecef"></path><path d="M0 0 C60.09 0, 120.18 0, 200 0 M0 0 C46.25 0, 92.5 0, 200 0 M200 0 C200 54.77, 200 109.55, 200 140 M200 0 C200 35.25, 200 70.49, 200 140 M200 140 C131.23 140, 62.46 140, 0 140 M200 140 C137.03 140, 74.06 140, 0 140 M0 140 C0 111.49, 0 82.99, 0 0 M0 140 C0 97.12, 0 54.24, 0 0" stroke="#1e1e1e" stroke-width="1" fill="none"></path></g><g stroke-linecap="round" transform="translate(150 170) rotate(0 80 50)"><path d="M25 0 C52.25 0, 79.49 0, 135 0 C151.67 0, 160 8.33, 160 25 C160 37.8, 160 50.6, 160 75 C160 91.67, 151.67 100, 135 100 C97.12 100, 59.24 100, 25 100 C8.33 100, 0 91.67, 0 75 C0 58.93, 0 42.86, 0 25 C0 8.33, 8.33 0, 25 0" stroke="none" stroke-width="0" fill="#ffffff"></path><path d="M25 0 C50.93 0, 76.86 0, 135 0 M25 0 C61.87 0, 98.74 0, 135 0 M135 0 C151.67 0, 160 8.33, 160 25 M135 0 C151.67 0, 160 8.33, 160 25 M160 25 C160 35.25, 160 45.51, 160 75 M160 25 C160 40.94, 160 56.89, 160 75 M160 75 C160 91.67, 151.67 100, 135 100 M160 75 C160 91.67, 151.67 100, 135 100 M135 100 C103.39 100, 71.78 100, 25 100 M135 100 C99.47 100, 63.94 100, 25 100 M25 100 C8.33 100, 0 91.67, 0 75 M25 100 C8.33 100, 0 91.67, 0 75 M0 75 C0 61.5, 0 48, 0 25 M0 75 C0 57.65, 0 40.31, 0 25 M0 25 C0 8.33, 8.33 0, 25 0 M0 25 C0 8.33, 8.33 0, 25 0" stroke="#1e1e1e" stroke-width="1" fill="none"></path></g><g stroke-linecap="round" transform="translate(390 130) rotate(0 100 70)"><path d="M32 0 C79.09 0, 126.18 0, 168 0 M32 0 C71.07 0, 110.15 0, 168 0 M168 0 C189.33 0, 200 10.67, 200 32 M168 0 C189.33 0, 200 10.67, 200 32 M200 32 C200 61.4, 200 90.79, 200 108 M200 32 C200 53, 200 74.01, 200 108 M200 108 C200 129.33, 189.33 140, 168 140 M200 108 C200 129.33, 189.33 140, 168 140 M168 140 C124.94 140, 81.88 140, 32 140 M168 140 C118.64 140, 69.28 140, 32 140 M32 140 C10.67 140, 0 129.33, 0 108 M32 140 C10.67 140, 0 129.33, 0 108 M0 108 C0 84.52, 0 61.05, 0 32 M0 108 C0 81.01, 0 54.03, 0 32 M0 32 C0 10.67, 10.67 0, 32 0 M0 32 C0 10.67, 10.67 0, 32 0" stroke="#1e1e1e" stroke-width="1" fill="none"></path></g><g stroke-linecap="round" transform="translate(650 150) rotate(0 100 50)"><path d="M25 0 C77.33 0, 129.66 0, 175 0 M25 0 C65.5 0, 106 0, 175 0 M175 0 C191.67 0, 200 8.33, 200 25 M175 0 C191.67 0, 200 8.33, 200 25 M200 25 C200 37.84, 200 50.69, 200 75 M200 25 C200 37.38, 200 49.77, 200 75 M200 75 C200 91.67, 191.67 100, 175 100 M200 75 C200 91.67, 191.67 100, 175 100 M175 100 C128.92 100, 82.84 100, 25 100 M175 100 C123.34 100, 71.69 100, 25 100 M25 100 C8.33 100, 0 91.67, 0 75 M25 100 C8.33 100, 0 91.67, 0 75 M0 75 C0 56.1, 0 37.21, 0 25 M0 75 C0 58.25, 0 41.49, 0 25 M0 25 C0 8.33, 8.33 0, 25 0 M0 25 C0 8.33, 8.33 0, 25 0" stroke="#1e1e1e" stroke-width="1" fill="none"></path></g><g stroke-linecap="round" transform="translate(910 130) rotate(0 50 70)"><path d="M25 0 C37.12 0, 49.24 0, 75 0 M25 0 C35.24 0, 45.48 0, 75 0 M75 0 C91.67 0, 100 8.33, 100 25 M75 0 C91.67 0, 100 8.33, 100 25 M100 25 C100 58.96, 100 92.92, 100 115 M100 25 C100 51.76, 100 78.52, 100 115 M100 115 C100 131.67, 91.67 140, 75 140 M100 115 C100 131.67, 91.67 140, 75 140 M75 140 C61.24 140, 47.47 140, 25 140 M75 140 C63.12 140, 51.24 140, 25 140 M25 140 C8.33 140, 0 131.67, 0 115 M25 140 C8.33 140, 0 131.67, 0 115 M0 115 C0 92.89, 0 70.78, 0 25 M0 115 C0 84.17, 0 53.34, 0 25 M0 25 C0 8.33, 8.33 0, 25 0 M0 25 C0 8.33, 8.33 0, 25 0" stroke="#1e1e1e" stroke-width="1" fill="none"></path></g><g stroke-linecap="round" transform="translate(150 130) rotate(0 80 20)"><path d="M10 0 C63.19 0, 116.38 0, 150 0 C156.67 0, 160 3.33, 160 10 C160 15.28, 160 20.56, 160 30 C160 36.67, 156.67 40, 150 40 C121.41 40, 92.83 40, 10 40 C3.33 40, 0 36.67, 0 30 C0 23.74, 0 17.48, 0 10 C0 3.33, 3.33 0, 10 0" stroke="none" stroke-width="0" fill="#ffffff"></path><path d="M10 0 C60.09 0, 110.18 0, 150 0 M10 0 C64.13 0, 118.26 0, 150 0 M150 0 C156.67 0, 160 3.33, 160 10 M150 0 C156.67 0, 160 3.33, 160 10 M160 10 C160 15.38, 160 20.76, 160 30 M160 10 C160 16.47, 160 22.94, 160 30 M160 30 C160 36.67, 156.67 40, 150 40 M160 30 C160 36.67, 156.67 40, 150 40 M150 40 C100.64 40, 51.28 40, 10 40 M150 40 C106.9 40, 63.79 40, 10 40 M10 40 C3.33 40, 0 36.67, 0 30 M10 40 C3.33 40, 0 36.67, 0 30 M0 30 C0 23.48, 0 16.95, 0 10 M0 30 C0 25.65, 0 21.31, 0 10 M0 10 C0 3.33, 3.33 0, 10 0 M0 10 C0 3.33, 3.33 0, 10 0" stroke="#1e1e1e" stroke-width="1" fill="none"></path></g><g transform="translate(212.20703125 138.5) rotate(0 17.79296875 11.5)"><text x="17.79296875" y="0" font-family="Helvetica, Segoe UI Emoji" font-size="20px" fill="#1e1e1e" text-anchor="middle" style="white-space: pre;" direction="ltr" dominant-baseline="text-before-edge">App</text></g><g stroke-linecap="round"><g transform="translate(10 110) rotate(0 550 0)"><path d="M0 0 C255.79 0, 511.59 0, 1100 0 M0 0 C316.57 0, 633.14 0, 1100 0" stroke="#1e1e1e" stroke-width="1" fill="none"></path></g></g><mask></mask><g transform="translate(10 70) rotate(0 19.453125 11.5)"><text x="0" y="0" font-family="Helvetica, Segoe UI Emoji" font-size="20px" fill="#1e1e1e" text-anchor="start" style="white-space: pre;" direction="ltr" dominant-baseline="text-before-edge">user</text></g><g transform="translate(10 130) rotate(0 27.236328125 11.5)"><text x="0" y="0" font-family="Helvetica, Segoe UI Emoji" font-size="20px" fill="#1e1e1e" text-anchor="start" style="white-space: pre;" direction="ltr" dominant-baseline="text-before-edge">kernel</text></g><g transform="translate(158.80001831054688 289.20001220703125) rotate(0 59.4677734375 11.5)"><text x="0" y="0" font-family="Helvetica, Segoe UI Emoji" font-size="20px" fill="#1e1e1e" text-anchor="start" style="white-space: pre;" direction="ltr" dominant-baseline="text-before-edge">Unikernel OS</text></g><g stroke-linecap="round" transform="translate(390 50) rotate(0 50 20)"><path d="M10 0 C30.66 0, 51.33 0, 90 0 C96.67 0, 100 3.33, 100 10 C100 15.47, 100 20.94, 100 30 C100 36.67, 96.67 40, 90 40 C67.96 40, 45.92 40, 10 40 C3.33 40, 0 36.67, 0 30 C0 24.03, 0 18.06, 0 10 C0 3.33, 3.33 0, 10 0" stroke="none" stroke-width="0" fill="#ffffff"></path><path d="M10 0 C38.02 0, 66.04 0, 90 0 M10 0 C37.18 0, 64.36 0, 90 0 M90 0 C96.67 0, 100 3.33, 100 10 M90 0 C96.67 0, 100 3.33, 100 10 M100 10 C100 16.14, 100 22.28, 100 30 M100 10 C100 16.9, 100 23.8, 100 30 M100 30 C100 36.67, 96.67 40, 90 40 M100 30 C100 36.67, 96.67 40, 90 40 M90 40 C73.8 40, 57.61 40, 10 40 M90 40 C58.28 40, 26.56 40, 10 40 M10 40 C3.33 40, 0 36.67, 0 30 M10 40 C3.33 40, 0 36.67, 0 30 M0 30 C0 22.43, 0 14.86, 0 10 M0 30 C0 24.26, 0 18.53, 0 10 M0 10 C0 3.33, 3.33 0, 10 0 M0 10 C0 3.33, 3.33 0, 10 0" stroke="#1e1e1e" stroke-width="1" fill="none"></path></g><g transform="translate(422.20703125 58.5) rotate(0 17.79296875 11.5)"><text x="17.79296875" y="0" font-family="Helvetica, Segoe UI Emoji" font-size="20px" fill="#1e1e1e" text-anchor="middle" style="white-space: pre;" direction="ltr" dominant-baseline="text-before-edge">App</text></g><g stroke-linecap="round" transform="translate(490 50) rotate(0 50 20)"><path d="M10 0 C27.15 0, 44.29 0, 90 0 C96.67 0, 100 3.33, 100 10 C100 14.43, 100 18.87, 100 30 C100 36.67, 96.67 40, 90 40 C61.03 40, 32.06 40, 10 40 C3.33 40, 0 36.67, 0 30 C0 24.07, 0 18.13, 0 10 C0 3.33, 3.33 0, 10 0" stroke="none" stroke-width="0" fill="#ffffff"></path><path d="M10 0 C29.7 0, 49.4 0, 90 0 M10 0 C41.12 0, 72.24 0, 90 0 M90 0 C96.67 0, 100 3.33, 100 10 M90 0 C96.67 0, 100 3.33, 100 10 M100 10 C100 14.87, 100 19.73, 100 30 M100 10 C100 17.77, 100 25.55, 100 30 M100 30 C100 36.67, 96.67 40, 90 40 M100 30 C100 36.67, 96.67 40, 90 40 M90 40 C73.6 40, 57.2 40, 10 40 M90 40 C59.45 40, 28.91 40, 10 40 M10 40 C3.33 40, 0 36.67, 0 30 M10 40 C3.33 40, 0 36.67, 0 30 M0 30 C0 24.16, 0 18.33, 0 10 M0 30 C0 24.09, 0 18.18, 0 10 M0 10 C0 3.33, 3.33 0, 10 0 M0 10 C0 3.33, 3.33 0, 10 0" stroke="#1e1e1e" stroke-width="1" fill="none"></path></g><g transform="translate(522.20703125 58.5) rotate(0 17.79296875 11.5)"><text x="17.79296875" y="0" font-family="Helvetica, Segoe UI Emoji" font-size="20px" fill="#1e1e1e" text-anchor="middle" style="white-space: pre;" direction="ltr" dominant-baseline="text-before-edge">App</text></g><g transform="translate(430 290) rotate(0 62.24609375 11.5)"><text x="0" y="0" font-family="Helvetica, Segoe UI Emoji" font-size="20px" fill="#1e1e1e" text-anchor="start" style="white-space: pre;" direction="ltr" dominant-baseline="text-before-edge">Monolithic OS</text></g><g transform="translate(690 290) rotate(0 68.90625 11.5)"><text x="0" y="0" font-family="Helvetica, Segoe UI Emoji" font-size="20px" fill="#1e1e1e" text-anchor="start" style="white-space: pre;" direction="ltr" dominant-baseline="text-before-edge">Microkernel OS</text></g><g stroke-linecap="round" transform="translate(650 10) rotate(0 50 20)"><path d="M10 0 C34.29 0, 58.58 0, 90 0 C96.67 0, 100 3.33, 100 10 C100 16.02, 100 22.03, 100 30 C100 36.67, 96.67 40, 90 40 C73.36 40, 56.71 40, 10 40 C3.33 40, 0 36.67, 0 30 C0 25.1, 0 20.21, 0 10 C0 3.33, 3.33 0, 10 0" stroke="none" stroke-width="0" fill="#ffffff"></path><path d="M10 0 C27.76 0, 45.52 0, 90 0 M10 0 C37.76 0, 65.51 0, 90 0 M90 0 C96.67 0, 100 3.33, 100 10 M90 0 C96.67 0, 100 3.33, 100 10 M100 10 C100 17.93, 100 25.86, 100 30 M100 10 C100 16.64, 100 23.28, 100 30 M100 30 C100 36.67, 96.67 40, 90 40 M100 30 C100 36.67, 96.67 40, 90 40 M90 40 C68.55 40, 47.09 40, 10 40 M90 40 C59.69 40, 29.38 40, 10 40 M10 40 C3.33 40, 0 36.67, 0 30 M10 40 C3.33 40, 0 36.67, 0 30 M0 30 C0 24.68, 0 19.36, 0 10 M0 30 C0 22.55, 0 15.11, 0 10 M0 10 C0 3.33, 3.33 0, 10 0 M0 10 C0 3.33, 3.33 0, 10 0" stroke="#1e1e1e" stroke-width="1" fill="none"></path></g><g transform="translate(682.20703125 18.5) rotate(0 17.79296875 11.5)"><text x="17.79296875" y="0" font-family="Helvetica, Segoe UI Emoji" font-size="20px" fill="#1e1e1e" text-anchor="middle" style="white-space: pre;" direction="ltr" dominant-baseline="text-before-edge">App</text></g><g stroke-linecap="round" transform="translate(750 10) rotate(0 50 20)"><path d="M10 0 C38.14 0, 66.28 0, 90 0 C96.67 0, 100 3.33, 100 10 C100 16.34, 100 22.69, 100 30 C100 36.67, 96.67 40, 90 40 C59.1 40, 28.2 40, 10 40 C3.33 40, 0 36.67, 0 30 C0 24.23, 0 18.46, 0 10 C0 3.33, 3.33 0, 10 0" stroke="none" stroke-width="0" fill="#ffffff"></path><path d="M10 0 C30.07 0, 50.13 0, 90 0 M10 0 C41.11 0, 72.22 0, 90 0 M90 0 C96.67 0, 100 3.33, 100 10 M90 0 C96.67 0, 100 3.33, 100 10 M100 10 C100 14.94, 100 19.89, 100 30 M100 10 C100 16.19, 100 22.37, 100 30 M100 30 C100 36.67, 96.67 40, 90 40 M100 30 C100 36.67, 96.67 40, 90 40 M90 40 C66.56 40, 43.13 40, 10 40 M90 40 C62.78 40, 35.55 40, 10 40 M10 40 C3.33 40, 0 36.67, 0 30 M10 40 C3.33 40, 0 36.67, 0 30 M0 30 C0 22.91, 0 15.82, 0 10 M0 30 C0 24.35, 0 18.69, 0 10 M0 10 C0 3.33, 3.33 0, 10 0 M0 10 C0 3.33, 3.33 0, 10 0" stroke="#1e1e1e" stroke-width="1" fill="none"></path></g><g transform="translate(782.20703125 18.5) rotate(0 17.79296875 11.5)"><text x="17.79296875" y="0" font-family="Helvetica, Segoe UI Emoji" font-size="20px" fill="#1e1e1e" text-anchor="middle" style="white-space: pre;" direction="ltr" dominant-baseline="text-before-edge">App</text></g><g stroke-linecap="round" transform="translate(650 50) rotate(0 100 20)"><path d="M10 0 C67.09 0, 124.18 0, 190 0 M10 0 C47.45 0, 84.9 0, 190 0 M190 0 C196.67 0, 200 3.33, 200 10 M190 0 C196.67 0, 200 3.33, 200 10 M200 10 C200 15.77, 200 21.54, 200 30 M200 10 C200 14.94, 200 19.88, 200 30 M200 30 C200 36.67, 196.67 40, 190 40 M200 30 C200 36.67, 196.67 40, 190 40 M190 40 C132.67 40, 75.34 40, 10 40 M190 40 C125.56 40, 61.12 40, 10 40 M10 40 C3.33 40, 0 36.67, 0 30 M10 40 C3.33 40, 0 36.67, 0 30 M0 30 C0 25.56, 0 21.12, 0 10 M0 30 C0 24.5, 0 18.99, 0 10 M0 10 C0 3.33, 3.33 0, 10 0 M0 10 C0 3.33, 3.33 0, 10 0" stroke="#1e1e1e" stroke-width="1" fill="none"></path></g><g stroke-linecap="round" transform="translate(1010 130) rotate(0 50 70)"><path d="M25 0 C44.63 0, 64.26 0, 75 0 M25 0 C39.04 0, 53.08 0, 75 0 M75 0 C91.67 0, 100 8.33, 100 25 M75 0 C91.67 0, 100 8.33, 100 25 M100 25 C100 58.48, 100 91.96, 100 115 M100 25 C100 45.19, 100 65.38, 100 115 M100 115 C100 131.67, 91.67 140, 75 140 M100 115 C100 131.67, 91.67 140, 75 140 M75 140 C57.3 140, 39.6 140, 25 140 M75 140 C55.01 140, 35.02 140, 25 140 M25 140 C8.33 140, 0 131.67, 0 115 M25 140 C8.33 140, 0 131.67, 0 115 M0 115 C0 96.14, 0 77.27, 0 25 M0 115 C0 81.24, 0 47.49, 0 25 M0 25 C0 8.33, 8.33 0, 25 0 M0 25 C0 8.33, 8.33 0, 25 0" stroke="#1e1e1e" stroke-width="1" fill="none"></path></g><g transform="translate(950 290) rotate(0 65.576171875 11.5)"><text x="0" y="0" font-family="Helvetica, Segoe UI Emoji" font-size="20px" fill="#1e1e1e" text-anchor="start" style="white-space: pre;" direction="ltr" dominant-baseline="text-before-edge">Multikernel OS</text></g><g stroke-linecap="round" transform="translate(910 50) rotate(0 50 20)"><path d="M10 0 C40.24 0, 70.48 0, 90 0 C96.67 0, 100 3.33, 100 10 C100 14.2, 100 18.41, 100 30 C100 36.67, 96.67 40, 90 40 C69.67 40, 49.35 40, 10 40 C3.33 40, 0 36.67, 0 30 C0 23.76, 0 17.52, 0 10 C0 3.33, 3.33 0, 10 0" stroke="none" stroke-width="0" fill="#ffffff"></path><path d="M10 0 C37.18 0, 64.36 0, 90 0 M10 0 C30.2 0, 50.4 0, 90 0 M90 0 C96.67 0, 100 3.33, 100 10 M90 0 C96.67 0, 100 3.33, 100 10 M100 10 C100 14.65, 100 19.3, 100 30 M100 10 C100 17.31, 100 24.61, 100 30 M100 30 C100 36.67, 96.67 40, 90 40 M100 30 C100 36.67, 96.67 40, 90 40 M90 40 C59.16 40, 28.32 40, 10 40 M90 40 C70.34 40, 50.67 40, 10 40 M10 40 C3.33 40, 0 36.67, 0 30 M10 40 C3.33 40, 0 36.67, 0 30 M0 30 C0 23.22, 0 16.44, 0 10 M0 30 C0 22.06, 0 14.12, 0 10 M0 10 C0 3.33, 3.33 0, 10 0 M0 10 C0 3.33, 3.33 0, 10 0" stroke="#1e1e1e" stroke-width="1" fill="none"></path></g><g transform="translate(942.20703125 58.5) rotate(0 17.79296875 11.5)"><text x="17.79296875" y="0" font-family="Helvetica, Segoe UI Emoji" font-size="20px" fill="#1e1e1e" text-anchor="middle" style="white-space: pre;" direction="ltr" dominant-baseline="text-before-edge">App</text></g><g stroke-linecap="round" transform="translate(1010 50) rotate(0 50 20)"><path d="M10 0 C41.99 0, 73.98 0, 90 0 C96.67 0, 100 3.33, 100 10 C100 16.72, 100 23.44, 100 30 C100 36.67, 96.67 40, 90 40 C68.31 40, 46.61 40, 10 40 C3.33 40, 0 36.67, 0 30 C0 22.67, 0 15.34, 0 10 C0 3.33, 3.33 0, 10 0" stroke="none" stroke-width="0" fill="#ffffff"></path><path d="M10 0 C40.75 0, 71.5 0, 90 0 M10 0 C41.07 0, 72.14 0, 90 0 M90 0 C96.67 0, 100 3.33, 100 10 M90 0 C96.67 0, 100 3.33, 100 10 M100 10 C100 14.7, 100 19.4, 100 30 M100 10 C100 14.28, 100 18.57, 100 30 M100 30 C100 36.67, 96.67 40, 90 40 M100 30 C100 36.67, 96.67 40, 90 40 M90 40 C62.98 40, 35.96 40, 10 40 M90 40 C67.45 40, 44.89 40, 10 40 M10 40 C3.33 40, 0 36.67, 0 30 M10 40 C3.33 40, 0 36.67, 0 30 M0 30 C0 25.53, 0 21.05, 0 10 M0 30 C0 25.99, 0 21.99, 0 10 M0 10 C0 3.33, 3.33 0, 10 0 M0 10 C0 3.33, 3.33 0, 10 0" stroke="#1e1e1e" stroke-width="1" fill="none"></path></g><g transform="translate(1042.20703125 58.5) rotate(0 17.79296875 11.5)"><text x="17.79296875" y="0" font-family="Helvetica, Segoe UI Emoji" font-size="20px" fill="#1e1e1e" text-anchor="middle" style="white-space: pre;" direction="ltr" dominant-baseline="text-before-edge">App</text></g></svg>