<svg version="1.1" xmlns="http://www.w3.org/2000/svg" viewBox="0 0 920 240" width="920" height="240">
  <!-- svg-source:excalidraw -->
  
  <defs>
    <style class="style-fonts">
      @font-face {
        font-family: "Virgil";
        src: url("https://excalidraw.com/Virgil.woff2");
      }
      @font-face {
        font-family: "Cascadia";
        src: url("https://excalidraw.com/Cascadia.woff2");
      }
      @font-face {
        font-family: "Assistant";
        src: url("https://excalidraw.com/Assistant-Regular.woff2");
      }
    </style>
    
  </defs>
  <rect x="0" y="0" width="920" height="240" fill="#ffffff"></rect><g stroke-linecap="round" transform="translate(110 10) rotate(0 50 40)"><path d="M20 0 C34.87 0, 49.74 0, 80 0 M20 0 C41.19 0, 62.39 0, 80 0 M80 0 C93.33 0, 100 6.67, 100 20 M80 0 C93.33 0, 100 6.67, 100 20 M100 20 C100 30.58, 100 41.15, 100 60 M100 20 C100 33.71, 100 47.42, 100 60 M100 60 C100 73.33, 93.33 80, 80 80 M100 60 C100 73.33, 93.33 80, 80 80 M80 80 C60.12 80, 40.24 80, 20 80 M80 80 C67.3 80, 54.61 80, 20 80 M20 80 C6.67 80, 0 73.33, 0 60 M20 80 C6.67 80, 0 73.33, 0 60 M0 60 C0 44.68, 0 29.35, 0 20 M0 60 C0 51.56, 0 43.11, 0 20 M0 20 C0 6.67, 6.67 0, 20 0 M0 20 C0 6.67, 6.67 0, 20 0" stroke="#1e1e1e" stroke-width="1" fill="none"></path></g><g transform="translate(120 38.5) rotate(0 40 11.5)"><text x="40" y="0" font-family="Helvetica, Segoe UI Emoji" font-size="20px" fill="#1e1e1e" text-anchor="middle" style="white-space: pre;" direction="ltr" dominant-baseline="text-before-edge">内核启动</text></g><g transform="translate(10 30) rotate(0 16.1181640625 11.5)"><text x="0" y="0" font-family="Helvetica, Segoe UI Emoji" font-size="20px" fill="#1e1e1e" text-anchor="start" style="white-space: pre;" direction="ltr" dominant-baseline="text-before-edge">SBI</text></g><g stroke-linecap="round" transform="translate(270 10) rotate(0 50 40)"><path d="M20 0 C32.67 0, 45.34 0, 80 0 M20 0 C41.4 0, 62.81 0, 80 0 M80 0 C93.33 0, 100 6.67, 100 20 M80 0 C93.33 0, 100 6.67, 100 20 M100 20 C100 29.64, 100 39.29, 100 60 M100 20 C100 30.56, 100 41.12, 100 60 M100 60 C100 73.33, 93.33 80, 80 80 M100 60 C100 73.33, 93.33 80, 80 80 M80 80 C65.38 80, 50.75 80, 20 80 M80 80 C64.05 80, 48.11 80, 20 80 M20 80 C6.67 80, 0 73.33, 0 60 M20 80 C6.67 80, 0 73.33, 0 60 M0 60 C0 46.93, 0 33.87, 0 20 M0 60 C0 48.65, 0 37.31, 0 20 M0 20 C0 6.67, 6.67 0, 20 0 M0 20 C0 6.67, 6.67 0, 20 0" stroke="#1e1e1e" stroke-width="1" fill="none"></path></g><g transform="translate(290 27) rotate(0 30 23)"><text x="30" y="0" font-family="Helvetica, Segoe UI Emoji" font-size="20px" fill="#1e1e1e" text-anchor="middle" style="white-space: pre;" direction="ltr" dominant-baseline="text-before-edge">初始化</text><text x="30" y="23" font-family="Helvetica, Segoe UI Emoji" font-size="20px" fill="#1e1e1e" text-anchor="middle" style="white-space: pre;" direction="ltr" dominant-baseline="text-before-edge">各步骤</text></g><g stroke-linecap="round" transform="translate(430 10) rotate(0 50 40)"><path d="M20 0 C42.64 0, 65.28 0, 80 0 M20 0 C38.18 0, 56.36 0, 80 0 M80 0 C93.33 0, 100 6.67, 100 20 M80 0 C93.33 0, 100 6.67, 100 20 M100 20 C100 32.07, 100 44.14, 100 60 M100 20 C100 31.62, 100 43.24, 100 60 M100 60 C100 73.33, 93.33 80, 80 80 M100 60 C100 73.33, 93.33 80, 80 80 M80 80 C57.49 80, 34.97 80, 20 80 M80 80 C61.38 80, 42.76 80, 20 80 M20 80 C6.67 80, 0 73.33, 0 60 M20 80 C6.67 80, 0 73.33, 0 60 M0 60 C0 49.3, 0 38.6, 0 20 M0 60 C0 49.5, 0 38.99, 0 20 M0 20 C0 6.67, 6.67 0, 20 0 M0 20 C0 6.67, 6.67 0, 20 0" stroke="#1e1e1e" stroke-width="2" fill="none"></path></g><g transform="translate(436.6552734375 27) rotate(0 43.3447265625 23)"><text x="43.3447265625" y="0" font-family="Helvetica, Segoe UI Emoji" font-size="20px" fill="#1e1e1e" text-anchor="middle" style="white-space: pre;" direction="ltr" dominant-baseline="text-before-edge">封装为</text><text x="43.3447265625" y="23" font-family="Helvetica, Segoe UI Emoji" font-size="20px" fill="#1e1e1e" text-anchor="middle" style="white-space: pre;" direction="ltr" dominant-baseline="text-before-edge">MainTask</text></g><g transform="translate(410 170) rotate(0 55.0146484375 11.5)"><text x="0" y="0" font-family="Helvetica, Segoe UI Emoji" font-size="20px" fill="#1e1e1e" text-anchor="start" style="white-space: pre;" direction="ltr" dominant-baseline="text-before-edge">CurrentTask</text></g><g stroke-linecap="round"><g transform="translate(470 169) rotate(0 0 -29.5)"><path d="M0 0 C0 -9.83, 0 -49.17, 0 -59 M0 0 C0 -9.83, 0 -49.17, 0 -59" stroke="#1e1e1e" stroke-width="1" fill="none"></path></g><g transform="translate(470 169) rotate(0 0 -29.5)"><path d="M8.55 -35.51 C5.91 -42.76, 3.27 -50.01, 0 -59 M8.55 -35.51 C5.42 -44.12, 2.28 -52.73, 0 -59" stroke="#1e1e1e" stroke-width="1" fill="none"></path></g><g transform="translate(470 169) rotate(0 0 -29.5)"><path d="M-8.55 -35.51 C-5.91 -42.76, -3.27 -50.01, 0 -59 M-8.55 -35.51 C-5.42 -44.12, -2.28 -52.73, 0 -59" stroke="#1e1e1e" stroke-width="1" fill="none"></path></g></g><mask></mask><g stroke-linecap="round"><g transform="translate(50 50) rotate(0 30 0)"><path d="M0 0 C10 0, 50 0, 60 0 M0 0 C10 0, 50 0, 60 0" stroke="#1e1e1e" stroke-width="2" fill="none"></path></g><g transform="translate(50 50) rotate(0 30 0)"><path d="M36.51 8.55 C44.22 5.74, 51.94 2.93, 60 0 M36.51 8.55 C45.62 5.23, 54.74 1.92, 60 0" stroke="#1e1e1e" stroke-width="2" fill="none"></path></g><g transform="translate(50 50) rotate(0 30 0)"><path d="M36.51 -8.55 C44.22 -5.74, 51.94 -2.93, 60 0 M36.51 -8.55 C45.62 -5.23, 54.74 -1.92, 60 0" stroke="#1e1e1e" stroke-width="2" fill="none"></path></g></g><mask></mask><g stroke-linecap="round"><g transform="translate(210 50) rotate(0 30 0)"><path d="M0 0 C10 0, 50 0, 60 0 M0 0 C10 0, 50 0, 60 0" stroke="#1e1e1e" stroke-width="2" fill="none"></path></g><g transform="translate(210 50) rotate(0 30 0)"><path d="M36.51 8.55 C45.09 5.43, 53.68 2.3, 60 0 M36.51 8.55 C41.8 6.62, 47.09 4.7, 60 0" stroke="#1e1e1e" stroke-width="2" fill="none"></path></g><g transform="translate(210 50) rotate(0 30 0)"><path d="M36.51 -8.55 C45.09 -5.43, 53.68 -2.3, 60 0 M36.51 -8.55 C41.8 -6.62, 47.09 -4.7, 60 0" stroke="#1e1e1e" stroke-width="2" fill="none"></path></g></g><mask></mask><g stroke-linecap="round"><g transform="translate(370 50) rotate(0 30 0)"><path d="M0 0 C10 0, 50 0, 60 0 M0 0 C10 0, 50 0, 60 0" stroke="#1e1e1e" stroke-width="2" fill="none"></path></g><g transform="translate(370 50) rotate(0 30 0)"><path d="M36.51 8.55 C44.46 5.66, 52.41 2.76, 60 0 M36.51 8.55 C42.76 6.27, 49.01 4, 60 0" stroke="#1e1e1e" stroke-width="2" fill="none"></path></g><g transform="translate(370 50) rotate(0 30 0)"><path d="M36.51 -8.55 C44.46 -5.66, 52.41 -2.76, 60 0 M36.51 -8.55 C42.76 -6.27, 49.01 -4, 60 0" stroke="#1e1e1e" stroke-width="2" fill="none"></path></g></g><mask></mask><g stroke-linecap="round" transform="translate(590 10) rotate(0 80 39.5)"><path d="M19.75 0 C44.42 0, 69.08 0, 140.25 0 M19.75 0 C47.36 0, 74.97 0, 140.25 0 M140.25 0 C153.42 0, 160 6.58, 160 19.75 M140.25 0 C153.42 0, 160 6.58, 160 19.75 M160 19.75 C160 32.72, 160 45.69, 160 59.25 M160 19.75 C160 35.4, 160 51.04, 160 59.25 M160 59.25 C160 72.42, 153.42 79, 140.25 79 M160 59.25 C160 72.42, 153.42 79, 140.25 79 M140.25 79 C99.96 79, 59.67 79, 19.75 79 M140.25 79 C106.94 79, 73.62 79, 19.75 79 M19.75 79 C6.58 79, 0 72.42, 0 59.25 M19.75 79 C6.58 79, 0 72.42, 0 59.25 M0 59.25 C0 48.52, 0 37.79, 0 19.75 M0 59.25 C0 51.25, 0 43.26, 0 19.75 M0 19.75 C0 6.58, 6.58 0, 19.75 0 M0 19.75 C0 6.58, 6.58 0, 19.75 0" stroke="#1e1e1e" stroke-width="2" fill="none"></path></g><g transform="translate(608.3251953125 26.5) rotate(0 61.6748046875 23)"><text x="61.6748046875" y="0" font-family="Helvetica, Segoe UI Emoji" font-size="20px" fill="#1e1e1e" text-anchor="middle" style="white-space: pre;" direction="ltr" dominant-baseline="text-before-edge">在应用main中</text><text x="61.6748046875" y="23" font-family="Helvetica, Segoe UI Emoji" font-size="20px" fill="#1e1e1e" text-anchor="middle" style="white-space: pre;" direction="ltr" dominant-baseline="text-before-edge">尝试执行yield</text></g><g stroke-linecap="round"><g transform="translate(531 50) rotate(0 29 0)"><path d="M0 0 C9.67 0, 48.33 0, 58 0 M0 0 C9.67 0, 48.33 0, 58 0" stroke="#1e1e1e" stroke-width="2" fill="none"></path></g><g transform="translate(531 50) rotate(0 29 0)"><path d="M34.51 8.55 C40.79 6.26, 47.07 3.98, 58 0 M34.51 8.55 C41.06 6.17, 47.62 3.78, 58 0" stroke="#1e1e1e" stroke-width="2" fill="none"></path></g><g transform="translate(531 50) rotate(0 29 0)"><path d="M34.51 -8.55 C40.79 -6.26, 47.07 -3.98, 58 0 M34.51 -8.55 C41.06 -6.17, 47.62 -3.78, 58 0" stroke="#1e1e1e" stroke-width="2" fill="none"></path></g></g><mask></mask><g stroke-linecap="round" transform="translate(810 10) rotate(0 50 40)"><path d="M20 0 C35.86 0, 51.73 0, 80 0 M20 0 C36.79 0, 53.59 0, 80 0 M80 0 C93.33 0, 100 6.67, 100 20 M80 0 C93.33 0, 100 6.67, 100 20 M100 20 C100 30.4, 100 40.8, 100 60 M100 20 C100 32.55, 100 45.09, 100 60 M100 60 C100 73.33, 93.33 80, 80 80 M100 60 C100 73.33, 93.33 80, 80 80 M80 80 C65.46 80, 50.91 80, 20 80 M80 80 C59.06 80, 38.13 80, 20 80 M20 80 C6.67 80, 0 73.33, 0 60 M20 80 C6.67 80, 0 73.33, 0 60 M0 60 C0 44.62, 0 29.23, 0 20 M0 60 C0 47.27, 0 34.53, 0 20 M0 20 C0 6.67, 6.67 0, 20 0 M0 20 C0 6.67, 6.67 0, 20 0" stroke="#1e1e1e" stroke-width="2" fill="none"></path></g><g transform="translate(820 27) rotate(0 40 23)"><text x="40" y="0" font-family="Helvetica, Segoe UI Emoji" font-size="20px" fill="#1e1e1e" text-anchor="middle" style="white-space: pre;" direction="ltr" dominant-baseline="text-before-edge">exit</text><text x="40" y="23" font-family="Helvetica, Segoe UI Emoji" font-size="20px" fill="#1e1e1e" text-anchor="middle" style="white-space: pre;" direction="ltr" dominant-baseline="text-before-edge">退出系统</text></g><g stroke-linecap="round"><g transform="translate(750 50) rotate(0 29 0)"><path d="M0 0 C9.67 0, 48.33 0, 58 0 M0 0 C9.67 0, 48.33 0, 58 0" stroke="#1e1e1e" stroke-width="2" fill="none"></path></g><g transform="translate(750 50) rotate(0 29 0)"><path d="M34.51 8.55 C43.57 5.25, 52.62 1.96, 58 0 M34.51 8.55 C41.3 6.08, 48.1 3.6, 58 0" stroke="#1e1e1e" stroke-width="2" fill="none"></path></g><g transform="translate(750 50) rotate(0 29 0)"><path d="M34.51 -8.55 C43.57 -5.25, 52.62 -1.96, 58 0 M34.51 -8.55 C41.3 -6.08, 48.1 -3.6, 58 0" stroke="#1e1e1e" stroke-width="2" fill="none"></path></g></g><mask></mask><g stroke-linecap="round" transform="translate(590 170) rotate(0 80 30)"><path d="M15 0 C46.07 0, 77.14 0, 145 0 M145 0 C155 0, 160 5, 160 15 M160 15 C160 22.57, 160 30.13, 160 45 M160 45 C160 55, 155 60, 145 60 M145 60 C94.3 60, 43.59 60, 15 60 M15 60 C5 60, 0 55, 0 45 M0 45 C0 37.54, 0 30.09, 0 15 M0 15 C0 5, 5 0, 15 0" stroke="#1e1e1e" stroke-width="1.5" fill="none" stroke-dasharray="1.5 7"></path></g><g transform="translate(622.177734375 177) rotate(0 47.822265625 23)"><text x="47.822265625" y="0" font-family="Helvetica, Segoe UI Emoji" font-size="20px" fill="#1e1e1e" text-anchor="middle" style="white-space: pre;" direction="ltr" dominant-baseline="text-before-edge">任务队列</text><text x="47.822265625" y="23" font-family="Helvetica, Segoe UI Emoji" font-size="20px" fill="#1e1e1e" text-anchor="middle" style="white-space: pre;" direction="ltr" dominant-baseline="text-before-edge">run_queue</text></g><g stroke-linecap="round"><g transform="translate(610 110) rotate(0 0 20)"><path d="M0 0 C0 6.67, 0 33.33, 0 40 M0 0 C0 6.67, 0 33.33, 0 40" stroke="#1e1e1e" stroke-width="1" fill="none"></path></g><g transform="translate(610 110) rotate(0 0 20)"><path d="M-6.84 21.21 C-5.22 25.67, -3.59 30.14, 0 40 M-6.84 21.21 C-5.01 26.25, -3.17 31.29, 0 40" stroke="#1e1e1e" stroke-width="1" fill="none"></path></g><g transform="translate(610 110) rotate(0 0 20)"><path d="M6.84 21.21 C5.22 25.67, 3.59 30.14, 0 40 M6.84 21.21 C5.01 26.25, 3.17 31.29, 0 40" stroke="#1e1e1e" stroke-width="1" fill="none"></path></g></g><mask></mask><g stroke-linecap="round"><g transform="translate(730 150) rotate(0 0 -20)"><path d="M0 0 C0 -6.67, 0 -33.33, 0 -40 M0 0 C0 -6.67, 0 -33.33, 0 -40" stroke="#1e1e1e" stroke-width="1" fill="none"></path></g><g transform="translate(730 150) rotate(0 0 -20)"><path d="M6.84 -21.21 C4.98 -26.32, 3.12 -31.43, 0 -40 M6.84 -21.21 C4.83 -26.72, 2.82 -32.24, 0 -40" stroke="#1e1e1e" stroke-width="1" fill="none"></path></g><g transform="translate(730 150) rotate(0 0 -20)"><path d="M-6.84 -21.21 C-4.98 -26.32, -3.12 -31.43, 0 -40 M-6.84 -21.21 C-4.83 -26.72, -2.82 -32.24, 0 -40" stroke="#1e1e1e" stroke-width="1" fill="none"></path></g></g><mask></mask><g transform="translate(633.2000122070312 127.60000610351562) rotate(0 35.576171875 11.5)"><text x="0" y="0" font-family="Helvetica, Segoe UI Emoji" font-size="20px" fill="#1e1e1e" text-anchor="start" style="white-space: pre;" direction="ltr" dominant-baseline="text-before-edge">resched</text></g></svg>