<svg width="934" height="555" xmlns="http://www.w3.org/2000/svg" xmlns:xlink="http://www.w3.org/1999/xlink" overflow="hidden"><g transform="translate(-32 -124)"><rect x="338.5" y="614.5" width="400" height="64" stroke="#172C51" stroke-width="1.33333" stroke-miterlimit="8" fill="#FFFFFF"/><path d="M368.5 635C368.5 631.41 371.41 628.5 375 628.5L453 628.5C456.59 628.5 459.5 631.41 459.5 635L459.5 661C459.5 664.59 456.59 667.5 453 667.5L375 667.5C371.41 667.5 368.5 664.59 368.5 661Z" stroke="#172C51" stroke-width="1.33333" stroke-miterlimit="8" fill="#FFFFFF" fill-rule="evenodd"/><text font-family="DengXian,DengXian_MSFontService,sans-serif" font-weight="400" font-size="24" transform="translate(391.203 655)">CPU</text><path d="M491.5 635.167C491.5 631.485 494.485 628.5 498.167 628.5L575.833 628.5C579.515 628.5 582.5 631.485 582.5 635.167L582.5 661.833C582.5 665.515 579.515 668.5 575.833 668.5L498.167 668.5C494.485 668.5 491.5 665.515 491.5 661.833Z" stroke="#172C51" stroke-width="1.33333" stroke-miterlimit="8" fill="#FFFFFF" fill-rule="evenodd"/><text font-family="DengXian,DengXian_MSFontService,sans-serif" font-weight="400" font-size="24" transform="translate(512.812 656)">内存</text><path d="M616.5 635.834C616.5 632.336 619.336 629.5 622.834 629.5L701.167 629.5C704.664 629.5 707.5 632.336 707.5 635.834L707.5 661.167C707.5 664.664 704.664 667.5 701.167 667.5L622.834 667.5C619.336 667.5 616.5 664.664 616.5 661.167Z" stroke="#172C51" stroke-width="1.33333" stroke-miterlimit="8" fill="#FFFFFF" fill-rule="evenodd"/><text font-family="DengXian,DengXian_MSFontService,sans-serif" font-weight="400" font-size="24" transform="translate(637.483 656)">外设</text><path d="M340.5 540C340.5 535.858 343.858 532.5 348 532.5L455 532.5C459.142 532.5 462.5 535.858 462.5 540L462.5 570C462.5 574.142 459.142 577.5 455 577.5L348 577.5C343.858 577.5 340.5 574.142 340.5 570Z" stroke="#172C51" stroke-width="1.33333" stroke-miterlimit="8" fill="#FFFFFF" fill-rule="evenodd"/><text font-family="DengXian,DengXian_MSFontService,sans-serif" font-weight="400" font-size="24" transform="translate(352.909 562)">内存管理</text><path d="M340.5 476.167C340.5 471.933 343.933 468.5 348.167 468.5L455.833 468.5C460.068 468.5 463.5 471.933 463.5 476.167L463.5 506.833C463.5 511.068 460.068 514.5 455.833 514.5L348.167 514.5C343.933 514.5 340.5 511.068 340.5 506.833Z" stroke="#172C51" stroke-width="1.33333" stroke-miterlimit="8" fill="#FFFFFF" fill-rule="evenodd"/><text font-family="DengXian,DengXian_MSFontService,sans-serif" font-weight="400" font-size="24" transform="translate(353.442 499)">任务调度</text><path d="M469.5 476.167C469.5 471.933 472.933 468.5 477.167 468.5L593.833 468.5C598.068 468.5 601.5 471.933 601.5 476.167L601.5 506.833C601.5 511.068 598.068 514.5 593.833 514.5L477.167 514.5C472.933 514.5 469.5 511.068 469.5 506.833Z" stroke="#172C51" stroke-width="1.33333" stroke-miterlimit="8" fill="#FFFFFF" fill-rule="evenodd"/><text font-family="DengXian,DengXian_MSFontService,sans-serif" font-weight="400" font-size="24" transform="translate(483.429 499)">Block</text><text font-family="DengXian,DengXian_MSFontService,sans-serif" font-weight="400" font-size="24" transform="translate(538.096 499)">驱动</text><path d="M609.5 540C609.5 535.858 612.858 532.5 617 532.5L734 532.5C738.142 532.5 741.5 535.858 741.5 540L741.5 570C741.5 574.142 738.142 577.5 734 577.5L617 577.5C612.858 577.5 609.5 574.142 609.5 570Z" stroke="#172C51" stroke-width="1.33333" stroke-miterlimit="8" fill="#FFFFFF" fill-rule="evenodd"/><text font-family="DengXian,DengXian_MSFontService,sans-serif" font-weight="400" font-size="24" transform="translate(626.878 562)">中断管理</text><path d="M608.5 476.167C608.5 471.933 611.933 468.5 616.167 468.5L732.833 468.5C737.068 468.5 740.5 471.933 740.5 476.167L740.5 506.833C740.5 511.068 737.068 514.5 732.833 514.5L616.167 514.5C611.933 514.5 608.5 511.068 608.5 506.833Z" stroke="#172C51" stroke-width="1.33333" stroke-miterlimit="8" fill="#FFFFFF" fill-rule="evenodd"/><text font-family="DengXian,DengXian_MSFontService,sans-serif" font-weight="400" font-size="24" transform="translate(630.841 499)">NIC</text><text font-family="DengXian,DengXian_MSFontService,sans-serif" font-weight="400" font-size="24" transform="translate(669.174 499)">驱动</text><path d="M469.5 419C469.5 414.858 472.858 411.5 477 411.5L594 411.5C598.142 411.5 601.5 414.858 601.5 419L601.5 449C601.5 453.142 598.142 456.5 594 456.5L477 456.5C472.858 456.5 469.5 453.142 469.5 449Z" stroke="#172C51" stroke-width="1.33333" stroke-miterlimit="8" fill="#FFFFFF" fill-rule="evenodd"/><text font-family="DengXian,DengXian_MSFontService,sans-serif" font-weight="400" font-size="24" transform="translate(486.762 441)">文件系统</text><path d="M608.5 419C608.5 414.858 611.858 411.5 616 411.5L733 411.5C737.142 411.5 740.5 414.858 740.5 419L740.5 449C740.5 453.142 737.142 456.5 733 456.5L616 456.5C611.858 456.5 608.5 453.142 608.5 449Z" stroke="#172C51" stroke-width="1.33333" stroke-miterlimit="8" fill="#FFFFFF" fill-rule="evenodd"/><text font-family="DengXian,DengXian_MSFontService,sans-serif" font-weight="400" font-size="24" transform="translate(637.913 441)">协议栈</text><path d="M345.5 233C345.5 228.858 348.858 225.5 353 225.5L504 225.5C508.142 225.5 511.5 228.858 511.5 233L511.5 263C511.5 267.142 508.142 270.5 504 270.5L353 270.5C348.858 270.5 345.5 267.142 345.5 263Z" stroke="#172C51" stroke-width="1.33333" stroke-miterlimit="8" fill="#FFFFFF" fill-rule="evenodd"/><text font-family="DengXian,DengXian_MSFontService,sans-serif" font-weight="400" font-size="24" transform="translate(386.889 255)">axorigin</text><path d="M339.5 418C339.5 413.858 342.858 410.5 347 410.5L455 410.5C459.142 410.5 462.5 413.858 462.5 418L462.5 448C462.5 452.142 459.142 455.5 455 455.5L347 455.5C342.858 455.5 339.5 452.142 339.5 448Z" stroke="#172C51" stroke-width="1.33333" stroke-miterlimit="8" fill="#FFFFFF" fill-rule="evenodd"/><text font-family="DengXian,DengXian_MSFontService,sans-serif" font-weight="400" font-size="24" transform="translate(352.376 440)">多核支持</text><path d="M469.5 540C469.5 535.858 472.858 532.5 477 532.5L594 532.5C598.142 532.5 601.5 535.858 601.5 540L601.5 570C601.5 574.142 598.142 577.5 594 577.5L477 577.5C472.858 577.5 469.5 574.142 469.5 570Z" stroke="#172C51" stroke-width="1.33333" stroke-miterlimit="8" fill="#FFFFFF" fill-rule="evenodd"/><text font-family="DengXian,DengXian_MSFontService,sans-serif" font-weight="400" font-size="24" transform="translate(486.762 562)">设备管理</text><path d="M339.5 328C339.5 323.858 342.858 320.5 347 320.5L731 320.5C735.142 320.5 738.5 323.858 738.5 328L738.5 358C738.5 362.142 735.142 365.5 731 365.5L347 365.5C342.858 365.5 339.5 362.142 339.5 358Z" stroke="#172C51" stroke-width="1.33333" stroke-miterlimit="8" fill="#FFFFFF" fill-rule="evenodd"/><text font-family="DengXian,DengXian_MSFontService,sans-serif" font-weight="400" font-size="24" transform="translate(478.699 350)">应用</text><text font-family="DengXian,DengXian_MSFontService,sans-serif" font-weight="400" font-size="24" transform="translate(526.699 350)">接口</text><text font-family="DengXian,DengXian_MSFontService,sans-serif" font-weight="400" font-size="24" transform="translate(574.699 350)">库</text><path d="M162.5 383.5 773.018 383.5" stroke="#000000" stroke-width="0.666667" stroke-miterlimit="8" fill="none" fill-rule="evenodd"/><path d="M161.5 591.5 772.866 591.5" stroke="#000000" stroke-width="0.666667" stroke-miterlimit="8" fill="none" fill-rule="evenodd"/><text font-family="DengXian,DengXian_MSFontService,sans-serif" font-weight="400" font-size="24" transform="translate(170.219 254)">应用层</text><text font-family="DengXian,DengXian_MSFontService,sans-serif" font-weight="400" font-size="24" transform="translate(170.532 653)">硬件层</text><path d="M141.5 592.5C130.454 592.5 121.5 591.008 121.5 589.167L121.5 396.833C121.5 394.992 112.546 393.5 101.5 393.5 112.546 393.5 121.5 392.008 121.5 390.167L121.5 197.833C121.5 195.992 130.455 194.5 141.5 194.5" stroke="#000000" stroke-width="0.666667" stroke-miterlimit="8" fill="none" fill-rule="evenodd"/><text font-family="DengXian,DengXian_MSFontService,sans-serif" font-weight="400" font-size="24" transform="translate(49.1117 384)">一切</text><text font-family="DengXian,DengXian_MSFontService,sans-serif" font-weight="700" font-size="24" transform="translate(61.1117 413)">皆</text><text font-family="DengXian,DengXian_MSFontService,sans-serif" font-weight="400" font-size="24" transform="translate(49.1117 442)">组件</text><text font-family="DengXian,DengXian_MSFontService,sans-serif" font-weight="400" font-size="24" transform="translate(170.219 479)">内核层</text><path d="M162.5 296.5 773.018 296.5" stroke="#000000" stroke-width="0.666667" stroke-miterlimit="8" fill="none" fill-rule="evenodd"/><text font-family="DengXian,DengXian_MSFontService,sans-serif" font-weight="400" font-size="24" transform="translate(170.219 351)">接口层</text><path d="M564.5 233C564.5 228.858 567.858 225.5 572 225.5L724 225.5C728.142 225.5 731.5 228.858 731.5 233L731.5 263C731.5 267.142 728.142 270.5 724 270.5L572 270.5C567.858 270.5 564.5 267.142 564.5 263Z" stroke="#172C51" stroke-width="1.33333" stroke-miterlimit="8" stroke-dasharray="5.33333 4" fill="#FFFFFF" fill-rule="evenodd"/><text font-family="DengXian,DengXian_MSFontService,sans-serif" font-weight="400" font-size="24" transform="translate(614.875 255)">loader</text><path d="M519.5 243 543.5 243 543.5 234.5 560.5 251.5 543.5 268.5 543.5 260 519.5 260Z" stroke="#172C51" stroke-width="1.33333" stroke-miterlimit="8" fill="#FFFFFF" fill-rule="evenodd"/><path d="M164.5 194.5 775.018 194.5" stroke="#000000" stroke-width="0.666667" stroke-miterlimit="8" fill="none" fill-rule="evenodd"/><path d="M564.5 134C564.5 129.858 567.858 126.5 572 126.5L724 126.5C728.142 126.5 731.5 129.858 731.5 134L731.5 164C731.5 168.142 728.142 171.5 724 171.5L572 171.5C567.858 171.5 564.5 168.142 564.5 164Z" stroke="#172C51" stroke-width="1.33333" stroke-miterlimit="8" stroke-dasharray="5.33333 4" fill="#FFFFFF" fill-rule="evenodd"/><text font-family="DengXian,DengXian_MSFontService,sans-serif" font-weight="400" font-size="24" transform="translate(596.958 156)">Linux</text><text font-family="DengXian,DengXian_MSFontService,sans-serif" font-weight="400" font-size="24" transform="translate(650.292 156)">应用</text><path d="M648.232 224.821 648.177 189.167 648.844 189.166 648.899 224.82ZM644.512 190.506 648.5 182.5 652.512 190.494Z"/><text font-family="DengXian,DengXian_MSFontService,sans-serif" font-weight="400" font-size="24" transform="translate(169.547 159)">外部应用</text><path d="M791.5 194.5C802.822 194.5 812 196.03 812 197.916L812 390.084C812 391.97 821.178 393.5 832.5 393.5 821.178 393.5 812 395.03 812 396.916L812 589.084C812 590.97 802.822 592.5 791.5 592.5" stroke="#000000" stroke-width="0.666667" stroke-miterlimit="8" fill="none" fill-rule="evenodd"/><text font-family="DengXian,DengXian_MSFontService,sans-serif" font-weight="700" font-size="24" transform="translate(842.372 398)">unikernel</text></g></svg>